%TF.GenerationSoftware,KiCad,Pcbnew,(6.0.8-1)-1*%
%TF.CreationDate,2022-11-16T22:41:14-08:00*%
%TF.ProjectId,osh-park-2-layer-kicad-5.99-drc-template,6f73682d-7061-4726-9b2d-322d6c617965,02*%
%TF.SameCoordinates,Original*%
%TF.FileFunction,Copper,L1,Top*%
%TF.FilePolarity,Positive*%
%FSLAX46Y46*%
G04 Gerber Fmt 4.6, Leading zero omitted, Abs format (unit mm)*
G04 Created by KiCad (PCBNEW (6.0.8-1)-1) date 2022-11-16 22:41:14*
%MOMM*%
%LPD*%
G01*
G04 APERTURE LIST*
G04 Aperture macros list*
%AMRoundRect*
0 Rectangle with rounded corners*
0 $1 Rounding radius*
0 $2 $3 $4 $5 $6 $7 $8 $9 X,Y pos of 4 corners*
0 Add a 4 corners polygon primitive as box body*
4,1,4,$2,$3,$4,$5,$6,$7,$8,$9,$2,$3,0*
0 Add four circle primitives for the rounded corners*
1,1,$1+$1,$2,$3*
1,1,$1+$1,$4,$5*
1,1,$1+$1,$6,$7*
1,1,$1+$1,$8,$9*
0 Add four rect primitives between the rounded corners*
20,1,$1+$1,$2,$3,$4,$5,0*
20,1,$1+$1,$4,$5,$6,$7,0*
20,1,$1+$1,$6,$7,$8,$9,0*
20,1,$1+$1,$8,$9,$2,$3,0*%
G04 Aperture macros list end*
%TA.AperFunction,SMDPad,CuDef*%
%ADD10RoundRect,0.250000X-0.450000X0.262500X-0.450000X-0.262500X0.450000X-0.262500X0.450000X0.262500X0*%
%TD*%
%TA.AperFunction,ComponentPad*%
%ADD11R,1.222000X1.222000*%
%TD*%
%TA.AperFunction,ComponentPad*%
%ADD12C,1.222000*%
%TD*%
%TA.AperFunction,ComponentPad*%
%ADD13R,1.700000X1.700000*%
%TD*%
%TA.AperFunction,ComponentPad*%
%ADD14O,1.700000X1.700000*%
%TD*%
%TA.AperFunction,SMDPad,CuDef*%
%ADD15R,1.200000X0.900000*%
%TD*%
%TA.AperFunction,SMDPad,CuDef*%
%ADD16RoundRect,0.250000X0.262500X0.450000X-0.262500X0.450000X-0.262500X-0.450000X0.262500X-0.450000X0*%
%TD*%
%TA.AperFunction,ComponentPad*%
%ADD17R,1.800000X1.800000*%
%TD*%
%TA.AperFunction,ComponentPad*%
%ADD18C,1.800000*%
%TD*%
%TA.AperFunction,ComponentPad*%
%ADD19C,1.676400*%
%TD*%
%TA.AperFunction,ViaPad*%
%ADD20C,0.508000*%
%TD*%
%TA.AperFunction,Conductor*%
%ADD21C,0.152400*%
%TD*%
%TA.AperFunction,Conductor*%
%ADD22C,0.300000*%
%TD*%
%TA.AperFunction,Conductor*%
%ADD23C,1.000000*%
%TD*%
%TA.AperFunction,Conductor*%
%ADD24C,0.450000*%
%TD*%
%TA.AperFunction,Conductor*%
%ADD25C,0.250000*%
%TD*%
%TA.AperFunction,Conductor*%
%ADD26C,0.350000*%
%TD*%
%TA.AperFunction,Conductor*%
%ADD27C,0.400000*%
%TD*%
G04 APERTURE END LIST*
D10*
%TO.P,R4,1*%
%TO.N,/UNO_DP5*%
X174327170Y-69359981D03*
%TO.P,R4,2*%
%TO.N,Net-(D2-Pad4)*%
X174327170Y-71184981D03*
%TD*%
D11*
%TO.P,RV1,1,1*%
%TO.N,unconnected-(RV1-Pad1)*%
X138688281Y-74223478D03*
D12*
%TO.P,RV1,2,2*%
%TO.N,/POT*%
X136148281Y-71683478D03*
%TO.P,RV1,3,3*%
%TO.N,GND*%
X138688281Y-69143478D03*
%TD*%
D10*
%TO.P,R3,1*%
%TO.N,/UNO_DP6*%
X168960138Y-69240714D03*
%TO.P,R3,2*%
%TO.N,Net-(D2-Pad3)*%
X168960138Y-71065714D03*
%TD*%
D13*
%TO.P,J6,1,Pin_1*%
%TO.N,+5V*%
X183630604Y-74644607D03*
D14*
%TO.P,J6,2,Pin_2*%
%TO.N,/UNO_DP2*%
X183630604Y-72104607D03*
%TD*%
D13*
%TO.P,J5,1,Pin_1*%
%TO.N,Net-(D1-Pad1)*%
X179773182Y-76475507D03*
D14*
%TO.P,J5,2,Pin_2*%
%TO.N,GNDPWR*%
X179773182Y-79015507D03*
%TD*%
D13*
%TO.P,J1,1,Pin_1*%
%TO.N,unconnected-(J1-Pad1)*%
X147866658Y-111601644D03*
D14*
%TO.P,J1,2,Pin_2*%
%TO.N,unconnected-(J1-Pad2)*%
X150406658Y-111601644D03*
%TO.P,J1,3,Pin_3*%
%TO.N,unconnected-(J1-Pad3)*%
X152946658Y-111601644D03*
%TO.P,J1,4,Pin_4*%
%TO.N,unconnected-(J1-Pad4)*%
X155486658Y-111601644D03*
%TO.P,J1,5,Pin_5*%
%TO.N,+5V*%
X158026658Y-111601644D03*
%TO.P,J1,6,Pin_6*%
%TO.N,GNDPWR*%
X160566658Y-111601644D03*
%TO.P,J1,7,Pin_7*%
X163106658Y-111601644D03*
%TO.P,J1,8,Pin_8*%
%TO.N,unconnected-(J1-Pad8)*%
X165646658Y-111601644D03*
%TD*%
D15*
%TO.P,D1,1,K*%
%TO.N,Net-(D1-Pad1)*%
X179644968Y-72425627D03*
%TO.P,D1,2,A*%
%TO.N,/UNO_DP3*%
X179644968Y-69125627D03*
%TD*%
D13*
%TO.P,J2,1,Pin_1*%
%TO.N,unconnected-(J2-Pad1)*%
X138722658Y-63341644D03*
D14*
%TO.P,J2,2,Pin_2*%
%TO.N,unconnected-(J2-Pad2)*%
X141262658Y-63341644D03*
%TO.P,J2,3,Pin_3*%
%TO.N,unconnected-(J2-Pad3)*%
X143802658Y-63341644D03*
%TO.P,J2,4,Pin_4*%
%TO.N,GND*%
X146342658Y-63341644D03*
%TO.P,J2,5,Pin_5*%
%TO.N,/UNO_DP13*%
X148882658Y-63341644D03*
%TO.P,J2,6,Pin_6*%
%TO.N,/UNO_DP12*%
X151422658Y-63341644D03*
%TO.P,J2,7,Pin_7*%
%TO.N,/UNO_DP11*%
X153962658Y-63341644D03*
%TO.P,J2,8,Pin_8*%
%TO.N,/UNO_DP10*%
X156502658Y-63341644D03*
%TO.P,J2,9,Pin_9*%
%TO.N,/UNO_DP9*%
X159042658Y-63341644D03*
%TO.P,J2,10,Pin_10*%
%TO.N,/UNO_DP8*%
X161582658Y-63341644D03*
%TD*%
D13*
%TO.P,J4,1,Pin_1*%
%TO.N,/UNO_DP7*%
X165646658Y-63341644D03*
D14*
%TO.P,J4,2,Pin_2*%
%TO.N,/UNO_DP6*%
X168186658Y-63341644D03*
%TO.P,J4,3,Pin_3*%
%TO.N,/UNO_DP5*%
X170726658Y-63341644D03*
%TO.P,J4,4,Pin_4*%
%TO.N,/UNO_DP4*%
X173266658Y-63341644D03*
%TO.P,J4,5,Pin_5*%
%TO.N,/UNO_DP3*%
X175806658Y-63341644D03*
%TO.P,J4,6,Pin_6*%
%TO.N,/UNO_DP2*%
X178346658Y-63341644D03*
%TO.P,J4,7,Pin_7*%
%TO.N,unconnected-(J4-Pad7)*%
X180886658Y-63341644D03*
%TO.P,J4,8,Pin_8*%
%TO.N,unconnected-(J4-Pad8)*%
X183426658Y-63341644D03*
%TD*%
D16*
%TO.P,R1,1*%
%TO.N,/UNO_DP2*%
X184654697Y-67682633D03*
%TO.P,R1,2*%
%TO.N,GND*%
X182829697Y-67682633D03*
%TD*%
D17*
%TO.P,D2,1,BK*%
%TO.N,Net-(D2-Pad1)*%
X161238442Y-87446985D03*
D18*
%TO.P,D2,2,A*%
%TO.N,GND*%
X163397442Y-87446985D03*
%TO.P,D2,3,RK*%
%TO.N,Net-(D2-Pad3)*%
X165556442Y-87446985D03*
%TO.P,D2,4,GK*%
%TO.N,Net-(D2-Pad4)*%
X167715442Y-87446985D03*
%TD*%
D10*
%TO.P,R2,1*%
%TO.N,/UNO_DP7*%
X163712372Y-69318342D03*
%TO.P,R2,2*%
%TO.N,Net-(D2-Pad1)*%
X163712372Y-71143342D03*
%TD*%
D13*
%TO.P,J3,1,Pin_1*%
%TO.N,unconnected-(J3-Pad1)*%
X170726658Y-111601644D03*
D14*
%TO.P,J3,2,Pin_2*%
%TO.N,unconnected-(J3-Pad2)*%
X173266658Y-111601644D03*
%TO.P,J3,3,Pin_3*%
%TO.N,unconnected-(J3-Pad3)*%
X175806658Y-111601644D03*
%TO.P,J3,4,Pin_4*%
%TO.N,unconnected-(J3-Pad4)*%
X178346658Y-111601644D03*
%TO.P,J3,5,Pin_5*%
%TO.N,unconnected-(J3-Pad5)*%
X180886658Y-111601644D03*
%TO.P,J3,6,Pin_6*%
%TO.N,unconnected-(J3-Pad6)*%
X183426658Y-111601644D03*
%TD*%
D13*
%TO.P,J7,1,Pin_1*%
%TO.N,GND*%
X129116243Y-71587024D03*
D14*
%TO.P,J7,2,Pin_2*%
%TO.N,+5V*%
X129116243Y-74127024D03*
%TO.P,J7,3,Pin_3*%
%TO.N,/POT*%
X129116243Y-76667024D03*
%TO.P,J7,4,Pin_4*%
%TO.N,/UNO_DP13*%
X129116243Y-79207024D03*
%TO.P,J7,5,Pin_5*%
%TO.N,GND*%
X129116243Y-81747024D03*
%TO.P,J7,6,Pin_6*%
%TO.N,/UNO_DP12*%
X129116243Y-84287024D03*
%TO.P,J7,7,Pin_7*%
%TO.N,unconnected-(J7-Pad7)*%
X129116243Y-86827024D03*
%TO.P,J7,8,Pin_8*%
%TO.N,unconnected-(J7-Pad8)*%
X129116243Y-89367024D03*
%TO.P,J7,9,Pin_9*%
%TO.N,unconnected-(J7-Pad9)*%
X129116243Y-91907024D03*
%TO.P,J7,10,Pin_10*%
%TO.N,unconnected-(J7-Pad10)*%
X129116243Y-94447024D03*
%TO.P,J7,11,Pin_11*%
%TO.N,/UNO_DP11*%
X129116243Y-96987024D03*
%TO.P,J7,12,Pin_12*%
%TO.N,/UNO_DP10*%
X129116243Y-99527024D03*
%TO.P,J7,13,Pin_13*%
%TO.N,/UNO_DP9*%
X129116243Y-102067024D03*
%TO.P,J7,14,Pin_14*%
%TO.N,/UNO_DP8*%
X129116243Y-104607024D03*
%TO.P,J7,15,Pin_15*%
%TO.N,+5V*%
X129116243Y-107147024D03*
%TO.P,J7,16,Pin_16*%
%TO.N,GND*%
X129116243Y-109687024D03*
%TD*%
D19*
%TO.P,SW1,1,A*%
%TO.N,GND*%
X175142885Y-85033657D03*
%TO.P,SW1,2,B*%
%TO.N,/UNO_DP4*%
X177682885Y-85033657D03*
%TO.P,SW1,3,C*%
%TO.N,+5V*%
X180222885Y-85033657D03*
%TD*%
D20*
%TO.N,GND*%
X184322622Y-98832407D03*
X144206887Y-96908482D03*
X140623810Y-104658002D03*
X158179821Y-102022329D03*
X141783055Y-108747826D03*
X125618215Y-68742698D03*
X184322622Y-101372407D03*
X138997367Y-104705838D03*
X168225495Y-96903819D03*
X169851937Y-96908482D03*
X156266359Y-99482329D03*
X184324986Y-96793185D03*
X168208303Y-91659802D03*
X136956816Y-104732752D03*
X146746887Y-104528482D03*
X168225495Y-94363819D03*
X176897738Y-101459251D03*
X162437273Y-99530165D03*
X154326831Y-92311231D03*
X164542081Y-102022329D03*
X156266359Y-102022329D03*
X154366887Y-101988482D03*
X181141524Y-67626785D03*
X156266359Y-94402329D03*
X172135645Y-75068201D03*
X137137001Y-77270621D03*
X146746887Y-94368482D03*
X152001251Y-87229840D03*
X180722296Y-101393832D03*
X152393441Y-108829509D03*
X149333889Y-92313173D03*
X125618215Y-66202698D03*
X164542081Y-99482329D03*
X122679337Y-109533336D03*
X143416845Y-66641836D03*
X142441598Y-104610165D03*
X146222527Y-108781673D03*
X151826887Y-94368482D03*
X128158215Y-66202698D03*
X166312033Y-99443819D03*
X156266359Y-104562329D03*
X122679337Y-84133336D03*
X175229592Y-108949553D03*
X144323055Y-108747826D03*
X122679337Y-68893336D03*
X171765399Y-94373145D03*
X137245931Y-66594000D03*
X122679337Y-76513336D03*
X178969837Y-106459843D03*
X154407439Y-89727193D03*
X138997367Y-102165838D03*
X122679337Y-91753336D03*
X182621768Y-109047679D03*
X158179821Y-94402329D03*
X122679337Y-81593336D03*
X122679337Y-79053336D03*
X151826887Y-99448482D03*
X160221627Y-92104480D03*
X178969837Y-103919843D03*
X158179821Y-104562329D03*
X172135645Y-72528201D03*
X130698215Y-68742698D03*
X122679337Y-96833336D03*
X160284629Y-94450165D03*
X182621768Y-106507679D03*
X164542081Y-94402329D03*
X166312033Y-96903819D03*
X166372113Y-72608584D03*
X182621768Y-98887679D03*
X156320901Y-87187193D03*
X137171404Y-81446616D03*
X182621768Y-103967679D03*
X138997367Y-99625838D03*
X182654477Y-94841940D03*
X136956816Y-102192752D03*
X162437273Y-94450165D03*
X176865029Y-106507679D03*
X144206887Y-99448482D03*
X168225495Y-99443819D03*
X122679337Y-101913336D03*
X154366887Y-94368482D03*
X176865029Y-103967679D03*
X142217001Y-77270621D03*
X122679337Y-112073336D03*
X175229592Y-103869553D03*
X154366887Y-104528482D03*
X122679337Y-99373336D03*
X149286887Y-104528482D03*
X146746887Y-101988482D03*
X184322622Y-103912407D03*
X184355331Y-94786668D03*
X179056515Y-98940678D03*
X144206887Y-101988482D03*
X164542081Y-96942329D03*
X166312033Y-94363819D03*
X142251404Y-81446616D03*
X122679337Y-63813336D03*
X182624132Y-96848457D03*
X171206416Y-106442262D03*
X134631404Y-81446616D03*
X151826887Y-101988482D03*
X148135989Y-108781673D03*
X139711404Y-81446616D03*
X128158215Y-63662698D03*
X169851937Y-94368482D03*
X162437273Y-104610165D03*
X150240797Y-108829509D03*
X144206887Y-104528482D03*
X130698215Y-63662698D03*
X160284629Y-99530165D03*
X156226303Y-92345078D03*
X178969837Y-108999843D03*
X122679337Y-86673336D03*
X151873889Y-92313173D03*
X142441598Y-96990165D03*
X180722296Y-109013832D03*
X122679337Y-71433336D03*
X173124784Y-103917389D03*
X130698215Y-66202698D03*
X182621768Y-101427679D03*
X122679337Y-104453336D03*
X122679337Y-106993336D03*
X122679337Y-94293336D03*
X149286887Y-94368482D03*
X180722296Y-106473832D03*
X180724660Y-96814610D03*
X173124784Y-108997389D03*
X166372113Y-75148584D03*
X146746887Y-99448482D03*
X146793889Y-92313173D03*
X141264201Y-66641836D03*
X128158215Y-68742698D03*
X135346459Y-66560153D03*
X125618215Y-63662698D03*
X171206416Y-108982262D03*
X179056515Y-101426542D03*
X175229592Y-106409553D03*
X122679337Y-66353336D03*
X160284629Y-104610165D03*
X149286887Y-99448482D03*
X142441598Y-102070165D03*
X180722296Y-98853832D03*
X173124784Y-106457389D03*
X142441598Y-99530165D03*
X151826887Y-104528482D03*
X122679337Y-89213336D03*
X134597001Y-77270621D03*
X154366887Y-99448482D03*
X158179821Y-99482329D03*
X175196883Y-101524669D03*
X139159393Y-66594000D03*
X140623810Y-99578002D03*
X154407439Y-87187193D03*
X144321214Y-94416318D03*
X139243055Y-108747826D03*
X152001251Y-89769840D03*
X156320901Y-89727193D03*
X140623810Y-102118002D03*
X176865029Y-109047679D03*
X149286887Y-101988482D03*
X139677001Y-77270621D03*
X160284629Y-102070165D03*
X145521653Y-66594000D03*
X122679337Y-73973336D03*
X180722296Y-103933832D03*
X162437273Y-102070165D03*
%TO.N,GNDPWR*%
X179787141Y-81373283D03*
X182965482Y-89187907D03*
%TD*%
D21*
%TO.N,GND*%
X182837570Y-67626785D02*
X182842269Y-67631484D01*
D22*
X181141524Y-67626785D02*
X182837570Y-67626785D01*
D23*
%TO.N,Net-(D2-Pad1)*%
X161362298Y-81884532D02*
X161150987Y-82095843D01*
X161150987Y-82095843D02*
X161150987Y-86955990D01*
X163712372Y-77083239D02*
X163712372Y-79534458D01*
X163712372Y-71143342D02*
X163712372Y-77083239D01*
X163712372Y-79534458D02*
X161362298Y-81884532D01*
D24*
%TO.N,/UNO_DP10*%
X132170257Y-99397468D02*
X134887127Y-96680598D01*
X132170257Y-99397468D02*
X129936858Y-99397468D01*
X134887127Y-96680598D02*
X156528262Y-75039463D01*
D25*
X129936858Y-99397468D02*
X129830243Y-99504083D01*
D26*
X156528262Y-75039463D02*
X156528262Y-63588570D01*
D23*
%TO.N,+5V*%
X125832490Y-105655266D02*
X127240077Y-107062853D01*
X158445667Y-111405117D02*
X158241067Y-111405117D01*
X153675607Y-107017468D02*
X157888152Y-111230013D01*
X125832490Y-75164746D02*
X126885879Y-74111357D01*
X180222885Y-89627899D02*
X158445667Y-111405117D01*
X127240077Y-107062853D02*
X128525266Y-107062853D01*
X183630604Y-74644607D02*
X183630604Y-81840897D01*
X180222885Y-85033657D02*
X180222885Y-89627899D01*
X126885879Y-74111357D02*
X129184367Y-74111357D01*
X125832490Y-75164746D02*
X125832490Y-105655266D01*
X183630604Y-81840897D02*
X180710421Y-84761080D01*
D21*
X157888152Y-111230013D02*
X157945591Y-111230013D01*
D23*
X129219429Y-107017468D02*
X153675607Y-107017468D01*
D24*
%TO.N,/UNO_DP13*%
X148882658Y-63341644D02*
X148882658Y-74954372D01*
X144789216Y-79047814D02*
X129785667Y-79047814D01*
X148882658Y-74954372D02*
X144789216Y-79047814D01*
D26*
X129785667Y-79047814D02*
X129765876Y-79067605D01*
D27*
%TO.N,/UNO_DP12*%
X151589308Y-74954350D02*
X151589308Y-63781598D01*
D24*
X142386190Y-84157468D02*
X129609840Y-84157468D01*
D26*
X129609840Y-84157468D02*
X129604959Y-84152587D01*
D27*
X142386190Y-84157468D02*
X151589308Y-74954350D01*
D21*
X151589308Y-63781598D02*
X151481800Y-63674090D01*
D24*
%TO.N,/UNO_DP11*%
X153962658Y-63341644D02*
X153962658Y-75487382D01*
X132598018Y-96832858D02*
X129798059Y-96832858D01*
D26*
X153962658Y-75487382D02*
X153943494Y-75487382D01*
D24*
X153943494Y-75487382D02*
X132598018Y-96832858D01*
%TO.N,/UNO_DP9*%
X159042658Y-63341644D02*
X159042658Y-75029743D01*
X159042658Y-75029743D02*
X132165428Y-101906973D01*
D26*
X129969843Y-101906973D02*
X129958976Y-101917840D01*
D24*
X132156294Y-101906973D02*
X129969843Y-101906973D01*
X132165428Y-101906973D02*
X132156294Y-101906973D01*
%TO.N,/UNO_DP8*%
X132034797Y-104477468D02*
X161596200Y-74916065D01*
D26*
X129743233Y-104481834D02*
X129743233Y-104477834D01*
X129747599Y-104477468D02*
X129743233Y-104481834D01*
D24*
X132034797Y-104477468D02*
X129747599Y-104477468D01*
D26*
X161596200Y-64019353D02*
X161596810Y-64018743D01*
X161596200Y-74916065D02*
X161596200Y-64019353D01*
D24*
%TO.N,/UNO_DP7*%
X163845363Y-66962144D02*
X163845363Y-69536284D01*
X165646658Y-63341644D02*
X165646658Y-65160849D01*
X165646658Y-65160849D02*
X163845363Y-66962144D01*
D25*
%TO.N,/UNO_DP6*%
X168836044Y-69063482D02*
X168783510Y-69116016D01*
D27*
X168186658Y-63341644D02*
X168731247Y-63886233D01*
X168731247Y-63886233D02*
X168731247Y-68832919D01*
D25*
X168731247Y-68832919D02*
X169153884Y-69255556D01*
D27*
%TO.N,/UNO_DP5*%
X174346507Y-67063107D02*
X174346507Y-69252200D01*
X170726658Y-63341644D02*
X174346507Y-66961493D01*
X174346507Y-66961493D02*
X174346507Y-67063107D01*
%TO.N,/UNO_DP4*%
X173266658Y-63341644D02*
X176742808Y-66817794D01*
D24*
X176742808Y-67584848D02*
X176742808Y-83555833D01*
D27*
X176742808Y-83555833D02*
X177587428Y-84400453D01*
X176742808Y-66817794D02*
X176742808Y-67584848D01*
%TO.N,/UNO_DP3*%
X179722251Y-67257237D02*
X179722251Y-68989328D01*
X175806658Y-63341644D02*
X179722251Y-67257237D01*
X179722251Y-68989328D02*
X179716273Y-68995306D01*
%TO.N,/UNO_DP2*%
X178346658Y-63341644D02*
X180490468Y-65485454D01*
X184595656Y-65485454D02*
X184763792Y-65653590D01*
X180490468Y-65485454D02*
X184595656Y-65485454D01*
D25*
X184654697Y-70989743D02*
X184070824Y-71573616D01*
D27*
X184654697Y-67682633D02*
X184654697Y-70989743D01*
X184763792Y-65653590D02*
X184763792Y-67685235D01*
D21*
%TO.N,/POT*%
X129219429Y-76537468D02*
X129891294Y-76537468D01*
D24*
X134502927Y-71659329D02*
X129765876Y-76396380D01*
D27*
X134769433Y-71659329D02*
X134502927Y-71659329D01*
D24*
X134769433Y-71659329D02*
X135674080Y-71659329D01*
D23*
%TO.N,Net-(D2-Pad3)*%
X168960138Y-81175422D02*
X165842086Y-84293474D01*
X168960138Y-78138122D02*
X168960138Y-81175422D01*
X165842086Y-84293474D02*
X165630775Y-84504785D01*
X165630775Y-84504785D02*
X165630775Y-87040514D01*
X168960138Y-71065714D02*
X168960138Y-78138122D01*
D24*
%TO.N,GNDPWR*%
X179855368Y-79686155D02*
X179787141Y-79754382D01*
X182965482Y-91983214D02*
X182965482Y-89187907D01*
D22*
X160566658Y-111601644D02*
X162344852Y-111601644D01*
D24*
X163347052Y-111601644D02*
X182965482Y-91983214D01*
X179787141Y-79754382D02*
X179787141Y-81373283D01*
D21*
X162344852Y-111601644D02*
X162513994Y-111432502D01*
D24*
X163106658Y-111601644D02*
X163347052Y-111601644D01*
D23*
%TO.N,Net-(D2-Pad4)*%
X167828407Y-85011931D02*
X167828407Y-86913727D01*
X170321083Y-82519255D02*
X168377815Y-84462523D01*
X174327170Y-71184981D02*
X174327170Y-78523464D01*
X170331379Y-82519255D02*
X170321083Y-82519255D01*
X174327170Y-78523464D02*
X170331379Y-82519255D01*
X168377815Y-84462523D02*
X167828407Y-85011931D01*
D25*
%TO.N,Net-(D1-Pad1)*%
X179726747Y-75857517D02*
X179662673Y-75921591D01*
D23*
X179726747Y-72484198D02*
X179726747Y-75857517D01*
%TD*%
%TA.AperFunction,Conductor*%
%TO.N,GND*%
G36*
X183232319Y-61330590D02*
G01*
X183253535Y-61347648D01*
X183679700Y-61773813D01*
X183713726Y-61836125D01*
X183708661Y-61906940D01*
X183666114Y-61963776D01*
X183599594Y-61988587D01*
X183568513Y-61986955D01*
X183554942Y-61984538D01*
X183481110Y-61983636D01*
X183336739Y-61981872D01*
X183336737Y-61981872D01*
X183331569Y-61981809D01*
X183110749Y-62015599D01*
X182898414Y-62085001D01*
X182700265Y-62188151D01*
X182696132Y-62191254D01*
X182696129Y-62191256D01*
X182525758Y-62319174D01*
X182521623Y-62322279D01*
X182518051Y-62326017D01*
X182410387Y-62438681D01*
X182367287Y-62483782D01*
X182259859Y-62641265D01*
X182204951Y-62686265D01*
X182134426Y-62694436D01*
X182070679Y-62663182D01*
X182049982Y-62638698D01*
X181969480Y-62514261D01*
X181969478Y-62514258D01*
X181966672Y-62509921D01*
X181816328Y-62344695D01*
X181812277Y-62341496D01*
X181812273Y-62341492D01*
X181645072Y-62209444D01*
X181645068Y-62209442D01*
X181641017Y-62206242D01*
X181604686Y-62186186D01*
X181588794Y-62177413D01*
X181445447Y-62098282D01*
X181440578Y-62096558D01*
X181440574Y-62096556D01*
X181239745Y-62025439D01*
X181239741Y-62025438D01*
X181234870Y-62023713D01*
X181229777Y-62022806D01*
X181229774Y-62022805D01*
X181020031Y-61985444D01*
X181020025Y-61985443D01*
X181014942Y-61984538D01*
X180941110Y-61983636D01*
X180796739Y-61981872D01*
X180796737Y-61981872D01*
X180791569Y-61981809D01*
X180570749Y-62015599D01*
X180358414Y-62085001D01*
X180160265Y-62188151D01*
X180156132Y-62191254D01*
X180156129Y-62191256D01*
X179985758Y-62319174D01*
X179981623Y-62322279D01*
X179978051Y-62326017D01*
X179870387Y-62438681D01*
X179827287Y-62483782D01*
X179719859Y-62641265D01*
X179664951Y-62686265D01*
X179594426Y-62694436D01*
X179530679Y-62663182D01*
X179509982Y-62638698D01*
X179429480Y-62514261D01*
X179429478Y-62514258D01*
X179426672Y-62509921D01*
X179276328Y-62344695D01*
X179272277Y-62341496D01*
X179272273Y-62341492D01*
X179105072Y-62209444D01*
X179105068Y-62209442D01*
X179101017Y-62206242D01*
X179064686Y-62186186D01*
X179048794Y-62177413D01*
X178905447Y-62098282D01*
X178900578Y-62096558D01*
X178900574Y-62096556D01*
X178699745Y-62025439D01*
X178699741Y-62025438D01*
X178694870Y-62023713D01*
X178689777Y-62022806D01*
X178689774Y-62022805D01*
X178480031Y-61985444D01*
X178480025Y-61985443D01*
X178474942Y-61984538D01*
X178401110Y-61983636D01*
X178256739Y-61981872D01*
X178256737Y-61981872D01*
X178251569Y-61981809D01*
X178030749Y-62015599D01*
X177818414Y-62085001D01*
X177620265Y-62188151D01*
X177616132Y-62191254D01*
X177616129Y-62191256D01*
X177445758Y-62319174D01*
X177441623Y-62322279D01*
X177438051Y-62326017D01*
X177330387Y-62438681D01*
X177287287Y-62483782D01*
X177179859Y-62641265D01*
X177124951Y-62686265D01*
X177054426Y-62694436D01*
X176990679Y-62663182D01*
X176969982Y-62638698D01*
X176889480Y-62514261D01*
X176889478Y-62514258D01*
X176886672Y-62509921D01*
X176736328Y-62344695D01*
X176732277Y-62341496D01*
X176732273Y-62341492D01*
X176565072Y-62209444D01*
X176565068Y-62209442D01*
X176561017Y-62206242D01*
X176524686Y-62186186D01*
X176508794Y-62177413D01*
X176365447Y-62098282D01*
X176360578Y-62096558D01*
X176360574Y-62096556D01*
X176159745Y-62025439D01*
X176159741Y-62025438D01*
X176154870Y-62023713D01*
X176149777Y-62022806D01*
X176149774Y-62022805D01*
X175940031Y-61985444D01*
X175940025Y-61985443D01*
X175934942Y-61984538D01*
X175861110Y-61983636D01*
X175716739Y-61981872D01*
X175716737Y-61981872D01*
X175711569Y-61981809D01*
X175490749Y-62015599D01*
X175278414Y-62085001D01*
X175080265Y-62188151D01*
X175076132Y-62191254D01*
X175076129Y-62191256D01*
X174905758Y-62319174D01*
X174901623Y-62322279D01*
X174898051Y-62326017D01*
X174790387Y-62438681D01*
X174747287Y-62483782D01*
X174639859Y-62641265D01*
X174584951Y-62686265D01*
X174514426Y-62694436D01*
X174450679Y-62663182D01*
X174429982Y-62638698D01*
X174349480Y-62514261D01*
X174349478Y-62514258D01*
X174346672Y-62509921D01*
X174196328Y-62344695D01*
X174192277Y-62341496D01*
X174192273Y-62341492D01*
X174025072Y-62209444D01*
X174025068Y-62209442D01*
X174021017Y-62206242D01*
X173984686Y-62186186D01*
X173968794Y-62177413D01*
X173825447Y-62098282D01*
X173820578Y-62096558D01*
X173820574Y-62096556D01*
X173619745Y-62025439D01*
X173619741Y-62025438D01*
X173614870Y-62023713D01*
X173609777Y-62022806D01*
X173609774Y-62022805D01*
X173400031Y-61985444D01*
X173400025Y-61985443D01*
X173394942Y-61984538D01*
X173321110Y-61983636D01*
X173176739Y-61981872D01*
X173176737Y-61981872D01*
X173171569Y-61981809D01*
X172950749Y-62015599D01*
X172738414Y-62085001D01*
X172540265Y-62188151D01*
X172536132Y-62191254D01*
X172536129Y-62191256D01*
X172365758Y-62319174D01*
X172361623Y-62322279D01*
X172358051Y-62326017D01*
X172250387Y-62438681D01*
X172207287Y-62483782D01*
X172099859Y-62641265D01*
X172044951Y-62686265D01*
X171974426Y-62694436D01*
X171910679Y-62663182D01*
X171889982Y-62638698D01*
X171809480Y-62514261D01*
X171809478Y-62514258D01*
X171806672Y-62509921D01*
X171656328Y-62344695D01*
X171652277Y-62341496D01*
X171652273Y-62341492D01*
X171485072Y-62209444D01*
X171485068Y-62209442D01*
X171481017Y-62206242D01*
X171444686Y-62186186D01*
X171428794Y-62177413D01*
X171285447Y-62098282D01*
X171280578Y-62096558D01*
X171280574Y-62096556D01*
X171079745Y-62025439D01*
X171079741Y-62025438D01*
X171074870Y-62023713D01*
X171069777Y-62022806D01*
X171069774Y-62022805D01*
X170860031Y-61985444D01*
X170860025Y-61985443D01*
X170854942Y-61984538D01*
X170781110Y-61983636D01*
X170636739Y-61981872D01*
X170636737Y-61981872D01*
X170631569Y-61981809D01*
X170410749Y-62015599D01*
X170198414Y-62085001D01*
X170000265Y-62188151D01*
X169996132Y-62191254D01*
X169996129Y-62191256D01*
X169825758Y-62319174D01*
X169821623Y-62322279D01*
X169818051Y-62326017D01*
X169710387Y-62438681D01*
X169667287Y-62483782D01*
X169559859Y-62641265D01*
X169504951Y-62686265D01*
X169434426Y-62694436D01*
X169370679Y-62663182D01*
X169349982Y-62638698D01*
X169269480Y-62514261D01*
X169269478Y-62514258D01*
X169266672Y-62509921D01*
X169116328Y-62344695D01*
X169112277Y-62341496D01*
X169112273Y-62341492D01*
X168945072Y-62209444D01*
X168945068Y-62209442D01*
X168941017Y-62206242D01*
X168904686Y-62186186D01*
X168888794Y-62177413D01*
X168745447Y-62098282D01*
X168740578Y-62096558D01*
X168740574Y-62096556D01*
X168539745Y-62025439D01*
X168539741Y-62025438D01*
X168534870Y-62023713D01*
X168529777Y-62022806D01*
X168529774Y-62022805D01*
X168320031Y-61985444D01*
X168320025Y-61985443D01*
X168314942Y-61984538D01*
X168241110Y-61983636D01*
X168096739Y-61981872D01*
X168096737Y-61981872D01*
X168091569Y-61981809D01*
X167870749Y-62015599D01*
X167658414Y-62085001D01*
X167460265Y-62188151D01*
X167456132Y-62191254D01*
X167456129Y-62191256D01*
X167285758Y-62319174D01*
X167281623Y-62322279D01*
X167225195Y-62381328D01*
X167200941Y-62406708D01*
X167139417Y-62442138D01*
X167068504Y-62438681D01*
X167010718Y-62397435D01*
X166991865Y-62363887D01*
X166950425Y-62253347D01*
X166947273Y-62244939D01*
X166859919Y-62128383D01*
X166743363Y-62041029D01*
X166606974Y-61989899D01*
X166544792Y-61983144D01*
X164748524Y-61983144D01*
X164686342Y-61989899D01*
X164549953Y-62041029D01*
X164433397Y-62128383D01*
X164346043Y-62244939D01*
X164294913Y-62381328D01*
X164288158Y-62443510D01*
X164288158Y-64239778D01*
X164294913Y-64301960D01*
X164346043Y-64438349D01*
X164433397Y-64554905D01*
X164549953Y-64642259D01*
X164686342Y-64693389D01*
X164748524Y-64700144D01*
X164765847Y-64700144D01*
X164833968Y-64720146D01*
X164880461Y-64773802D01*
X164890565Y-64844076D01*
X164861071Y-64908656D01*
X164854942Y-64915239D01*
X163372786Y-66397396D01*
X163358374Y-66409783D01*
X163341712Y-66422044D01*
X163336969Y-66427627D01*
X163308732Y-66460864D01*
X163301802Y-66468380D01*
X163296418Y-66473764D01*
X163294155Y-66476625D01*
X163294150Y-66476630D01*
X163279431Y-66495235D01*
X163276642Y-66498637D01*
X163235710Y-66546816D01*
X163235707Y-66546820D01*
X163230971Y-66552395D01*
X163227642Y-66558916D01*
X163224521Y-66563595D01*
X163221585Y-66568349D01*
X163217045Y-66574087D01*
X163213948Y-66580714D01*
X163213947Y-66580715D01*
X163187174Y-66637998D01*
X163185264Y-66641905D01*
X163153187Y-66704726D01*
X163151447Y-66711838D01*
X163149481Y-66717124D01*
X163147723Y-66722409D01*
X163144624Y-66729039D01*
X163133704Y-66781541D01*
X163130258Y-66798107D01*
X163129288Y-66802391D01*
X163112533Y-66870865D01*
X163111863Y-66881664D01*
X163111839Y-66881663D01*
X163111575Y-66886078D01*
X163111285Y-66889328D01*
X163109794Y-66896496D01*
X163109992Y-66903813D01*
X163111817Y-66971267D01*
X163111863Y-66974675D01*
X163111863Y-68215638D01*
X163091861Y-68283759D01*
X163038205Y-68330252D01*
X163025739Y-68335162D01*
X162938426Y-68364292D01*
X162788024Y-68457364D01*
X162663067Y-68582539D01*
X162659227Y-68588769D01*
X162659226Y-68588770D01*
X162574407Y-68726372D01*
X162570257Y-68733104D01*
X162557536Y-68771456D01*
X162525293Y-68868667D01*
X162484863Y-68927027D01*
X162419298Y-68954264D01*
X162349417Y-68941731D01*
X162297405Y-68893406D01*
X162279700Y-68829000D01*
X162279700Y-64578114D01*
X162299702Y-64509993D01*
X162332531Y-64475535D01*
X162462518Y-64382817D01*
X162620754Y-64225133D01*
X162751111Y-64043721D01*
X162756637Y-64032541D01*
X162847794Y-63848097D01*
X162847795Y-63848095D01*
X162850088Y-63843455D01*
X162915028Y-63629713D01*
X162944187Y-63408234D01*
X162944269Y-63404884D01*
X162945732Y-63345009D01*
X162945732Y-63345005D01*
X162945814Y-63341644D01*
X162927510Y-63119005D01*
X162873089Y-62902346D01*
X162784012Y-62697484D01*
X162719647Y-62597991D01*
X162665480Y-62514261D01*
X162665478Y-62514258D01*
X162662672Y-62509921D01*
X162512328Y-62344695D01*
X162508277Y-62341496D01*
X162508273Y-62341492D01*
X162341072Y-62209444D01*
X162341068Y-62209442D01*
X162337017Y-62206242D01*
X162300686Y-62186186D01*
X162284794Y-62177413D01*
X162141447Y-62098282D01*
X162136578Y-62096558D01*
X162136574Y-62096556D01*
X161935745Y-62025439D01*
X161935741Y-62025438D01*
X161930870Y-62023713D01*
X161925777Y-62022806D01*
X161925774Y-62022805D01*
X161716031Y-61985444D01*
X161716025Y-61985443D01*
X161710942Y-61984538D01*
X161637110Y-61983636D01*
X161492739Y-61981872D01*
X161492737Y-61981872D01*
X161487569Y-61981809D01*
X161266749Y-62015599D01*
X161054414Y-62085001D01*
X160856265Y-62188151D01*
X160852132Y-62191254D01*
X160852129Y-62191256D01*
X160681758Y-62319174D01*
X160677623Y-62322279D01*
X160674051Y-62326017D01*
X160566387Y-62438681D01*
X160523287Y-62483782D01*
X160415859Y-62641265D01*
X160360951Y-62686265D01*
X160290426Y-62694436D01*
X160226679Y-62663182D01*
X160205982Y-62638698D01*
X160125480Y-62514261D01*
X160125478Y-62514258D01*
X160122672Y-62509921D01*
X159972328Y-62344695D01*
X159968277Y-62341496D01*
X159968273Y-62341492D01*
X159801072Y-62209444D01*
X159801068Y-62209442D01*
X159797017Y-62206242D01*
X159760686Y-62186186D01*
X159744794Y-62177413D01*
X159601447Y-62098282D01*
X159596578Y-62096558D01*
X159596574Y-62096556D01*
X159395745Y-62025439D01*
X159395741Y-62025438D01*
X159390870Y-62023713D01*
X159385777Y-62022806D01*
X159385774Y-62022805D01*
X159176031Y-61985444D01*
X159176025Y-61985443D01*
X159170942Y-61984538D01*
X159097110Y-61983636D01*
X158952739Y-61981872D01*
X158952737Y-61981872D01*
X158947569Y-61981809D01*
X158726749Y-62015599D01*
X158514414Y-62085001D01*
X158316265Y-62188151D01*
X158312132Y-62191254D01*
X158312129Y-62191256D01*
X158141758Y-62319174D01*
X158137623Y-62322279D01*
X158134051Y-62326017D01*
X158026387Y-62438681D01*
X157983287Y-62483782D01*
X157875859Y-62641265D01*
X157820951Y-62686265D01*
X157750426Y-62694436D01*
X157686679Y-62663182D01*
X157665982Y-62638698D01*
X157585480Y-62514261D01*
X157585478Y-62514258D01*
X157582672Y-62509921D01*
X157432328Y-62344695D01*
X157428277Y-62341496D01*
X157428273Y-62341492D01*
X157261072Y-62209444D01*
X157261068Y-62209442D01*
X157257017Y-62206242D01*
X157220686Y-62186186D01*
X157204794Y-62177413D01*
X157061447Y-62098282D01*
X157056578Y-62096558D01*
X157056574Y-62096556D01*
X156855745Y-62025439D01*
X156855741Y-62025438D01*
X156850870Y-62023713D01*
X156845777Y-62022806D01*
X156845774Y-62022805D01*
X156636031Y-61985444D01*
X156636025Y-61985443D01*
X156630942Y-61984538D01*
X156557110Y-61983636D01*
X156412739Y-61981872D01*
X156412737Y-61981872D01*
X156407569Y-61981809D01*
X156186749Y-62015599D01*
X155974414Y-62085001D01*
X155776265Y-62188151D01*
X155772132Y-62191254D01*
X155772129Y-62191256D01*
X155601758Y-62319174D01*
X155597623Y-62322279D01*
X155594051Y-62326017D01*
X155486387Y-62438681D01*
X155443287Y-62483782D01*
X155335859Y-62641265D01*
X155280951Y-62686265D01*
X155210426Y-62694436D01*
X155146679Y-62663182D01*
X155125982Y-62638698D01*
X155045480Y-62514261D01*
X155045478Y-62514258D01*
X155042672Y-62509921D01*
X154892328Y-62344695D01*
X154888277Y-62341496D01*
X154888273Y-62341492D01*
X154721072Y-62209444D01*
X154721068Y-62209442D01*
X154717017Y-62206242D01*
X154680686Y-62186186D01*
X154664794Y-62177413D01*
X154521447Y-62098282D01*
X154516578Y-62096558D01*
X154516574Y-62096556D01*
X154315745Y-62025439D01*
X154315741Y-62025438D01*
X154310870Y-62023713D01*
X154305777Y-62022806D01*
X154305774Y-62022805D01*
X154096031Y-61985444D01*
X154096025Y-61985443D01*
X154090942Y-61984538D01*
X154017110Y-61983636D01*
X153872739Y-61981872D01*
X153872737Y-61981872D01*
X153867569Y-61981809D01*
X153646749Y-62015599D01*
X153434414Y-62085001D01*
X153236265Y-62188151D01*
X153232132Y-62191254D01*
X153232129Y-62191256D01*
X153061758Y-62319174D01*
X153057623Y-62322279D01*
X153054051Y-62326017D01*
X152946387Y-62438681D01*
X152903287Y-62483782D01*
X152795859Y-62641265D01*
X152740951Y-62686265D01*
X152670426Y-62694436D01*
X152606679Y-62663182D01*
X152585982Y-62638698D01*
X152505480Y-62514261D01*
X152505478Y-62514258D01*
X152502672Y-62509921D01*
X152352328Y-62344695D01*
X152348277Y-62341496D01*
X152348273Y-62341492D01*
X152181072Y-62209444D01*
X152181068Y-62209442D01*
X152177017Y-62206242D01*
X152140686Y-62186186D01*
X152124794Y-62177413D01*
X151981447Y-62098282D01*
X151976578Y-62096558D01*
X151976574Y-62096556D01*
X151775745Y-62025439D01*
X151775741Y-62025438D01*
X151770870Y-62023713D01*
X151765777Y-62022806D01*
X151765774Y-62022805D01*
X151556031Y-61985444D01*
X151556025Y-61985443D01*
X151550942Y-61984538D01*
X151477110Y-61983636D01*
X151332739Y-61981872D01*
X151332737Y-61981872D01*
X151327569Y-61981809D01*
X151106749Y-62015599D01*
X150894414Y-62085001D01*
X150696265Y-62188151D01*
X150692132Y-62191254D01*
X150692129Y-62191256D01*
X150521758Y-62319174D01*
X150517623Y-62322279D01*
X150514051Y-62326017D01*
X150406387Y-62438681D01*
X150363287Y-62483782D01*
X150255859Y-62641265D01*
X150200951Y-62686265D01*
X150130426Y-62694436D01*
X150066679Y-62663182D01*
X150045982Y-62638698D01*
X149965480Y-62514261D01*
X149965478Y-62514258D01*
X149962672Y-62509921D01*
X149812328Y-62344695D01*
X149808277Y-62341496D01*
X149808273Y-62341492D01*
X149641072Y-62209444D01*
X149641068Y-62209442D01*
X149637017Y-62206242D01*
X149600686Y-62186186D01*
X149584794Y-62177413D01*
X149441447Y-62098282D01*
X149436578Y-62096558D01*
X149436574Y-62096556D01*
X149235745Y-62025439D01*
X149235741Y-62025438D01*
X149230870Y-62023713D01*
X149225777Y-62022806D01*
X149225774Y-62022805D01*
X149016031Y-61985444D01*
X149016025Y-61985443D01*
X149010942Y-61984538D01*
X148937110Y-61983636D01*
X148792739Y-61981872D01*
X148792737Y-61981872D01*
X148787569Y-61981809D01*
X148566749Y-62015599D01*
X148354414Y-62085001D01*
X148156265Y-62188151D01*
X148152132Y-62191254D01*
X148152129Y-62191256D01*
X147981758Y-62319174D01*
X147977623Y-62322279D01*
X147974051Y-62326017D01*
X147866387Y-62438681D01*
X147823287Y-62483782D01*
X147715862Y-62641262D01*
X147715556Y-62641710D01*
X147660645Y-62686713D01*
X147590120Y-62694884D01*
X147526373Y-62663630D01*
X147505676Y-62639146D01*
X147425084Y-62514570D01*
X147418794Y-62506401D01*
X147275464Y-62348884D01*
X147267931Y-62341859D01*
X147100797Y-62209866D01*
X147092210Y-62204161D01*
X146905775Y-62101243D01*
X146896363Y-62097013D01*
X146695617Y-62025924D01*
X146685646Y-62023290D01*
X146614495Y-62010616D01*
X146601198Y-62012076D01*
X146596658Y-62026633D01*
X146596658Y-64660161D01*
X146600722Y-64674003D01*
X146614136Y-64676037D01*
X146620842Y-64675178D01*
X146630920Y-64673036D01*
X146834913Y-64611835D01*
X146844500Y-64608077D01*
X147035753Y-64514383D01*
X147044603Y-64509108D01*
X147217986Y-64385436D01*
X147225858Y-64378783D01*
X147376710Y-64228456D01*
X147383388Y-64220609D01*
X147510680Y-64043463D01*
X147511937Y-64044366D01*
X147559031Y-64001006D01*
X147628969Y-63988789D01*
X147694409Y-64016322D01*
X147722237Y-64048155D01*
X147782645Y-64146732D01*
X147928908Y-64315582D01*
X148066654Y-64429941D01*
X148100784Y-64458276D01*
X148099794Y-64459469D01*
X148139758Y-64509469D01*
X148149158Y-64557222D01*
X148149158Y-74598356D01*
X148129156Y-74666477D01*
X148112253Y-74687451D01*
X144522296Y-78277409D01*
X144459984Y-78311435D01*
X144433201Y-78314314D01*
X130196467Y-78314314D01*
X130128346Y-78294312D01*
X130103273Y-78273113D01*
X130045913Y-78210075D01*
X129913790Y-78105730D01*
X129874657Y-78074824D01*
X129874653Y-78074822D01*
X129870602Y-78071622D01*
X129829296Y-78048820D01*
X129779327Y-77998388D01*
X129764555Y-77928945D01*
X129789671Y-77862540D01*
X129817023Y-77835933D01*
X129860846Y-77804674D01*
X129996103Y-77708197D01*
X130154339Y-77550513D01*
X130213837Y-77467713D01*
X130281678Y-77373301D01*
X130284696Y-77369101D01*
X130383673Y-77168835D01*
X130448613Y-76955093D01*
X130473979Y-76762424D01*
X130502702Y-76697497D01*
X130509806Y-76689776D01*
X132316970Y-74882612D01*
X137568781Y-74882612D01*
X137575536Y-74944794D01*
X137626666Y-75081183D01*
X137714020Y-75197739D01*
X137830576Y-75285093D01*
X137966965Y-75336223D01*
X138029147Y-75342978D01*
X139347415Y-75342978D01*
X139409597Y-75336223D01*
X139545986Y-75285093D01*
X139662542Y-75197739D01*
X139749896Y-75081183D01*
X139801026Y-74944794D01*
X139807781Y-74882612D01*
X139807781Y-73564344D01*
X139801026Y-73502162D01*
X139749896Y-73365773D01*
X139662542Y-73249217D01*
X139545986Y-73161863D01*
X139409597Y-73110733D01*
X139347415Y-73103978D01*
X138029147Y-73103978D01*
X137966965Y-73110733D01*
X137830576Y-73161863D01*
X137714020Y-73249217D01*
X137626666Y-73365773D01*
X137575536Y-73502162D01*
X137568781Y-73564344D01*
X137568781Y-74882612D01*
X132316970Y-74882612D01*
X134769848Y-72429734D01*
X134832160Y-72395708D01*
X134858943Y-72392829D01*
X135220759Y-72392829D01*
X135288880Y-72412831D01*
X135308681Y-72428575D01*
X135422422Y-72539376D01*
X135440739Y-72557220D01*
X135611813Y-72671529D01*
X135617116Y-72673807D01*
X135617119Y-72673809D01*
X135711682Y-72714436D01*
X135800854Y-72752747D01*
X135864679Y-72767189D01*
X135995894Y-72796880D01*
X135995899Y-72796881D01*
X136001531Y-72798155D01*
X136007302Y-72798382D01*
X136007304Y-72798382D01*
X136068741Y-72800796D01*
X136207122Y-72806233D01*
X136410743Y-72776710D01*
X136481336Y-72752747D01*
X136600101Y-72712432D01*
X136600106Y-72712430D01*
X136605573Y-72710574D01*
X136671222Y-72673809D01*
X136681025Y-72668319D01*
X136785089Y-72610040D01*
X136795401Y-72601464D01*
X136938846Y-72482161D01*
X136943278Y-72478475D01*
X136997874Y-72412831D01*
X137071149Y-72324728D01*
X137071151Y-72324725D01*
X137074843Y-72320286D01*
X137175377Y-72140770D01*
X137177233Y-72135303D01*
X137177235Y-72135298D01*
X137239657Y-71951408D01*
X137239657Y-71951407D01*
X137241513Y-71945940D01*
X137271036Y-71742319D01*
X137272577Y-71683478D01*
X137258511Y-71530398D01*
X137254280Y-71484345D01*
X137254279Y-71484342D01*
X137253751Y-71478591D01*
X137252183Y-71473029D01*
X137199470Y-71286126D01*
X137197902Y-71280566D01*
X137106901Y-71096035D01*
X136988448Y-70937407D01*
X136987249Y-70935801D01*
X136987248Y-70935800D01*
X136983796Y-70931177D01*
X136979560Y-70927261D01*
X136836949Y-70795433D01*
X136836946Y-70795431D01*
X136832709Y-70791514D01*
X136658701Y-70681723D01*
X136467598Y-70605481D01*
X136265802Y-70565341D01*
X136260027Y-70565265D01*
X136260023Y-70565265D01*
X136157233Y-70563920D01*
X136060070Y-70562648D01*
X136054373Y-70563627D01*
X136054372Y-70563627D01*
X135862989Y-70596512D01*
X135862988Y-70596512D01*
X135857292Y-70597491D01*
X135664259Y-70668705D01*
X135487436Y-70773903D01*
X135483092Y-70777713D01*
X135483086Y-70777717D01*
X135349853Y-70894560D01*
X135285449Y-70924438D01*
X135266775Y-70925829D01*
X134726607Y-70925829D01*
X134648286Y-70934960D01*
X134614745Y-70934375D01*
X134535934Y-70922385D01*
X134535930Y-70922385D01*
X134528700Y-70921285D01*
X134521409Y-70921878D01*
X134521406Y-70921878D01*
X134443461Y-70928219D01*
X134358223Y-70935152D01*
X134351264Y-70937406D01*
X134351261Y-70937407D01*
X134202473Y-70985607D01*
X134202470Y-70985608D01*
X134195507Y-70987864D01*
X134189252Y-70991660D01*
X134189249Y-70991661D01*
X134054072Y-71073689D01*
X134054069Y-71073691D01*
X134049282Y-71076596D01*
X134045079Y-71080308D01*
X134042639Y-71082462D01*
X134042631Y-71082470D01*
X134041172Y-71083758D01*
X130671475Y-74453455D01*
X130609163Y-74487481D01*
X130538348Y-74482416D01*
X130481512Y-74439869D01*
X130456701Y-74373349D01*
X130457458Y-74347914D01*
X130477335Y-74196935D01*
X130477335Y-74196931D01*
X130477772Y-74193614D01*
X130479399Y-74127024D01*
X130461095Y-73904385D01*
X130406674Y-73687726D01*
X130317597Y-73482864D01*
X130247287Y-73374181D01*
X130199065Y-73299641D01*
X130199063Y-73299638D01*
X130196257Y-73295301D01*
X130192783Y-73291483D01*
X130192776Y-73291474D01*
X130048678Y-73133112D01*
X130017626Y-73069266D01*
X130026022Y-72998768D01*
X130071199Y-72944000D01*
X130097643Y-72930331D01*
X130204295Y-72890349D01*
X130219892Y-72881810D01*
X130321967Y-72805309D01*
X130334528Y-72792748D01*
X130411029Y-72690673D01*
X130419567Y-72675078D01*
X130464721Y-72554630D01*
X130468348Y-72539375D01*
X130473874Y-72488510D01*
X130474243Y-72481696D01*
X130474243Y-71859139D01*
X130469768Y-71843900D01*
X130468378Y-71842695D01*
X130460695Y-71841024D01*
X127776359Y-71841024D01*
X127761120Y-71845499D01*
X127759915Y-71846889D01*
X127758244Y-71854572D01*
X127758244Y-72481693D01*
X127758614Y-72488514D01*
X127764138Y-72539376D01*
X127767764Y-72554628D01*
X127812919Y-72675078D01*
X127821457Y-72690673D01*
X127897958Y-72792748D01*
X127910515Y-72805305D01*
X128004884Y-72876030D01*
X128047399Y-72932890D01*
X128052425Y-73003708D01*
X128018365Y-73066002D01*
X127956034Y-73099992D01*
X127929319Y-73102857D01*
X126947722Y-73102857D01*
X126934115Y-73102120D01*
X126902617Y-73098698D01*
X126902612Y-73098698D01*
X126896491Y-73098033D01*
X126870241Y-73100330D01*
X126846491Y-73102407D01*
X126841665Y-73102736D01*
X126839193Y-73102857D01*
X126836110Y-73102857D01*
X126824678Y-73103978D01*
X126793373Y-73107047D01*
X126792060Y-73107169D01*
X126751326Y-73110733D01*
X126699466Y-73115270D01*
X126694347Y-73116757D01*
X126689046Y-73117277D01*
X126600045Y-73144148D01*
X126598912Y-73144483D01*
X126515465Y-73168727D01*
X126515461Y-73168729D01*
X126509543Y-73170448D01*
X126504811Y-73172901D01*
X126499710Y-73174441D01*
X126494267Y-73177335D01*
X126417619Y-73218088D01*
X126416453Y-73218700D01*
X126367962Y-73243836D01*
X126333953Y-73261465D01*
X126329790Y-73264788D01*
X126325083Y-73267291D01*
X126252961Y-73326112D01*
X126252105Y-73326803D01*
X126212906Y-73358095D01*
X126210402Y-73360599D01*
X126209684Y-73361241D01*
X126205351Y-73364942D01*
X126171817Y-73392292D01*
X126167890Y-73397039D01*
X126167888Y-73397041D01*
X126142592Y-73427619D01*
X126134613Y-73436388D01*
X125163102Y-74407900D01*
X125152968Y-74416993D01*
X125123465Y-74440714D01*
X125119498Y-74445442D01*
X125091199Y-74479167D01*
X125088018Y-74482815D01*
X125086375Y-74484627D01*
X125084181Y-74486821D01*
X125056848Y-74520095D01*
X125056186Y-74520893D01*
X124996336Y-74592220D01*
X124993768Y-74596890D01*
X124990387Y-74601007D01*
X124963825Y-74650546D01*
X124946513Y-74682832D01*
X124945884Y-74683991D01*
X124904028Y-74760127D01*
X124904025Y-74760135D01*
X124901057Y-74765533D01*
X124899445Y-74770615D01*
X124896928Y-74775309D01*
X124869728Y-74864277D01*
X124869408Y-74865305D01*
X124841255Y-74954052D01*
X124840661Y-74959348D01*
X124839103Y-74964444D01*
X124831724Y-75037090D01*
X124829708Y-75056933D01*
X124829579Y-75058139D01*
X124823990Y-75107973D01*
X124823990Y-75111500D01*
X124823935Y-75112485D01*
X124823488Y-75118165D01*
X124819116Y-75161208D01*
X124822197Y-75193796D01*
X124823431Y-75206855D01*
X124823990Y-75218713D01*
X124823990Y-105593423D01*
X124823253Y-105607030D01*
X124819166Y-105644654D01*
X124821463Y-105670904D01*
X124823540Y-105694654D01*
X124823869Y-105699480D01*
X124823990Y-105701957D01*
X124823990Y-105705035D01*
X124824290Y-105708092D01*
X124824291Y-105708118D01*
X124828178Y-105747751D01*
X124828298Y-105749036D01*
X124836403Y-105841679D01*
X124837890Y-105846798D01*
X124838410Y-105852099D01*
X124865281Y-105941100D01*
X124865616Y-105942233D01*
X124889849Y-106025639D01*
X124891581Y-106031602D01*
X124894034Y-106036334D01*
X124895574Y-106041435D01*
X124898468Y-106046878D01*
X124939221Y-106123526D01*
X124939833Y-106124692D01*
X124971236Y-106185273D01*
X124982598Y-106207192D01*
X124985921Y-106211355D01*
X124988424Y-106216062D01*
X125047245Y-106288184D01*
X125047936Y-106289040D01*
X125079228Y-106328239D01*
X125081732Y-106330743D01*
X125082374Y-106331461D01*
X125086075Y-106335794D01*
X125113425Y-106369328D01*
X125118172Y-106373255D01*
X125118174Y-106373257D01*
X125148752Y-106398553D01*
X125157532Y-106406543D01*
X126483222Y-107732232D01*
X126492324Y-107742375D01*
X126516045Y-107771878D01*
X126520773Y-107775845D01*
X126554498Y-107804144D01*
X126558147Y-107807326D01*
X126559960Y-107808970D01*
X126562152Y-107811162D01*
X126595353Y-107838433D01*
X126596241Y-107839171D01*
X126631514Y-107868768D01*
X126662830Y-107895046D01*
X126662833Y-107895048D01*
X126667551Y-107899007D01*
X126672224Y-107901576D01*
X126676339Y-107904956D01*
X126681768Y-107907867D01*
X126681771Y-107907869D01*
X126758257Y-107948881D01*
X126759415Y-107949510D01*
X126799061Y-107971305D01*
X126840864Y-107994286D01*
X126845942Y-107995897D01*
X126850640Y-107998416D01*
X126939575Y-108025606D01*
X126940779Y-108025981D01*
X127029383Y-108054088D01*
X127034674Y-108054681D01*
X127039775Y-108056241D01*
X127132388Y-108065648D01*
X127133508Y-108065768D01*
X127183304Y-108071353D01*
X127186833Y-108071353D01*
X127187816Y-108071408D01*
X127193503Y-108071856D01*
X127213760Y-108073913D01*
X127230413Y-108075605D01*
X127230416Y-108075605D01*
X127236540Y-108076227D01*
X127282189Y-108071912D01*
X127294046Y-108071353D01*
X128061966Y-108071353D01*
X128130087Y-108091355D01*
X128157203Y-108114855D01*
X128162493Y-108120962D01*
X128334369Y-108263656D01*
X128408198Y-108306798D01*
X128456922Y-108358436D01*
X128469993Y-108428219D01*
X128443262Y-108493991D01*
X128402805Y-108527351D01*
X128394700Y-108531570D01*
X128385981Y-108537060D01*
X128215676Y-108664929D01*
X128207969Y-108671772D01*
X128060833Y-108825741D01*
X128054347Y-108833751D01*
X127934341Y-109009673D01*
X127929243Y-109018647D01*
X127839581Y-109211807D01*
X127836018Y-109221494D01*
X127780632Y-109421207D01*
X127782155Y-109429631D01*
X127794535Y-109433024D01*
X130434587Y-109433024D01*
X130448118Y-109429051D01*
X130449423Y-109419971D01*
X130407457Y-109252899D01*
X130404137Y-109243148D01*
X130319215Y-109047838D01*
X130314348Y-109038763D01*
X130198669Y-108859950D01*
X130192379Y-108851781D01*
X130049049Y-108694264D01*
X130041516Y-108687239D01*
X129874382Y-108555246D01*
X129865799Y-108549544D01*
X129828845Y-108529144D01*
X129778874Y-108478711D01*
X129764102Y-108409269D01*
X129789218Y-108342863D01*
X129816570Y-108316256D01*
X129840040Y-108299515D01*
X129996103Y-108188197D01*
X130122023Y-108062717D01*
X130184394Y-108028801D01*
X130210962Y-108025968D01*
X153205682Y-108025968D01*
X153273803Y-108045970D01*
X153294777Y-108062873D01*
X155286815Y-110054910D01*
X155320840Y-110117222D01*
X155315776Y-110188037D01*
X155273229Y-110244873D01*
X155216780Y-110268555D01*
X155184900Y-110273434D01*
X155170749Y-110275599D01*
X154958414Y-110345001D01*
X154760265Y-110448151D01*
X154756132Y-110451254D01*
X154756129Y-110451256D01*
X154652219Y-110529274D01*
X154581623Y-110582279D01*
X154578051Y-110586017D01*
X154439678Y-110730816D01*
X154427287Y-110743782D01*
X154319859Y-110901265D01*
X154264951Y-110946265D01*
X154194426Y-110954436D01*
X154130679Y-110923182D01*
X154109982Y-110898698D01*
X154029480Y-110774261D01*
X154029478Y-110774258D01*
X154026672Y-110769921D01*
X153876328Y-110604695D01*
X153872277Y-110601496D01*
X153872273Y-110601492D01*
X153705072Y-110469444D01*
X153705068Y-110469442D01*
X153701017Y-110466242D01*
X153692183Y-110461365D01*
X153648794Y-110437413D01*
X153505447Y-110358282D01*
X153500578Y-110356558D01*
X153500574Y-110356556D01*
X153299745Y-110285439D01*
X153299741Y-110285438D01*
X153294870Y-110283713D01*
X153289777Y-110282806D01*
X153289774Y-110282805D01*
X153080031Y-110245444D01*
X153080025Y-110245443D01*
X153074942Y-110244538D01*
X153001110Y-110243636D01*
X152856739Y-110241872D01*
X152856737Y-110241872D01*
X152851569Y-110241809D01*
X152630749Y-110275599D01*
X152418414Y-110345001D01*
X152220265Y-110448151D01*
X152216132Y-110451254D01*
X152216129Y-110451256D01*
X152112219Y-110529274D01*
X152041623Y-110582279D01*
X152038051Y-110586017D01*
X151899678Y-110730816D01*
X151887287Y-110743782D01*
X151779859Y-110901265D01*
X151724951Y-110946265D01*
X151654426Y-110954436D01*
X151590679Y-110923182D01*
X151569982Y-110898698D01*
X151489480Y-110774261D01*
X151489478Y-110774258D01*
X151486672Y-110769921D01*
X151336328Y-110604695D01*
X151332277Y-110601496D01*
X151332273Y-110601492D01*
X151165072Y-110469444D01*
X151165068Y-110469442D01*
X151161017Y-110466242D01*
X151152183Y-110461365D01*
X151108794Y-110437413D01*
X150965447Y-110358282D01*
X150960578Y-110356558D01*
X150960574Y-110356556D01*
X150759745Y-110285439D01*
X150759741Y-110285438D01*
X150754870Y-110283713D01*
X150749777Y-110282806D01*
X150749774Y-110282805D01*
X150540031Y-110245444D01*
X150540025Y-110245443D01*
X150534942Y-110244538D01*
X150461110Y-110243636D01*
X150316739Y-110241872D01*
X150316737Y-110241872D01*
X150311569Y-110241809D01*
X150090749Y-110275599D01*
X149878414Y-110345001D01*
X149680265Y-110448151D01*
X149676132Y-110451254D01*
X149676129Y-110451256D01*
X149572219Y-110529274D01*
X149501623Y-110582279D01*
X149422201Y-110665390D01*
X149420941Y-110666708D01*
X149359417Y-110702138D01*
X149288504Y-110698681D01*
X149230718Y-110657435D01*
X149211865Y-110623887D01*
X149170425Y-110513347D01*
X149167273Y-110504939D01*
X149079919Y-110388383D01*
X148963363Y-110301029D01*
X148826974Y-110249899D01*
X148764792Y-110243144D01*
X146968524Y-110243144D01*
X146906342Y-110249899D01*
X146769953Y-110301029D01*
X146653397Y-110388383D01*
X146566043Y-110504939D01*
X146514913Y-110641328D01*
X146508158Y-110703510D01*
X146508158Y-112499778D01*
X146514913Y-112561960D01*
X146566043Y-112698349D01*
X146653397Y-112814905D01*
X146769953Y-112902259D01*
X146906342Y-112953389D01*
X146968524Y-112960144D01*
X148764792Y-112960144D01*
X148826974Y-112953389D01*
X148963363Y-112902259D01*
X149079919Y-112814905D01*
X149167273Y-112698349D01*
X149191642Y-112633345D01*
X149211256Y-112581026D01*
X149253898Y-112524262D01*
X149320460Y-112499562D01*
X149389808Y-112514770D01*
X149424475Y-112542758D01*
X149452908Y-112575582D01*
X149624784Y-112718276D01*
X149817658Y-112830982D01*
X150026350Y-112910674D01*
X150031418Y-112911705D01*
X150031421Y-112911706D01*
X150099256Y-112925507D01*
X150245255Y-112955211D01*
X150250430Y-112955401D01*
X150250432Y-112955401D01*
X150463331Y-112963208D01*
X150463335Y-112963208D01*
X150468495Y-112963397D01*
X150473615Y-112962741D01*
X150473617Y-112962741D01*
X150684946Y-112935669D01*
X150684947Y-112935669D01*
X150690074Y-112935012D01*
X150728039Y-112923622D01*
X150899087Y-112872305D01*
X150899092Y-112872303D01*
X150904042Y-112870818D01*
X151104652Y-112772540D01*
X151286518Y-112642817D01*
X151444754Y-112485133D01*
X151454351Y-112471778D01*
X151575111Y-112303721D01*
X151576434Y-112304672D01*
X151623303Y-112261501D01*
X151693238Y-112249269D01*
X151758684Y-112276788D01*
X151786533Y-112308638D01*
X151846645Y-112406732D01*
X151992908Y-112575582D01*
X152164784Y-112718276D01*
X152357658Y-112830982D01*
X152566350Y-112910674D01*
X152571418Y-112911705D01*
X152571421Y-112911706D01*
X152639256Y-112925507D01*
X152785255Y-112955211D01*
X152790430Y-112955401D01*
X152790432Y-112955401D01*
X153003331Y-112963208D01*
X153003335Y-112963208D01*
X153008495Y-112963397D01*
X153013615Y-112962741D01*
X153013617Y-112962741D01*
X153224946Y-112935669D01*
X153224947Y-112935669D01*
X153230074Y-112935012D01*
X153268039Y-112923622D01*
X153439087Y-112872305D01*
X153439092Y-112872303D01*
X153444042Y-112870818D01*
X153644652Y-112772540D01*
X153826518Y-112642817D01*
X153984754Y-112485133D01*
X153994351Y-112471778D01*
X154115111Y-112303721D01*
X154116434Y-112304672D01*
X154163303Y-112261501D01*
X154233238Y-112249269D01*
X154298684Y-112276788D01*
X154326533Y-112308638D01*
X154386645Y-112406732D01*
X154532908Y-112575582D01*
X154704784Y-112718276D01*
X154897658Y-112830982D01*
X155106350Y-112910674D01*
X155111418Y-112911705D01*
X155111421Y-112911706D01*
X155179256Y-112925507D01*
X155325255Y-112955211D01*
X155330430Y-112955401D01*
X155330432Y-112955401D01*
X155543331Y-112963208D01*
X155543335Y-112963208D01*
X155548495Y-112963397D01*
X155553615Y-112962741D01*
X155553617Y-112962741D01*
X155764946Y-112935669D01*
X155764947Y-112935669D01*
X155770074Y-112935012D01*
X155808039Y-112923622D01*
X155979087Y-112872305D01*
X155979092Y-112872303D01*
X155984042Y-112870818D01*
X156184652Y-112772540D01*
X156366518Y-112642817D01*
X156524754Y-112485133D01*
X156534351Y-112471778D01*
X156655111Y-112303721D01*
X156656434Y-112304672D01*
X156703303Y-112261501D01*
X156773238Y-112249269D01*
X156838684Y-112276788D01*
X156866533Y-112308638D01*
X156926645Y-112406732D01*
X157072908Y-112575582D01*
X157244784Y-112718276D01*
X157437658Y-112830982D01*
X157646350Y-112910674D01*
X157651418Y-112911705D01*
X157651421Y-112911706D01*
X157719256Y-112925507D01*
X157865255Y-112955211D01*
X157870430Y-112955401D01*
X157870432Y-112955401D01*
X158083331Y-112963208D01*
X158083335Y-112963208D01*
X158088495Y-112963397D01*
X158093615Y-112962741D01*
X158093617Y-112962741D01*
X158304946Y-112935669D01*
X158304947Y-112935669D01*
X158310074Y-112935012D01*
X158348039Y-112923622D01*
X158519087Y-112872305D01*
X158519092Y-112872303D01*
X158524042Y-112870818D01*
X158724652Y-112772540D01*
X158906518Y-112642817D01*
X159064754Y-112485133D01*
X159074351Y-112471778D01*
X159195111Y-112303721D01*
X159196434Y-112304672D01*
X159243303Y-112261501D01*
X159313238Y-112249269D01*
X159378684Y-112276788D01*
X159406533Y-112308638D01*
X159466645Y-112406732D01*
X159612908Y-112575582D01*
X159784784Y-112718276D01*
X159977658Y-112830982D01*
X160186350Y-112910674D01*
X160191418Y-112911705D01*
X160191421Y-112911706D01*
X160259256Y-112925507D01*
X160405255Y-112955211D01*
X160410430Y-112955401D01*
X160410432Y-112955401D01*
X160623331Y-112963208D01*
X160623335Y-112963208D01*
X160628495Y-112963397D01*
X160633615Y-112962741D01*
X160633617Y-112962741D01*
X160844946Y-112935669D01*
X160844947Y-112935669D01*
X160850074Y-112935012D01*
X160888039Y-112923622D01*
X161059087Y-112872305D01*
X161059092Y-112872303D01*
X161064042Y-112870818D01*
X161264652Y-112772540D01*
X161446518Y-112642817D01*
X161604754Y-112485133D01*
X161614351Y-112471778D01*
X161728718Y-112312618D01*
X161784713Y-112268970D01*
X161831041Y-112260144D01*
X161846252Y-112260144D01*
X161914373Y-112280146D01*
X161953685Y-112320309D01*
X162006645Y-112406732D01*
X162152908Y-112575582D01*
X162324784Y-112718276D01*
X162517658Y-112830982D01*
X162726350Y-112910674D01*
X162731418Y-112911705D01*
X162731421Y-112911706D01*
X162799256Y-112925507D01*
X162945255Y-112955211D01*
X162950430Y-112955401D01*
X162950432Y-112955401D01*
X163163331Y-112963208D01*
X163163335Y-112963208D01*
X163168495Y-112963397D01*
X163173615Y-112962741D01*
X163173617Y-112962741D01*
X163384946Y-112935669D01*
X163384947Y-112935669D01*
X163390074Y-112935012D01*
X163428039Y-112923622D01*
X163599087Y-112872305D01*
X163599092Y-112872303D01*
X163604042Y-112870818D01*
X163804652Y-112772540D01*
X163986518Y-112642817D01*
X164144754Y-112485133D01*
X164154351Y-112471778D01*
X164275111Y-112303721D01*
X164276434Y-112304672D01*
X164323303Y-112261501D01*
X164393238Y-112249269D01*
X164458684Y-112276788D01*
X164486533Y-112308638D01*
X164546645Y-112406732D01*
X164692908Y-112575582D01*
X164864784Y-112718276D01*
X165057658Y-112830982D01*
X165266350Y-112910674D01*
X165271418Y-112911705D01*
X165271421Y-112911706D01*
X165339256Y-112925507D01*
X165485255Y-112955211D01*
X165490430Y-112955401D01*
X165490432Y-112955401D01*
X165703331Y-112963208D01*
X165703335Y-112963208D01*
X165708495Y-112963397D01*
X165713615Y-112962741D01*
X165713617Y-112962741D01*
X165924946Y-112935669D01*
X165924947Y-112935669D01*
X165930074Y-112935012D01*
X165968039Y-112923622D01*
X166139087Y-112872305D01*
X166139092Y-112872303D01*
X166144042Y-112870818D01*
X166344652Y-112772540D01*
X166526518Y-112642817D01*
X166670058Y-112499778D01*
X169368158Y-112499778D01*
X169374913Y-112561960D01*
X169426043Y-112698349D01*
X169513397Y-112814905D01*
X169629953Y-112902259D01*
X169766342Y-112953389D01*
X169828524Y-112960144D01*
X171624792Y-112960144D01*
X171686974Y-112953389D01*
X171823363Y-112902259D01*
X171939919Y-112814905D01*
X172027273Y-112698349D01*
X172051642Y-112633345D01*
X172071256Y-112581026D01*
X172113898Y-112524262D01*
X172180460Y-112499562D01*
X172249808Y-112514770D01*
X172284475Y-112542758D01*
X172312908Y-112575582D01*
X172484784Y-112718276D01*
X172677658Y-112830982D01*
X172886350Y-112910674D01*
X172891418Y-112911705D01*
X172891421Y-112911706D01*
X172959256Y-112925507D01*
X173105255Y-112955211D01*
X173110430Y-112955401D01*
X173110432Y-112955401D01*
X173323331Y-112963208D01*
X173323335Y-112963208D01*
X173328495Y-112963397D01*
X173333615Y-112962741D01*
X173333617Y-112962741D01*
X173544946Y-112935669D01*
X173544947Y-112935669D01*
X173550074Y-112935012D01*
X173588039Y-112923622D01*
X173759087Y-112872305D01*
X173759092Y-112872303D01*
X173764042Y-112870818D01*
X173964652Y-112772540D01*
X174146518Y-112642817D01*
X174304754Y-112485133D01*
X174314351Y-112471778D01*
X174435111Y-112303721D01*
X174436434Y-112304672D01*
X174483303Y-112261501D01*
X174553238Y-112249269D01*
X174618684Y-112276788D01*
X174646533Y-112308638D01*
X174706645Y-112406732D01*
X174852908Y-112575582D01*
X175024784Y-112718276D01*
X175217658Y-112830982D01*
X175426350Y-112910674D01*
X175431418Y-112911705D01*
X175431421Y-112911706D01*
X175499256Y-112925507D01*
X175645255Y-112955211D01*
X175650430Y-112955401D01*
X175650432Y-112955401D01*
X175863331Y-112963208D01*
X175863335Y-112963208D01*
X175868495Y-112963397D01*
X175873615Y-112962741D01*
X175873617Y-112962741D01*
X176084946Y-112935669D01*
X176084947Y-112935669D01*
X176090074Y-112935012D01*
X176128039Y-112923622D01*
X176299087Y-112872305D01*
X176299092Y-112872303D01*
X176304042Y-112870818D01*
X176504652Y-112772540D01*
X176686518Y-112642817D01*
X176844754Y-112485133D01*
X176854351Y-112471778D01*
X176975111Y-112303721D01*
X176976434Y-112304672D01*
X177023303Y-112261501D01*
X177093238Y-112249269D01*
X177158684Y-112276788D01*
X177186533Y-112308638D01*
X177246645Y-112406732D01*
X177392908Y-112575582D01*
X177564784Y-112718276D01*
X177757658Y-112830982D01*
X177966350Y-112910674D01*
X177971418Y-112911705D01*
X177971421Y-112911706D01*
X178039256Y-112925507D01*
X178185255Y-112955211D01*
X178190430Y-112955401D01*
X178190432Y-112955401D01*
X178403331Y-112963208D01*
X178403335Y-112963208D01*
X178408495Y-112963397D01*
X178413615Y-112962741D01*
X178413617Y-112962741D01*
X178624946Y-112935669D01*
X178624947Y-112935669D01*
X178630074Y-112935012D01*
X178668039Y-112923622D01*
X178839087Y-112872305D01*
X178839092Y-112872303D01*
X178844042Y-112870818D01*
X179044652Y-112772540D01*
X179226518Y-112642817D01*
X179384754Y-112485133D01*
X179394351Y-112471778D01*
X179515111Y-112303721D01*
X179516434Y-112304672D01*
X179563303Y-112261501D01*
X179633238Y-112249269D01*
X179698684Y-112276788D01*
X179726533Y-112308638D01*
X179786645Y-112406732D01*
X179932908Y-112575582D01*
X180104784Y-112718276D01*
X180297658Y-112830982D01*
X180506350Y-112910674D01*
X180511418Y-112911705D01*
X180511421Y-112911706D01*
X180579256Y-112925507D01*
X180725255Y-112955211D01*
X180730430Y-112955401D01*
X180730432Y-112955401D01*
X180943331Y-112963208D01*
X180943335Y-112963208D01*
X180948495Y-112963397D01*
X180953615Y-112962741D01*
X180953617Y-112962741D01*
X181164946Y-112935669D01*
X181164947Y-112935669D01*
X181170074Y-112935012D01*
X181208039Y-112923622D01*
X181379087Y-112872305D01*
X181379092Y-112872303D01*
X181384042Y-112870818D01*
X181584652Y-112772540D01*
X181766518Y-112642817D01*
X181924754Y-112485133D01*
X181934351Y-112471778D01*
X182055111Y-112303721D01*
X182056434Y-112304672D01*
X182103303Y-112261501D01*
X182173238Y-112249269D01*
X182238684Y-112276788D01*
X182266533Y-112308638D01*
X182326645Y-112406732D01*
X182472908Y-112575582D01*
X182644784Y-112718276D01*
X182837658Y-112830982D01*
X183046350Y-112910674D01*
X183051418Y-112911705D01*
X183051421Y-112911706D01*
X183119256Y-112925507D01*
X183265255Y-112955211D01*
X183270430Y-112955401D01*
X183270432Y-112955401D01*
X183483331Y-112963208D01*
X183483335Y-112963208D01*
X183488495Y-112963397D01*
X183493615Y-112962741D01*
X183493617Y-112962741D01*
X183704946Y-112935669D01*
X183704947Y-112935669D01*
X183710074Y-112935012D01*
X183748039Y-112923622D01*
X183919087Y-112872305D01*
X183919092Y-112872303D01*
X183924042Y-112870818D01*
X184124652Y-112772540D01*
X184306518Y-112642817D01*
X184464754Y-112485133D01*
X184474351Y-112471778D01*
X184592093Y-112307921D01*
X184595111Y-112303721D01*
X184600637Y-112292541D01*
X184691794Y-112108097D01*
X184691795Y-112108095D01*
X184694088Y-112103455D01*
X184759028Y-111889713D01*
X184788187Y-111668234D01*
X184789814Y-111601644D01*
X184771510Y-111379005D01*
X184717089Y-111162346D01*
X184628012Y-110957484D01*
X184579059Y-110881814D01*
X184509480Y-110774261D01*
X184509478Y-110774258D01*
X184506672Y-110769921D01*
X184356328Y-110604695D01*
X184352277Y-110601496D01*
X184352273Y-110601492D01*
X184185072Y-110469444D01*
X184185068Y-110469442D01*
X184181017Y-110466242D01*
X184172183Y-110461365D01*
X184128794Y-110437413D01*
X183985447Y-110358282D01*
X183980578Y-110356558D01*
X183980574Y-110356556D01*
X183779745Y-110285439D01*
X183779741Y-110285438D01*
X183774870Y-110283713D01*
X183769777Y-110282806D01*
X183769774Y-110282805D01*
X183560031Y-110245444D01*
X183560025Y-110245443D01*
X183554942Y-110244538D01*
X183481110Y-110243636D01*
X183336739Y-110241872D01*
X183336737Y-110241872D01*
X183331569Y-110241809D01*
X183110749Y-110275599D01*
X182898414Y-110345001D01*
X182700265Y-110448151D01*
X182696132Y-110451254D01*
X182696129Y-110451256D01*
X182592219Y-110529274D01*
X182521623Y-110582279D01*
X182518051Y-110586017D01*
X182379678Y-110730816D01*
X182367287Y-110743782D01*
X182259859Y-110901265D01*
X182204951Y-110946265D01*
X182134426Y-110954436D01*
X182070679Y-110923182D01*
X182049982Y-110898698D01*
X181969480Y-110774261D01*
X181969478Y-110774258D01*
X181966672Y-110769921D01*
X181816328Y-110604695D01*
X181812277Y-110601496D01*
X181812273Y-110601492D01*
X181645072Y-110469444D01*
X181645068Y-110469442D01*
X181641017Y-110466242D01*
X181632183Y-110461365D01*
X181588794Y-110437413D01*
X181445447Y-110358282D01*
X181440578Y-110356558D01*
X181440574Y-110356556D01*
X181239745Y-110285439D01*
X181239741Y-110285438D01*
X181234870Y-110283713D01*
X181229777Y-110282806D01*
X181229774Y-110282805D01*
X181020031Y-110245444D01*
X181020025Y-110245443D01*
X181014942Y-110244538D01*
X180941110Y-110243636D01*
X180796739Y-110241872D01*
X180796737Y-110241872D01*
X180791569Y-110241809D01*
X180570749Y-110275599D01*
X180358414Y-110345001D01*
X180160265Y-110448151D01*
X180156132Y-110451254D01*
X180156129Y-110451256D01*
X180052219Y-110529274D01*
X179981623Y-110582279D01*
X179978051Y-110586017D01*
X179839678Y-110730816D01*
X179827287Y-110743782D01*
X179719859Y-110901265D01*
X179664951Y-110946265D01*
X179594426Y-110954436D01*
X179530679Y-110923182D01*
X179509982Y-110898698D01*
X179429480Y-110774261D01*
X179429478Y-110774258D01*
X179426672Y-110769921D01*
X179276328Y-110604695D01*
X179272277Y-110601496D01*
X179272273Y-110601492D01*
X179105072Y-110469444D01*
X179105068Y-110469442D01*
X179101017Y-110466242D01*
X179092183Y-110461365D01*
X179048794Y-110437413D01*
X178905447Y-110358282D01*
X178900578Y-110356558D01*
X178900574Y-110356556D01*
X178699745Y-110285439D01*
X178699741Y-110285438D01*
X178694870Y-110283713D01*
X178689777Y-110282806D01*
X178689774Y-110282805D01*
X178480031Y-110245444D01*
X178480025Y-110245443D01*
X178474942Y-110244538D01*
X178401110Y-110243636D01*
X178256739Y-110241872D01*
X178256737Y-110241872D01*
X178251569Y-110241809D01*
X178030749Y-110275599D01*
X177818414Y-110345001D01*
X177620265Y-110448151D01*
X177616132Y-110451254D01*
X177616129Y-110451256D01*
X177512219Y-110529274D01*
X177441623Y-110582279D01*
X177438051Y-110586017D01*
X177299678Y-110730816D01*
X177287287Y-110743782D01*
X177179859Y-110901265D01*
X177124951Y-110946265D01*
X177054426Y-110954436D01*
X176990679Y-110923182D01*
X176969982Y-110898698D01*
X176889480Y-110774261D01*
X176889478Y-110774258D01*
X176886672Y-110769921D01*
X176736328Y-110604695D01*
X176732277Y-110601496D01*
X176732273Y-110601492D01*
X176565072Y-110469444D01*
X176565068Y-110469442D01*
X176561017Y-110466242D01*
X176552183Y-110461365D01*
X176508794Y-110437413D01*
X176365447Y-110358282D01*
X176360578Y-110356558D01*
X176360574Y-110356556D01*
X176159745Y-110285439D01*
X176159741Y-110285438D01*
X176154870Y-110283713D01*
X176149777Y-110282806D01*
X176149774Y-110282805D01*
X175940031Y-110245444D01*
X175940025Y-110245443D01*
X175934942Y-110244538D01*
X175861110Y-110243636D01*
X175716739Y-110241872D01*
X175716737Y-110241872D01*
X175711569Y-110241809D01*
X175490749Y-110275599D01*
X175278414Y-110345001D01*
X175080265Y-110448151D01*
X175076132Y-110451254D01*
X175076129Y-110451256D01*
X174972219Y-110529274D01*
X174901623Y-110582279D01*
X174898051Y-110586017D01*
X174759678Y-110730816D01*
X174747287Y-110743782D01*
X174639859Y-110901265D01*
X174584951Y-110946265D01*
X174514426Y-110954436D01*
X174450679Y-110923182D01*
X174429982Y-110898698D01*
X174349480Y-110774261D01*
X174349478Y-110774258D01*
X174346672Y-110769921D01*
X174196328Y-110604695D01*
X174192277Y-110601496D01*
X174192273Y-110601492D01*
X174025072Y-110469444D01*
X174025068Y-110469442D01*
X174021017Y-110466242D01*
X174012183Y-110461365D01*
X173968794Y-110437413D01*
X173825447Y-110358282D01*
X173820578Y-110356558D01*
X173820574Y-110356556D01*
X173619745Y-110285439D01*
X173619741Y-110285438D01*
X173614870Y-110283713D01*
X173609777Y-110282806D01*
X173609774Y-110282805D01*
X173400031Y-110245444D01*
X173400025Y-110245443D01*
X173394942Y-110244538D01*
X173321110Y-110243636D01*
X173176739Y-110241872D01*
X173176737Y-110241872D01*
X173171569Y-110241809D01*
X172950749Y-110275599D01*
X172738414Y-110345001D01*
X172540265Y-110448151D01*
X172536132Y-110451254D01*
X172536129Y-110451256D01*
X172432219Y-110529274D01*
X172361623Y-110582279D01*
X172282201Y-110665390D01*
X172280941Y-110666708D01*
X172219417Y-110702138D01*
X172148504Y-110698681D01*
X172090718Y-110657435D01*
X172071865Y-110623887D01*
X172030425Y-110513347D01*
X172027273Y-110504939D01*
X171939919Y-110388383D01*
X171823363Y-110301029D01*
X171686974Y-110249899D01*
X171624792Y-110243144D01*
X169828524Y-110243144D01*
X169766342Y-110249899D01*
X169629953Y-110301029D01*
X169513397Y-110388383D01*
X169426043Y-110504939D01*
X169374913Y-110641328D01*
X169368158Y-110703510D01*
X169368158Y-112499778D01*
X166670058Y-112499778D01*
X166684754Y-112485133D01*
X166694351Y-112471778D01*
X166812093Y-112307921D01*
X166815111Y-112303721D01*
X166820637Y-112292541D01*
X166911794Y-112108097D01*
X166911795Y-112108095D01*
X166914088Y-112103455D01*
X166979028Y-111889713D01*
X167008187Y-111668234D01*
X167009814Y-111601644D01*
X166991510Y-111379005D01*
X166937089Y-111162346D01*
X166848012Y-110957484D01*
X166799059Y-110881814D01*
X166729480Y-110774261D01*
X166729478Y-110774258D01*
X166726672Y-110769921D01*
X166576328Y-110604695D01*
X166572277Y-110601496D01*
X166572273Y-110601492D01*
X166405072Y-110469444D01*
X166405068Y-110469442D01*
X166401017Y-110466242D01*
X166392183Y-110461365D01*
X166348794Y-110437413D01*
X166205447Y-110358282D01*
X166200578Y-110356558D01*
X166200574Y-110356556D01*
X165999745Y-110285439D01*
X165999741Y-110285438D01*
X165994870Y-110283713D01*
X165984325Y-110281835D01*
X165920769Y-110250196D01*
X165884407Y-110189218D01*
X165886785Y-110118261D01*
X165917329Y-110068693D01*
X183438063Y-92547959D01*
X183452476Y-92535572D01*
X183463234Y-92527655D01*
X183469133Y-92523314D01*
X183502107Y-92484501D01*
X183509037Y-92476985D01*
X183514428Y-92471594D01*
X183531441Y-92450090D01*
X183534218Y-92446704D01*
X183575131Y-92398547D01*
X183575135Y-92398542D01*
X183579874Y-92392963D01*
X183583204Y-92386441D01*
X183586324Y-92381763D01*
X183589260Y-92377009D01*
X183593800Y-92371271D01*
X183623671Y-92307360D01*
X183625581Y-92303453D01*
X183657658Y-92240632D01*
X183659398Y-92233520D01*
X183661364Y-92228234D01*
X183663122Y-92222949D01*
X183666221Y-92216319D01*
X183680588Y-92147246D01*
X183681558Y-92142962D01*
X183691632Y-92101791D01*
X183698312Y-92074493D01*
X183698982Y-92063694D01*
X183699006Y-92063695D01*
X183699270Y-92059279D01*
X183699560Y-92056030D01*
X183701051Y-92048862D01*
X183699028Y-91974074D01*
X183698982Y-91970668D01*
X183698982Y-89427441D01*
X183705415Y-89392387D01*
X183704447Y-89392139D01*
X183706198Y-89385320D01*
X183708700Y-89378733D01*
X183732508Y-89209332D01*
X183732807Y-89187907D01*
X183713738Y-89017907D01*
X183684082Y-88932744D01*
X183659796Y-88863004D01*
X183659795Y-88863002D01*
X183657481Y-88856357D01*
X183599065Y-88762871D01*
X183570563Y-88717259D01*
X183566830Y-88711285D01*
X183553641Y-88698003D01*
X183457720Y-88601410D01*
X183446291Y-88589901D01*
X183367093Y-88539641D01*
X183307798Y-88502011D01*
X183307795Y-88502009D01*
X183301855Y-88498240D01*
X183295222Y-88495878D01*
X183147336Y-88443218D01*
X183147331Y-88443217D01*
X183140701Y-88440856D01*
X183133713Y-88440023D01*
X183133710Y-88440022D01*
X183018137Y-88426241D01*
X182970839Y-88420601D01*
X182963836Y-88421337D01*
X182963835Y-88421337D01*
X182919440Y-88426003D01*
X182800710Y-88438482D01*
X182790553Y-88441940D01*
X182645438Y-88491341D01*
X182645435Y-88491342D01*
X182638771Y-88493611D01*
X182493070Y-88583247D01*
X182488039Y-88588174D01*
X182488036Y-88588176D01*
X182430780Y-88644246D01*
X182370848Y-88702935D01*
X182367029Y-88708860D01*
X182367028Y-88708862D01*
X182357651Y-88723412D01*
X182278180Y-88846727D01*
X182275769Y-88853350D01*
X182275768Y-88853353D01*
X182222082Y-89000854D01*
X182222081Y-89000859D01*
X182219672Y-89007477D01*
X182198232Y-89177193D01*
X182214925Y-89347443D01*
X182217149Y-89354128D01*
X182225540Y-89379353D01*
X182231982Y-89419125D01*
X182231982Y-91627198D01*
X182211980Y-91695319D01*
X182195077Y-91716293D01*
X163638687Y-110272684D01*
X163576375Y-110306710D01*
X163507534Y-110302362D01*
X163454870Y-110283713D01*
X163449781Y-110282806D01*
X163449779Y-110282806D01*
X163240031Y-110245444D01*
X163240025Y-110245443D01*
X163234942Y-110244538D01*
X163161110Y-110243636D01*
X163016739Y-110241872D01*
X163016737Y-110241872D01*
X163011569Y-110241809D01*
X162790749Y-110275599D01*
X162578414Y-110345001D01*
X162380265Y-110448151D01*
X162376132Y-110451254D01*
X162376129Y-110451256D01*
X162272219Y-110529274D01*
X162201623Y-110582279D01*
X162198051Y-110586017D01*
X162059678Y-110730816D01*
X162047287Y-110743782D01*
X162044378Y-110748047D01*
X162044372Y-110748055D01*
X161948807Y-110888148D01*
X161893896Y-110933151D01*
X161844719Y-110943144D01*
X161827290Y-110943144D01*
X161759169Y-110923142D01*
X161721498Y-110885584D01*
X161649480Y-110774261D01*
X161649478Y-110774258D01*
X161646672Y-110769921D01*
X161496328Y-110604695D01*
X161492277Y-110601496D01*
X161492273Y-110601492D01*
X161325072Y-110469444D01*
X161325068Y-110469442D01*
X161321017Y-110466242D01*
X161138910Y-110365714D01*
X161088940Y-110315281D01*
X161074168Y-110245838D01*
X161099284Y-110179433D01*
X161110709Y-110166310D01*
X180892264Y-90384754D01*
X180902407Y-90375652D01*
X180927103Y-90355796D01*
X180931910Y-90351931D01*
X180964177Y-90313477D01*
X180967357Y-90309830D01*
X180969000Y-90308018D01*
X180971194Y-90305824D01*
X180998527Y-90272550D01*
X180999233Y-90271699D01*
X181055080Y-90205143D01*
X181059039Y-90200425D01*
X181061607Y-90195755D01*
X181064988Y-90191638D01*
X181108862Y-90109813D01*
X181109491Y-90108654D01*
X181151347Y-90032518D01*
X181151350Y-90032510D01*
X181154318Y-90027112D01*
X181155930Y-90022030D01*
X181158447Y-90017336D01*
X181185647Y-89928368D01*
X181185993Y-89927257D01*
X181212258Y-89844462D01*
X181214120Y-89838593D01*
X181214714Y-89833297D01*
X181216272Y-89828201D01*
X181225675Y-89735642D01*
X181225796Y-89734506D01*
X181231385Y-89684672D01*
X181231385Y-89681145D01*
X181231440Y-89680160D01*
X181231887Y-89674480D01*
X181236259Y-89631437D01*
X181231944Y-89585790D01*
X181231385Y-89573932D01*
X181231385Y-85979984D01*
X181251387Y-85911863D01*
X181257490Y-85903574D01*
X181258458Y-85902606D01*
X181393616Y-85709579D01*
X181400497Y-85694824D01*
X181490880Y-85500997D01*
X181490881Y-85500995D01*
X181493203Y-85496015D01*
X181494624Y-85490710D01*
X181494627Y-85490703D01*
X181517949Y-85403660D01*
X181550561Y-85347175D01*
X184299983Y-82597752D01*
X184310126Y-82588650D01*
X184334822Y-82568794D01*
X184339629Y-82564929D01*
X184371924Y-82526441D01*
X184375082Y-82522822D01*
X184376728Y-82521007D01*
X184378913Y-82518822D01*
X184380868Y-82516442D01*
X184380877Y-82516432D01*
X184406153Y-82485661D01*
X184406995Y-82484646D01*
X184462798Y-82418142D01*
X184466758Y-82413423D01*
X184469327Y-82408749D01*
X184472706Y-82404636D01*
X184516579Y-82322812D01*
X184517188Y-82321690D01*
X184559068Y-82245511D01*
X184559069Y-82245509D01*
X184562037Y-82240110D01*
X184563649Y-82235028D01*
X184566166Y-82230334D01*
X184593366Y-82141366D01*
X184593712Y-82140255D01*
X184599263Y-82122759D01*
X184621839Y-82051591D01*
X184622433Y-82046295D01*
X184623991Y-82041199D01*
X184633394Y-81948640D01*
X184633515Y-81947504D01*
X184639104Y-81897670D01*
X184639104Y-81894143D01*
X184639159Y-81893158D01*
X184639606Y-81887478D01*
X184643978Y-81844435D01*
X184639663Y-81798788D01*
X184639104Y-81786930D01*
X184639104Y-80469845D01*
X184659106Y-80401724D01*
X184712762Y-80355231D01*
X184783036Y-80345127D01*
X184838629Y-80367522D01*
X184847485Y-80373885D01*
X184852975Y-80377830D01*
X184856770Y-80379839D01*
X184856771Y-80379840D01*
X184878527Y-80391359D01*
X185107050Y-80512356D01*
X185183662Y-80540392D01*
X185372629Y-80609544D01*
X185377031Y-80611155D01*
X185657922Y-80672399D01*
X185686499Y-80674648D01*
X185880940Y-80689951D01*
X185880949Y-80689951D01*
X185883397Y-80690144D01*
X186038929Y-80690144D01*
X186041065Y-80689998D01*
X186041076Y-80689998D01*
X186249206Y-80675809D01*
X186249212Y-80675808D01*
X186253483Y-80675517D01*
X186257678Y-80674648D01*
X186257680Y-80674648D01*
X186394241Y-80646368D01*
X186535000Y-80617218D01*
X186806001Y-80521251D01*
X187061470Y-80389394D01*
X187064971Y-80386933D01*
X187064975Y-80386931D01*
X187242228Y-80262355D01*
X187296681Y-80224085D01*
X187422063Y-80107573D01*
X187504137Y-80031305D01*
X187504139Y-80031302D01*
X187507280Y-80028384D01*
X187689371Y-79805912D01*
X187764725Y-79682946D01*
X187817373Y-79635315D01*
X187887415Y-79623708D01*
X187952612Y-79651811D01*
X187992266Y-79710702D01*
X187998158Y-79748781D01*
X187998158Y-105354280D01*
X187978156Y-105422401D01*
X187924500Y-105468894D01*
X187854226Y-105478998D01*
X187789646Y-105449504D01*
X187764042Y-105418986D01*
X187762264Y-105416014D01*
X187702097Y-105315483D01*
X187522345Y-105091116D01*
X187313807Y-104893221D01*
X187080341Y-104725458D01*
X187058501Y-104713894D01*
X187035312Y-104701616D01*
X186826266Y-104590932D01*
X186556285Y-104492133D01*
X186275394Y-104430889D01*
X186244343Y-104428445D01*
X186052376Y-104413337D01*
X186052367Y-104413337D01*
X186049919Y-104413144D01*
X185894387Y-104413144D01*
X185892251Y-104413290D01*
X185892240Y-104413290D01*
X185684110Y-104427479D01*
X185684104Y-104427480D01*
X185679833Y-104427771D01*
X185675638Y-104428640D01*
X185675636Y-104428640D01*
X185539074Y-104456921D01*
X185398316Y-104486070D01*
X185127315Y-104582037D01*
X184871846Y-104713894D01*
X184868345Y-104716355D01*
X184868341Y-104716357D01*
X184858252Y-104723448D01*
X184636635Y-104879203D01*
X184621550Y-104893221D01*
X184438726Y-105063112D01*
X184426036Y-105074904D01*
X184243945Y-105297376D01*
X184093731Y-105542502D01*
X184092005Y-105546435D01*
X184092004Y-105546436D01*
X184048934Y-105644553D01*
X183978175Y-105805746D01*
X183977000Y-105809873D01*
X183976999Y-105809874D01*
X183963292Y-105857994D01*
X183899414Y-106082238D01*
X183858907Y-106366860D01*
X183858885Y-106371149D01*
X183858884Y-106371156D01*
X183858721Y-106402337D01*
X183857401Y-106654347D01*
X183894926Y-106939378D01*
X183970787Y-107216680D01*
X184083581Y-107481120D01*
X184085788Y-107484807D01*
X184207864Y-107688781D01*
X184231219Y-107727805D01*
X184410971Y-107952172D01*
X184527461Y-108062717D01*
X184588839Y-108120962D01*
X184619509Y-108150067D01*
X184852975Y-108317830D01*
X184856770Y-108319839D01*
X184856771Y-108319840D01*
X184878527Y-108331359D01*
X185107050Y-108452356D01*
X185183662Y-108480392D01*
X185372629Y-108549544D01*
X185377031Y-108551155D01*
X185657922Y-108612399D01*
X185686499Y-108614648D01*
X185880940Y-108629951D01*
X185880949Y-108629951D01*
X185883397Y-108630144D01*
X186038929Y-108630144D01*
X186041065Y-108629998D01*
X186041076Y-108629998D01*
X186249206Y-108615809D01*
X186249212Y-108615808D01*
X186253483Y-108615517D01*
X186257678Y-108614648D01*
X186257680Y-108614648D01*
X186394242Y-108586367D01*
X186535000Y-108557218D01*
X186806001Y-108461251D01*
X187061470Y-108329394D01*
X187064971Y-108326933D01*
X187064975Y-108326931D01*
X187267558Y-108184553D01*
X187296681Y-108164085D01*
X187391227Y-108076227D01*
X187504137Y-107971305D01*
X187504139Y-107971302D01*
X187507280Y-107968384D01*
X187689371Y-107745912D01*
X187764725Y-107622946D01*
X187817373Y-107575315D01*
X187887415Y-107563708D01*
X187952612Y-107591811D01*
X187992266Y-107650702D01*
X187998158Y-107688781D01*
X187998158Y-109891648D01*
X187978156Y-109959769D01*
X187972325Y-109968085D01*
X187401409Y-110716181D01*
X187390350Y-110728824D01*
X186745189Y-111373986D01*
X185657354Y-112461821D01*
X185647814Y-112469444D01*
X185648128Y-112469812D01*
X185641292Y-112475630D01*
X185633700Y-112480420D01*
X185627758Y-112487148D01*
X185598065Y-112520769D01*
X185592719Y-112526456D01*
X185581276Y-112537899D01*
X185577634Y-112542759D01*
X185574999Y-112546274D01*
X185568625Y-112554103D01*
X185537280Y-112589595D01*
X185533466Y-112597718D01*
X185531832Y-112600206D01*
X185522844Y-112615167D01*
X185521429Y-112617752D01*
X185516042Y-112624939D01*
X185512891Y-112633345D01*
X185499417Y-112669286D01*
X185495491Y-112678602D01*
X185475377Y-112721444D01*
X185473996Y-112730313D01*
X185473130Y-112733146D01*
X185468700Y-112750033D01*
X185468066Y-112752918D01*
X185464913Y-112761328D01*
X185464248Y-112770283D01*
X185461404Y-112808550D01*
X185460250Y-112818596D01*
X185458158Y-112832030D01*
X185458158Y-112847550D01*
X185457812Y-112856887D01*
X185454119Y-112906585D01*
X185455993Y-112915364D01*
X185456556Y-112923622D01*
X185458158Y-112938805D01*
X185458158Y-113219924D01*
X185438156Y-113288045D01*
X185432322Y-113296365D01*
X185212827Y-113583979D01*
X185155599Y-113625997D01*
X185113213Y-113633537D01*
X134588527Y-113853335D01*
X134520320Y-113833629D01*
X134473594Y-113780176D01*
X134463185Y-113709947D01*
X134492397Y-113645239D01*
X134545919Y-113608563D01*
X134731960Y-113542682D01*
X134736001Y-113541251D01*
X134991470Y-113409394D01*
X134994971Y-113406933D01*
X134994975Y-113406931D01*
X135164132Y-113288045D01*
X135226681Y-113244085D01*
X135305061Y-113171250D01*
X135434137Y-113051305D01*
X135434139Y-113051302D01*
X135437280Y-113048384D01*
X135619371Y-112825912D01*
X135769585Y-112580786D01*
X135773585Y-112571675D01*
X135883415Y-112321474D01*
X135885141Y-112317542D01*
X135890400Y-112299082D01*
X135962726Y-112045178D01*
X135963902Y-112041050D01*
X136004409Y-111756428D01*
X136004503Y-111738595D01*
X136005893Y-111473227D01*
X136005893Y-111473220D01*
X136005915Y-111468941D01*
X135968390Y-111183910D01*
X135892529Y-110906608D01*
X135824897Y-110748047D01*
X135781421Y-110646120D01*
X135781419Y-110646116D01*
X135779735Y-110642168D01*
X135676362Y-110469444D01*
X135634301Y-110399165D01*
X135634298Y-110399161D01*
X135632097Y-110395483D01*
X135452345Y-110171116D01*
X135243807Y-109973221D01*
X135010341Y-109805458D01*
X134988501Y-109793894D01*
X134965312Y-109781616D01*
X134756266Y-109670932D01*
X134486285Y-109572133D01*
X134205394Y-109510889D01*
X134174343Y-109508445D01*
X133982376Y-109493337D01*
X133982367Y-109493337D01*
X133979919Y-109493144D01*
X133824387Y-109493144D01*
X133822251Y-109493290D01*
X133822240Y-109493290D01*
X133614110Y-109507479D01*
X133614104Y-109507480D01*
X133609833Y-109507771D01*
X133605638Y-109508640D01*
X133605636Y-109508640D01*
X133469074Y-109536921D01*
X133328316Y-109566070D01*
X133057315Y-109662037D01*
X132801846Y-109793894D01*
X132798345Y-109796355D01*
X132798341Y-109796357D01*
X132788252Y-109803448D01*
X132566635Y-109959203D01*
X132551550Y-109973221D01*
X132392504Y-110121016D01*
X132356036Y-110154904D01*
X132173945Y-110377376D01*
X132023731Y-110622502D01*
X131908175Y-110885746D01*
X131907000Y-110889873D01*
X131906999Y-110889874D01*
X131897615Y-110922816D01*
X131829414Y-111162238D01*
X131788907Y-111446860D01*
X131788885Y-111451149D01*
X131788884Y-111451156D01*
X131787423Y-111730061D01*
X131787401Y-111734347D01*
X131824926Y-112019378D01*
X131900787Y-112296680D01*
X131902471Y-112300628D01*
X132007249Y-112546274D01*
X132013581Y-112561120D01*
X132051776Y-112624939D01*
X132138763Y-112770283D01*
X132161219Y-112807805D01*
X132340971Y-113032172D01*
X132549509Y-113230067D01*
X132782975Y-113397830D01*
X132786770Y-113399839D01*
X132786771Y-113399840D01*
X132808527Y-113411359D01*
X133037050Y-113532356D01*
X133262786Y-113614964D01*
X133319883Y-113657157D01*
X133345105Y-113723523D01*
X133330443Y-113792989D01*
X133280553Y-113843501D01*
X133220032Y-113859288D01*
X120720699Y-113913664D01*
X120700785Y-113912168D01*
X120687282Y-113910068D01*
X120687281Y-113910068D01*
X120678410Y-113908688D01*
X120669508Y-113909853D01*
X120660535Y-113909745D01*
X120660545Y-113908928D01*
X120639028Y-113908640D01*
X120613532Y-113904604D01*
X120576035Y-113892424D01*
X120549917Y-113879118D01*
X120498299Y-113830373D01*
X120481114Y-113766848D01*
X120481114Y-109954990D01*
X127784500Y-109954990D01*
X127814808Y-110089470D01*
X127817888Y-110099299D01*
X127898013Y-110296627D01*
X127902656Y-110305818D01*
X128013937Y-110487412D01*
X128020020Y-110495723D01*
X128159456Y-110656691D01*
X128166823Y-110663907D01*
X128330677Y-110799940D01*
X128339124Y-110805855D01*
X128522999Y-110913303D01*
X128532285Y-110917753D01*
X128731244Y-110993727D01*
X128741142Y-110996603D01*
X128844493Y-111017630D01*
X128858542Y-111016434D01*
X128862243Y-111006089D01*
X128862243Y-111005541D01*
X129370243Y-111005541D01*
X129374307Y-111019383D01*
X129387721Y-111021417D01*
X129394427Y-111020558D01*
X129404505Y-111018416D01*
X129608498Y-110957215D01*
X129618085Y-110953457D01*
X129809338Y-110859763D01*
X129818188Y-110854488D01*
X129991571Y-110730816D01*
X129999443Y-110724163D01*
X130150295Y-110573836D01*
X130156973Y-110565989D01*
X130281246Y-110393044D01*
X130286556Y-110384207D01*
X130380913Y-110193291D01*
X130384712Y-110183696D01*
X130446620Y-109979934D01*
X130448798Y-109969861D01*
X130450229Y-109958986D01*
X130448018Y-109944802D01*
X130434860Y-109941024D01*
X129388358Y-109941024D01*
X129373119Y-109945499D01*
X129371914Y-109946889D01*
X129370243Y-109954572D01*
X129370243Y-111005541D01*
X128862243Y-111005541D01*
X128862243Y-109959139D01*
X128857768Y-109943900D01*
X128856378Y-109942695D01*
X128848695Y-109941024D01*
X127799468Y-109941024D01*
X127785937Y-109944997D01*
X127784500Y-109954990D01*
X120481114Y-109954990D01*
X120481114Y-71314909D01*
X127758243Y-71314909D01*
X127762718Y-71330148D01*
X127764108Y-71331353D01*
X127771791Y-71333024D01*
X128844128Y-71333024D01*
X128859367Y-71328549D01*
X128860572Y-71327159D01*
X128862243Y-71319476D01*
X128862243Y-71314909D01*
X129370243Y-71314909D01*
X129374718Y-71330148D01*
X129376108Y-71331353D01*
X129383791Y-71333024D01*
X130456127Y-71333024D01*
X130471366Y-71328549D01*
X130472571Y-71327159D01*
X130474242Y-71319476D01*
X130474242Y-70692355D01*
X130473872Y-70685534D01*
X130468348Y-70634672D01*
X130464722Y-70619420D01*
X130419567Y-70498970D01*
X130411029Y-70483375D01*
X130334528Y-70381300D01*
X130321967Y-70368739D01*
X130219892Y-70292238D01*
X130204297Y-70283700D01*
X130083849Y-70238546D01*
X130068594Y-70234919D01*
X130017729Y-70229393D01*
X130010915Y-70229024D01*
X129388358Y-70229024D01*
X129373119Y-70233499D01*
X129371914Y-70234889D01*
X129370243Y-70242572D01*
X129370243Y-71314909D01*
X128862243Y-71314909D01*
X128862243Y-70247140D01*
X128857768Y-70231901D01*
X128856378Y-70230696D01*
X128848695Y-70229025D01*
X128221574Y-70229025D01*
X128214753Y-70229395D01*
X128163891Y-70234919D01*
X128148639Y-70238545D01*
X128028189Y-70283700D01*
X128012594Y-70292238D01*
X127910519Y-70368739D01*
X127897958Y-70381300D01*
X127821457Y-70483375D01*
X127812919Y-70498970D01*
X127767765Y-70619418D01*
X127764138Y-70634673D01*
X127758612Y-70685538D01*
X127758243Y-70692352D01*
X127758243Y-71314909D01*
X120481114Y-71314909D01*
X120481114Y-70092704D01*
X138103416Y-70092704D01*
X138113296Y-70105191D01*
X138147252Y-70127879D01*
X138157357Y-70133366D01*
X138335703Y-70209990D01*
X138346646Y-70213545D01*
X138535959Y-70256383D01*
X138547369Y-70257885D01*
X138741328Y-70265505D01*
X138752810Y-70264904D01*
X138944911Y-70237050D01*
X138956094Y-70234365D01*
X139139897Y-70171973D01*
X139150410Y-70167292D01*
X139264392Y-70103458D01*
X139274257Y-70093380D01*
X139271301Y-70085708D01*
X138701093Y-69515500D01*
X138687149Y-69507886D01*
X138685316Y-69508017D01*
X138678701Y-69512268D01*
X138109612Y-70081357D01*
X138103416Y-70092704D01*
X120481114Y-70092704D01*
X120481114Y-69119827D01*
X137565250Y-69119827D01*
X137577945Y-69313510D01*
X137579746Y-69324880D01*
X137627524Y-69513008D01*
X137631365Y-69523855D01*
X137712629Y-69700130D01*
X137718380Y-69710091D01*
X137726176Y-69721122D01*
X137736766Y-69729511D01*
X137750066Y-69722483D01*
X138316259Y-69156290D01*
X138322637Y-69144610D01*
X139052689Y-69144610D01*
X139052820Y-69146443D01*
X139057071Y-69153058D01*
X139626597Y-69722584D01*
X139638977Y-69729344D01*
X139645557Y-69724418D01*
X139712095Y-69605607D01*
X139716776Y-69595094D01*
X139779168Y-69411291D01*
X139781853Y-69400108D01*
X139810002Y-69205967D01*
X139810632Y-69198584D01*
X139811978Y-69147182D01*
X139811735Y-69139783D01*
X139793786Y-68944440D01*
X139791688Y-68933119D01*
X139739002Y-68746310D01*
X139734877Y-68735563D01*
X139649144Y-68561713D01*
X139641008Y-68555608D01*
X139628590Y-68562379D01*
X139060303Y-69130666D01*
X139052689Y-69144610D01*
X138322637Y-69144610D01*
X138323873Y-69142346D01*
X138323742Y-69140513D01*
X138319491Y-69133898D01*
X137748679Y-68563086D01*
X137736299Y-68556326D01*
X137730333Y-68560792D01*
X137652723Y-68708305D01*
X137648318Y-68718939D01*
X137590758Y-68904311D01*
X137588366Y-68915565D01*
X137565551Y-69108326D01*
X137565250Y-69119827D01*
X120481114Y-69119827D01*
X120481114Y-68194127D01*
X138103042Y-68194127D01*
X138106528Y-68202515D01*
X138675469Y-68771456D01*
X138689413Y-68779070D01*
X138691246Y-68778939D01*
X138697861Y-68774688D01*
X139266538Y-68206011D01*
X139273298Y-68193631D01*
X139267268Y-68185576D01*
X139203357Y-68145251D01*
X139193109Y-68140030D01*
X139012820Y-68068102D01*
X139001792Y-68064835D01*
X138811416Y-68026967D01*
X138799970Y-68025764D01*
X138605891Y-68023224D01*
X138594411Y-68024127D01*
X138403119Y-68056997D01*
X138391999Y-68059977D01*
X138209891Y-68127160D01*
X138199513Y-68132110D01*
X138112640Y-68183794D01*
X138103042Y-68194127D01*
X120481114Y-68194127D01*
X120481114Y-61782156D01*
X120501116Y-61714035D01*
X120554772Y-61667542D01*
X120601049Y-61656302D01*
X122003809Y-61588699D01*
X124985665Y-61444995D01*
X124994954Y-61444890D01*
X125442171Y-61456357D01*
X127108062Y-61499073D01*
X127108085Y-61499073D01*
X127109091Y-61499099D01*
X127110114Y-61499091D01*
X127110132Y-61499091D01*
X130849812Y-61469272D01*
X133797832Y-61445766D01*
X133866109Y-61465224D01*
X133913029Y-61518508D01*
X133923693Y-61588699D01*
X133894715Y-61653513D01*
X133871287Y-61674849D01*
X133840140Y-61696739D01*
X133840134Y-61696744D01*
X133836635Y-61699203D01*
X133821550Y-61713221D01*
X133689290Y-61836125D01*
X133626036Y-61894904D01*
X133443945Y-62117376D01*
X133293731Y-62362502D01*
X133292005Y-62366435D01*
X133292004Y-62366436D01*
X133240493Y-62483782D01*
X133178175Y-62625746D01*
X133177000Y-62629873D01*
X133176999Y-62629874D01*
X133173625Y-62641718D01*
X133099414Y-62902238D01*
X133058907Y-63186860D01*
X133058885Y-63191149D01*
X133058884Y-63191156D01*
X133057423Y-63470061D01*
X133057401Y-63474347D01*
X133094926Y-63759378D01*
X133170787Y-64036680D01*
X133172471Y-64040628D01*
X133267860Y-64264262D01*
X133283581Y-64301120D01*
X133330295Y-64379173D01*
X133420996Y-64530723D01*
X133431219Y-64547805D01*
X133610971Y-64772172D01*
X133705732Y-64862097D01*
X133799103Y-64950702D01*
X133819509Y-64970067D01*
X134052975Y-65137830D01*
X134056770Y-65139839D01*
X134056771Y-65139840D01*
X134076009Y-65150026D01*
X134307050Y-65272356D01*
X134577031Y-65371155D01*
X134857922Y-65432399D01*
X134886499Y-65434648D01*
X135080940Y-65449951D01*
X135080949Y-65449951D01*
X135083397Y-65450144D01*
X135238929Y-65450144D01*
X135241065Y-65449998D01*
X135241076Y-65449998D01*
X135449206Y-65435809D01*
X135449212Y-65435808D01*
X135453483Y-65435517D01*
X135457678Y-65434648D01*
X135457680Y-65434648D01*
X135693636Y-65385784D01*
X135735000Y-65377218D01*
X136006001Y-65281251D01*
X136261470Y-65149394D01*
X136264971Y-65146933D01*
X136264975Y-65146931D01*
X136404362Y-65048968D01*
X136496681Y-64984085D01*
X136622403Y-64867257D01*
X136704137Y-64791305D01*
X136704139Y-64791302D01*
X136707280Y-64788384D01*
X136889371Y-64565912D01*
X137039585Y-64320786D01*
X137043585Y-64311675D01*
X137122785Y-64131251D01*
X137168481Y-64076915D01*
X137236299Y-64055910D01*
X137304707Y-64074904D01*
X137351987Y-64127868D01*
X137364158Y-64181896D01*
X137364158Y-64239778D01*
X137370913Y-64301960D01*
X137422043Y-64438349D01*
X137509397Y-64554905D01*
X137625953Y-64642259D01*
X137762342Y-64693389D01*
X137824524Y-64700144D01*
X139620792Y-64700144D01*
X139682974Y-64693389D01*
X139819363Y-64642259D01*
X139935919Y-64554905D01*
X140023273Y-64438349D01*
X140028004Y-64425730D01*
X140067256Y-64321026D01*
X140109898Y-64264262D01*
X140176460Y-64239562D01*
X140245808Y-64254770D01*
X140280475Y-64282758D01*
X140308908Y-64315582D01*
X140480784Y-64458276D01*
X140673658Y-64570982D01*
X140882350Y-64650674D01*
X140887418Y-64651705D01*
X140887421Y-64651706D01*
X140947549Y-64663939D01*
X141101255Y-64695211D01*
X141106430Y-64695401D01*
X141106432Y-64695401D01*
X141319331Y-64703208D01*
X141319335Y-64703208D01*
X141324495Y-64703397D01*
X141329615Y-64702741D01*
X141329617Y-64702741D01*
X141540946Y-64675669D01*
X141540947Y-64675669D01*
X141546074Y-64675012D01*
X141551024Y-64673527D01*
X141755087Y-64612305D01*
X141755092Y-64612303D01*
X141760042Y-64610818D01*
X141960652Y-64512540D01*
X142142518Y-64382817D01*
X142300754Y-64225133D01*
X142431111Y-64043721D01*
X142432434Y-64044672D01*
X142479303Y-64001501D01*
X142549238Y-63989269D01*
X142614684Y-64016788D01*
X142642533Y-64048638D01*
X142702645Y-64146732D01*
X142848908Y-64315582D01*
X143020784Y-64458276D01*
X143213658Y-64570982D01*
X143422350Y-64650674D01*
X143427418Y-64651705D01*
X143427421Y-64651706D01*
X143487549Y-64663939D01*
X143641255Y-64695211D01*
X143646430Y-64695401D01*
X143646432Y-64695401D01*
X143859331Y-64703208D01*
X143859335Y-64703208D01*
X143864495Y-64703397D01*
X143869615Y-64702741D01*
X143869617Y-64702741D01*
X144080946Y-64675669D01*
X144080947Y-64675669D01*
X144086074Y-64675012D01*
X144091024Y-64673527D01*
X144295087Y-64612305D01*
X144295092Y-64612303D01*
X144300042Y-64610818D01*
X144500652Y-64512540D01*
X144682518Y-64382817D01*
X144840754Y-64225133D01*
X144971111Y-64043721D01*
X144972298Y-64044574D01*
X145019618Y-64001006D01*
X145089555Y-63988789D01*
X145154996Y-64016322D01*
X145182824Y-64048155D01*
X145240352Y-64142032D01*
X145246435Y-64150343D01*
X145385871Y-64311311D01*
X145393238Y-64318527D01*
X145557092Y-64454560D01*
X145565539Y-64460475D01*
X145749414Y-64567923D01*
X145758700Y-64572373D01*
X145957659Y-64648347D01*
X145967557Y-64651223D01*
X146070908Y-64672250D01*
X146084957Y-64671054D01*
X146088658Y-64660709D01*
X146088658Y-62024746D01*
X146084740Y-62011402D01*
X146070464Y-62009415D01*
X146031982Y-62015304D01*
X146021946Y-62017695D01*
X145819526Y-62083856D01*
X145810017Y-62087853D01*
X145621121Y-62186186D01*
X145612396Y-62191680D01*
X145442091Y-62319549D01*
X145434384Y-62326392D01*
X145287248Y-62480361D01*
X145280767Y-62488366D01*
X145176156Y-62641718D01*
X145121245Y-62686720D01*
X145050720Y-62694891D01*
X144986973Y-62663637D01*
X144966276Y-62639153D01*
X144885480Y-62514261D01*
X144885478Y-62514258D01*
X144882672Y-62509921D01*
X144732328Y-62344695D01*
X144728277Y-62341496D01*
X144728273Y-62341492D01*
X144561072Y-62209444D01*
X144561068Y-62209442D01*
X144557017Y-62206242D01*
X144520686Y-62186186D01*
X144504794Y-62177413D01*
X144361447Y-62098282D01*
X144356578Y-62096558D01*
X144356574Y-62096556D01*
X144155745Y-62025439D01*
X144155741Y-62025438D01*
X144150870Y-62023713D01*
X144145777Y-62022806D01*
X144145774Y-62022805D01*
X143936031Y-61985444D01*
X143936025Y-61985443D01*
X143930942Y-61984538D01*
X143857110Y-61983636D01*
X143712739Y-61981872D01*
X143712737Y-61981872D01*
X143707569Y-61981809D01*
X143486749Y-62015599D01*
X143274414Y-62085001D01*
X143076265Y-62188151D01*
X143072132Y-62191254D01*
X143072129Y-62191256D01*
X142901758Y-62319174D01*
X142897623Y-62322279D01*
X142894051Y-62326017D01*
X142786387Y-62438681D01*
X142743287Y-62483782D01*
X142635859Y-62641265D01*
X142580951Y-62686265D01*
X142510426Y-62694436D01*
X142446679Y-62663182D01*
X142425982Y-62638698D01*
X142345480Y-62514261D01*
X142345478Y-62514258D01*
X142342672Y-62509921D01*
X142192328Y-62344695D01*
X142188277Y-62341496D01*
X142188273Y-62341492D01*
X142021072Y-62209444D01*
X142021068Y-62209442D01*
X142017017Y-62206242D01*
X141980686Y-62186186D01*
X141964794Y-62177413D01*
X141821447Y-62098282D01*
X141816578Y-62096558D01*
X141816574Y-62096556D01*
X141615745Y-62025439D01*
X141615741Y-62025438D01*
X141610870Y-62023713D01*
X141605777Y-62022806D01*
X141605774Y-62022805D01*
X141396031Y-61985444D01*
X141396025Y-61985443D01*
X141390942Y-61984538D01*
X141317110Y-61983636D01*
X141172739Y-61981872D01*
X141172737Y-61981872D01*
X141167569Y-61981809D01*
X140946749Y-62015599D01*
X140734414Y-62085001D01*
X140536265Y-62188151D01*
X140532132Y-62191254D01*
X140532129Y-62191256D01*
X140361758Y-62319174D01*
X140357623Y-62322279D01*
X140301195Y-62381328D01*
X140276941Y-62406708D01*
X140215417Y-62442138D01*
X140144504Y-62438681D01*
X140086718Y-62397435D01*
X140067865Y-62363887D01*
X140026425Y-62253347D01*
X140023273Y-62244939D01*
X139935919Y-62128383D01*
X139819363Y-62041029D01*
X139682974Y-61989899D01*
X139620792Y-61983144D01*
X137824524Y-61983144D01*
X137762342Y-61989899D01*
X137625953Y-62041029D01*
X137509397Y-62128383D01*
X137422043Y-62244939D01*
X137370913Y-62381328D01*
X137364158Y-62443510D01*
X137364158Y-62502767D01*
X137344156Y-62570888D01*
X137290500Y-62617381D01*
X137220226Y-62627485D01*
X137155646Y-62597991D01*
X137122261Y-62552202D01*
X137051421Y-62386120D01*
X137051419Y-62386116D01*
X137049735Y-62382168D01*
X136946362Y-62209444D01*
X136904301Y-62139165D01*
X136904298Y-62139161D01*
X136902097Y-62135483D01*
X136722345Y-61911116D01*
X136513807Y-61713221D01*
X136429336Y-61652522D01*
X136385690Y-61596530D01*
X136379244Y-61525827D01*
X136412047Y-61462862D01*
X136473683Y-61427628D01*
X136501859Y-61424206D01*
X136971653Y-61420460D01*
X137751252Y-61414244D01*
X137751569Y-61414242D01*
X183164154Y-61310743D01*
X183232319Y-61330590D01*
G37*
%TD.AperFunction*%
%TA.AperFunction,Conductor*%
G36*
X167169808Y-64254770D02*
G01*
X167204475Y-64282758D01*
X167232908Y-64315582D01*
X167404784Y-64458276D01*
X167597658Y-64570982D01*
X167806350Y-64650674D01*
X167811418Y-64651705D01*
X167811421Y-64651706D01*
X167921868Y-64674177D01*
X167984633Y-64707359D01*
X168019495Y-64769206D01*
X168022747Y-64797647D01*
X168022747Y-68340675D01*
X168002745Y-68408796D01*
X167985920Y-68429693D01*
X167959123Y-68456537D01*
X167910833Y-68504911D01*
X167906993Y-68511141D01*
X167906992Y-68511142D01*
X167824992Y-68644171D01*
X167818023Y-68655476D01*
X167815719Y-68662423D01*
X167780531Y-68768513D01*
X167762341Y-68823353D01*
X167751638Y-68927814D01*
X167751638Y-69553614D01*
X167751975Y-69556860D01*
X167751975Y-69556864D01*
X167759359Y-69628025D01*
X167762612Y-69659380D01*
X167764793Y-69665916D01*
X167764793Y-69665918D01*
X167788075Y-69735703D01*
X167818588Y-69827160D01*
X167911660Y-69977562D01*
X167994606Y-70060363D01*
X167998247Y-70063998D01*
X168032326Y-70126280D01*
X168027323Y-70197100D01*
X167998402Y-70242189D01*
X167948440Y-70292238D01*
X167910833Y-70329911D01*
X167906993Y-70336141D01*
X167906992Y-70336142D01*
X167833475Y-70455409D01*
X167818023Y-70480476D01*
X167815719Y-70487423D01*
X167771938Y-70619420D01*
X167762341Y-70648353D01*
X167751638Y-70752814D01*
X167751638Y-71378614D01*
X167751975Y-71381860D01*
X167751975Y-71381864D01*
X167761811Y-71476656D01*
X167762612Y-71484380D01*
X167764793Y-71490916D01*
X167764793Y-71490918D01*
X167770583Y-71508273D01*
X167818588Y-71652160D01*
X167911660Y-71802562D01*
X167916842Y-71807735D01*
X167921387Y-71813469D01*
X167919714Y-71814795D01*
X167948736Y-71867839D01*
X167951638Y-71894725D01*
X167951638Y-80705498D01*
X167931636Y-80773619D01*
X167914733Y-80794593D01*
X165169131Y-83540195D01*
X165169113Y-83540212D01*
X164961391Y-83747935D01*
X164951248Y-83757037D01*
X164921750Y-83780753D01*
X164917783Y-83785481D01*
X164889484Y-83819206D01*
X164886303Y-83822854D01*
X164884660Y-83824666D01*
X164882466Y-83826860D01*
X164855133Y-83860134D01*
X164854471Y-83860932D01*
X164794621Y-83932259D01*
X164792053Y-83936929D01*
X164788672Y-83941046D01*
X164759783Y-83994925D01*
X164744798Y-84022871D01*
X164744169Y-84024030D01*
X164702313Y-84100166D01*
X164702310Y-84100174D01*
X164699342Y-84105572D01*
X164697730Y-84110654D01*
X164695213Y-84115348D01*
X164668013Y-84204316D01*
X164667693Y-84205344D01*
X164639540Y-84294091D01*
X164638946Y-84299387D01*
X164637388Y-84304483D01*
X164631447Y-84362973D01*
X164627993Y-84396972D01*
X164627864Y-84398178D01*
X164622275Y-84448012D01*
X164622275Y-84451539D01*
X164622220Y-84452524D01*
X164621773Y-84458204D01*
X164617401Y-84501247D01*
X164620905Y-84538318D01*
X164621716Y-84546894D01*
X164622275Y-84558752D01*
X164622275Y-86335206D01*
X164602273Y-86403327D01*
X164587369Y-86422257D01*
X164458081Y-86557549D01*
X164455167Y-86561821D01*
X164455166Y-86561822D01*
X164429555Y-86599366D01*
X164327561Y-86748884D01*
X164230044Y-86958966D01*
X164229644Y-86958780D01*
X164202653Y-87000985D01*
X163769463Y-87434174D01*
X163761850Y-87448117D01*
X163761981Y-87449951D01*
X163766232Y-87456565D01*
X164209221Y-87899553D01*
X164236869Y-87941245D01*
X164269880Y-88022540D01*
X164294926Y-88084222D01*
X164415943Y-88281704D01*
X164567589Y-88456769D01*
X164667409Y-88539641D01*
X164733968Y-88594899D01*
X164745791Y-88604715D01*
X164945764Y-88721569D01*
X165162136Y-88804194D01*
X165167202Y-88805225D01*
X165167203Y-88805225D01*
X165220288Y-88816025D01*
X165389098Y-88850370D01*
X165518531Y-88855116D01*
X165615391Y-88858668D01*
X165615395Y-88858668D01*
X165620555Y-88858857D01*
X165625675Y-88858201D01*
X165625677Y-88858201D01*
X165715243Y-88846727D01*
X165850289Y-88829427D01*
X165855237Y-88827942D01*
X165855244Y-88827941D01*
X166067189Y-88764354D01*
X166072132Y-88762871D01*
X166153797Y-88722864D01*
X166275491Y-88663247D01*
X166275494Y-88663245D01*
X166280126Y-88660976D01*
X166468685Y-88526479D01*
X166538105Y-88457301D01*
X166543927Y-88451499D01*
X166606299Y-88417583D01*
X166677105Y-88422771D01*
X166721026Y-88450728D01*
X166723202Y-88452858D01*
X166726589Y-88456769D01*
X166826409Y-88539641D01*
X166892968Y-88594899D01*
X166904791Y-88604715D01*
X167104764Y-88721569D01*
X167321136Y-88804194D01*
X167326202Y-88805225D01*
X167326203Y-88805225D01*
X167379288Y-88816025D01*
X167548098Y-88850370D01*
X167677531Y-88855116D01*
X167774391Y-88858668D01*
X167774395Y-88858668D01*
X167779555Y-88858857D01*
X167784675Y-88858201D01*
X167784677Y-88858201D01*
X167874243Y-88846727D01*
X168009289Y-88829427D01*
X168014237Y-88827942D01*
X168014244Y-88827941D01*
X168226189Y-88764354D01*
X168231132Y-88762871D01*
X168312797Y-88722864D01*
X168434491Y-88663247D01*
X168434494Y-88663245D01*
X168439126Y-88660976D01*
X168627685Y-88526479D01*
X168791745Y-88362990D01*
X168800076Y-88351397D01*
X168853317Y-88277303D01*
X168926900Y-88174902D01*
X168964502Y-88098821D01*
X169027226Y-87971907D01*
X169027227Y-87971905D01*
X169029520Y-87967265D01*
X169096850Y-87745656D01*
X169127082Y-87516026D01*
X169128769Y-87446985D01*
X169118648Y-87323881D01*
X169110215Y-87221303D01*
X169110214Y-87221297D01*
X169109791Y-87216152D01*
X169053367Y-86991518D01*
X169039132Y-86958780D01*
X168963072Y-86783853D01*
X168963070Y-86783850D01*
X168961012Y-86779116D01*
X168857115Y-86618516D01*
X168836907Y-86550076D01*
X168836907Y-86147147D01*
X174393949Y-86147147D01*
X174403243Y-86159161D01*
X174462706Y-86200797D01*
X174472201Y-86206280D01*
X174675717Y-86301180D01*
X174686009Y-86304926D01*
X174902912Y-86363045D01*
X174913707Y-86364948D01*
X175137410Y-86384520D01*
X175148360Y-86384520D01*
X175372063Y-86364948D01*
X175382858Y-86363045D01*
X175599761Y-86304926D01*
X175610053Y-86301180D01*
X175813569Y-86206280D01*
X175823064Y-86200797D01*
X175883362Y-86158576D01*
X175891737Y-86148099D01*
X175884670Y-86134653D01*
X175155696Y-85405678D01*
X175141753Y-85398065D01*
X175139919Y-85398196D01*
X175133305Y-85402447D01*
X174400376Y-86135377D01*
X174393949Y-86147147D01*
X168836907Y-86147147D01*
X168836907Y-85481855D01*
X168856909Y-85413734D01*
X168873812Y-85392760D01*
X169050785Y-85215787D01*
X169050788Y-85215785D01*
X169227441Y-85039132D01*
X173792022Y-85039132D01*
X173811594Y-85262835D01*
X173813497Y-85273630D01*
X173871616Y-85490533D01*
X173875362Y-85500825D01*
X173970262Y-85704341D01*
X173975745Y-85713836D01*
X174017966Y-85774134D01*
X174028443Y-85782509D01*
X174041889Y-85775442D01*
X174770864Y-85046468D01*
X174778477Y-85032525D01*
X174778346Y-85030691D01*
X174774095Y-85024077D01*
X174041165Y-84291148D01*
X174029395Y-84284721D01*
X174017381Y-84294015D01*
X173975745Y-84353478D01*
X173970262Y-84362973D01*
X173875362Y-84566489D01*
X173871616Y-84576781D01*
X173813497Y-84793684D01*
X173811594Y-84804479D01*
X173792022Y-85028182D01*
X173792022Y-85039132D01*
X169227441Y-85039132D01*
X170947718Y-83318855D01*
X170957171Y-83310312D01*
X170964235Y-83304550D01*
X170965269Y-83303716D01*
X171001593Y-83274720D01*
X171001599Y-83274715D01*
X171004352Y-83272517D01*
X171006855Y-83270014D01*
X171007574Y-83269371D01*
X171011907Y-83265670D01*
X171045441Y-83238320D01*
X171074667Y-83202992D01*
X171082656Y-83194213D01*
X174996549Y-79280319D01*
X175006692Y-79271217D01*
X175031388Y-79251361D01*
X175036195Y-79247496D01*
X175068462Y-79209042D01*
X175071642Y-79205395D01*
X175073285Y-79203583D01*
X175075479Y-79201389D01*
X175102812Y-79168115D01*
X175103518Y-79167264D01*
X175114960Y-79153629D01*
X175163324Y-79095990D01*
X175165892Y-79091320D01*
X175169273Y-79087203D01*
X175200310Y-79029319D01*
X175213147Y-79005378D01*
X175213776Y-79004219D01*
X175255632Y-78928083D01*
X175255635Y-78928075D01*
X175258603Y-78922677D01*
X175260215Y-78917595D01*
X175262732Y-78912901D01*
X175289917Y-78823987D01*
X175290309Y-78822729D01*
X175316542Y-78740031D01*
X175318405Y-78734158D01*
X175318999Y-78728867D01*
X175320558Y-78723766D01*
X175329960Y-78631201D01*
X175330095Y-78629934D01*
X175335278Y-78583734D01*
X175335278Y-78583729D01*
X175335670Y-78580237D01*
X175335670Y-78576712D01*
X175335725Y-78575727D01*
X175336174Y-78570023D01*
X175339922Y-78533130D01*
X175339922Y-78533125D01*
X175340544Y-78527002D01*
X175336229Y-78481355D01*
X175335670Y-78469497D01*
X175335670Y-72013787D01*
X175355672Y-71945666D01*
X175366853Y-71931779D01*
X175366766Y-71931710D01*
X175371304Y-71925964D01*
X175376475Y-71920784D01*
X175392538Y-71894725D01*
X175465445Y-71776449D01*
X175465446Y-71776447D01*
X175469285Y-71770219D01*
X175506377Y-71658390D01*
X175522802Y-71608870D01*
X175522802Y-71608868D01*
X175524967Y-71602342D01*
X175525913Y-71593115D01*
X175535342Y-71501079D01*
X175535670Y-71497881D01*
X175535670Y-70872081D01*
X175531350Y-70830442D01*
X175525408Y-70773173D01*
X175525407Y-70773169D01*
X175524696Y-70766315D01*
X175521282Y-70756080D01*
X175495760Y-70679583D01*
X175468720Y-70598535D01*
X175375648Y-70448133D01*
X175289061Y-70361697D01*
X175254982Y-70299415D01*
X175259985Y-70228595D01*
X175288906Y-70183506D01*
X175371304Y-70100964D01*
X175376475Y-70095784D01*
X175387299Y-70078225D01*
X175465445Y-69951449D01*
X175465446Y-69951447D01*
X175469285Y-69945219D01*
X175506377Y-69833390D01*
X175522802Y-69783870D01*
X175522802Y-69783868D01*
X175524967Y-69777342D01*
X175525913Y-69768115D01*
X175533570Y-69693377D01*
X175535670Y-69672881D01*
X175535670Y-69047081D01*
X175531350Y-69005442D01*
X175525408Y-68948173D01*
X175525407Y-68948169D01*
X175524696Y-68941315D01*
X175521282Y-68931080D01*
X175471038Y-68780483D01*
X175468720Y-68773535D01*
X175375648Y-68623133D01*
X175250473Y-68498176D01*
X175114890Y-68414601D01*
X175067398Y-68361830D01*
X175055007Y-68307342D01*
X175055007Y-66990420D01*
X175055299Y-66981851D01*
X175058717Y-66931718D01*
X175058717Y-66931714D01*
X175059233Y-66924141D01*
X175048243Y-66861174D01*
X175047282Y-66854658D01*
X175045255Y-66837905D01*
X175039609Y-66791251D01*
X175036926Y-66784150D01*
X175036285Y-66781541D01*
X175031820Y-66765221D01*
X175031055Y-66762688D01*
X175029750Y-66755210D01*
X175004059Y-66696683D01*
X175001574Y-66690595D01*
X174981679Y-66637942D01*
X174981678Y-66637940D01*
X174978994Y-66630837D01*
X174974693Y-66624578D01*
X174973456Y-66622213D01*
X174965234Y-66607441D01*
X174963879Y-66605149D01*
X174960823Y-66598188D01*
X174956198Y-66592161D01*
X174956196Y-66592157D01*
X174921914Y-66547480D01*
X174918036Y-66542143D01*
X174915650Y-66538670D01*
X174898370Y-66513528D01*
X174886166Y-66495771D01*
X174886165Y-66495770D01*
X174881864Y-66489512D01*
X174869954Y-66478900D01*
X174835346Y-66448066D01*
X174830070Y-66443085D01*
X173298887Y-64911902D01*
X173264861Y-64849590D01*
X173269926Y-64778775D01*
X173312473Y-64721939D01*
X173371972Y-64697828D01*
X173531247Y-64677424D01*
X173601357Y-64688608D01*
X173636352Y-64713308D01*
X175997403Y-67074360D01*
X176031429Y-67136672D01*
X176034308Y-67163455D01*
X176034308Y-67378949D01*
X176030697Y-67408898D01*
X176009978Y-67493569D01*
X176009308Y-67504368D01*
X176009308Y-83598659D01*
X176024122Y-83725723D01*
X176026619Y-83732603D01*
X176028304Y-83739730D01*
X176025778Y-83740327D01*
X176029453Y-83799055D01*
X175994874Y-83861061D01*
X175932261Y-83894529D01*
X175861493Y-83888833D01*
X175834303Y-83874387D01*
X175823060Y-83866514D01*
X175813569Y-83861034D01*
X175610053Y-83766134D01*
X175599761Y-83762388D01*
X175382858Y-83704269D01*
X175372063Y-83702366D01*
X175148360Y-83682794D01*
X175137410Y-83682794D01*
X174913707Y-83702366D01*
X174902912Y-83704269D01*
X174686009Y-83762388D01*
X174675717Y-83766134D01*
X174472201Y-83861034D01*
X174462706Y-83866517D01*
X174402408Y-83908738D01*
X174394033Y-83919215D01*
X174401100Y-83932661D01*
X175142885Y-84674447D01*
X176244602Y-85776163D01*
X176256376Y-85782592D01*
X176268391Y-85773296D01*
X176309367Y-85714776D01*
X176364824Y-85670448D01*
X176435443Y-85663139D01*
X176498804Y-85695170D01*
X176515793Y-85714776D01*
X176647312Y-85902606D01*
X176813936Y-86069230D01*
X177006963Y-86204388D01*
X177011941Y-86206709D01*
X177011944Y-86206711D01*
X177209395Y-86298784D01*
X177220527Y-86303975D01*
X177225835Y-86305397D01*
X177225837Y-86305398D01*
X177442825Y-86363539D01*
X177448140Y-86364963D01*
X177682885Y-86385501D01*
X177917630Y-86364963D01*
X177922945Y-86363539D01*
X178139933Y-86305398D01*
X178139935Y-86305397D01*
X178145243Y-86303975D01*
X178156375Y-86298784D01*
X178353826Y-86206711D01*
X178353829Y-86206709D01*
X178358807Y-86204388D01*
X178551834Y-86069230D01*
X178718458Y-85902606D01*
X178849671Y-85715212D01*
X178905129Y-85670883D01*
X178975748Y-85663574D01*
X179039109Y-85695604D01*
X179056098Y-85715212D01*
X179098271Y-85775442D01*
X179185117Y-85899471D01*
X179187312Y-85902606D01*
X179186682Y-85903047D01*
X179213372Y-85964035D01*
X179214385Y-85979984D01*
X179214385Y-89157974D01*
X179194383Y-89226095D01*
X179177480Y-89247069D01*
X158343557Y-110080993D01*
X158281245Y-110115019D01*
X158210430Y-110109954D01*
X158165367Y-110080993D01*
X154432462Y-106348089D01*
X154423360Y-106337946D01*
X154403504Y-106313250D01*
X154399639Y-106308443D01*
X154361185Y-106276176D01*
X154357538Y-106272996D01*
X154355726Y-106271353D01*
X154353532Y-106269159D01*
X154320258Y-106241826D01*
X154319460Y-106241164D01*
X154248133Y-106181314D01*
X154243463Y-106178746D01*
X154239346Y-106175365D01*
X154157521Y-106131491D01*
X154156362Y-106130862D01*
X154080226Y-106089006D01*
X154080218Y-106089003D01*
X154074820Y-106086035D01*
X154069738Y-106084423D01*
X154065044Y-106081906D01*
X153976076Y-106054706D01*
X153975048Y-106054386D01*
X153886301Y-106026233D01*
X153881005Y-106025639D01*
X153875909Y-106024081D01*
X153783350Y-106014678D01*
X153782214Y-106014557D01*
X153748599Y-106010787D01*
X153735877Y-106009360D01*
X153735873Y-106009360D01*
X153732380Y-106008968D01*
X153728853Y-106008968D01*
X153727868Y-106008913D01*
X153722188Y-106008466D01*
X153692782Y-106005479D01*
X153685270Y-106004716D01*
X153685268Y-106004716D01*
X153679145Y-106004094D01*
X153636866Y-106008091D01*
X153633498Y-106008409D01*
X153621640Y-106008968D01*
X129898263Y-106008968D01*
X129837369Y-105993276D01*
X129829297Y-105988820D01*
X129779327Y-105938388D01*
X129764555Y-105868945D01*
X129789671Y-105802540D01*
X129817023Y-105775933D01*
X129860846Y-105744674D01*
X129996103Y-105648197D01*
X130154339Y-105490513D01*
X130213837Y-105407713D01*
X130281678Y-105313301D01*
X130284696Y-105309101D01*
X130298515Y-105281140D01*
X130346630Y-105228933D01*
X130411472Y-105210968D01*
X131969631Y-105210968D01*
X131988581Y-105212401D01*
X132001790Y-105214411D01*
X132001794Y-105214411D01*
X132009024Y-105215511D01*
X132016316Y-105214918D01*
X132016319Y-105214918D01*
X132059776Y-105211383D01*
X132069991Y-105210968D01*
X132077623Y-105210968D01*
X132081242Y-105210546D01*
X132081261Y-105210545D01*
X132104866Y-105207793D01*
X132109232Y-105207361D01*
X132136551Y-105205139D01*
X132172201Y-105202239D01*
X132172203Y-105202239D01*
X132179501Y-105201645D01*
X132186470Y-105199387D01*
X132191990Y-105198284D01*
X132197415Y-105197002D01*
X132204687Y-105196154D01*
X132271007Y-105172081D01*
X132275153Y-105170658D01*
X132335255Y-105151188D01*
X132335259Y-105151186D01*
X132342217Y-105148932D01*
X132348469Y-105145138D01*
X132353585Y-105142796D01*
X132358586Y-105140292D01*
X132365464Y-105137795D01*
X132371581Y-105133785D01*
X132371586Y-105133782D01*
X132424451Y-105099121D01*
X132428173Y-105096773D01*
X132483645Y-105063112D01*
X132483646Y-105063111D01*
X132488442Y-105060201D01*
X132496552Y-105053039D01*
X132496567Y-105053056D01*
X132499877Y-105050122D01*
X132502384Y-105048026D01*
X132508503Y-105044014D01*
X132559963Y-104989692D01*
X132562341Y-104987250D01*
X162142547Y-75407043D01*
X162145145Y-75404445D01*
X162147415Y-75401576D01*
X162147422Y-75401568D01*
X162219974Y-75309865D01*
X162224518Y-75304122D01*
X162296939Y-75149170D01*
X162321635Y-75030438D01*
X162330279Y-74988877D01*
X162330279Y-74988876D01*
X162331769Y-74981713D01*
X162327143Y-74810734D01*
X162283909Y-74647680D01*
X162279700Y-74615387D01*
X162279700Y-71632991D01*
X162299702Y-71564870D01*
X162353358Y-71518377D01*
X162423632Y-71508273D01*
X162488212Y-71537767D01*
X162525224Y-71593115D01*
X162530480Y-71608870D01*
X162570822Y-71729788D01*
X162622606Y-71813469D01*
X162654687Y-71865311D01*
X162663894Y-71880190D01*
X162669076Y-71885363D01*
X162673621Y-71891097D01*
X162671948Y-71892423D01*
X162700970Y-71945467D01*
X162703872Y-71972353D01*
X162703872Y-79064534D01*
X162683870Y-79132655D01*
X162666967Y-79153629D01*
X160689343Y-81131253D01*
X160689325Y-81131270D01*
X160481603Y-81338993D01*
X160471460Y-81348095D01*
X160441962Y-81371811D01*
X160434403Y-81380820D01*
X160409696Y-81410264D01*
X160406515Y-81413912D01*
X160404872Y-81415724D01*
X160402678Y-81417918D01*
X160375345Y-81451192D01*
X160374683Y-81451990D01*
X160314833Y-81523317D01*
X160312265Y-81527987D01*
X160308884Y-81532104D01*
X160295462Y-81557137D01*
X160265010Y-81613929D01*
X160264381Y-81615088D01*
X160222525Y-81691224D01*
X160222522Y-81691232D01*
X160219554Y-81696630D01*
X160217942Y-81701712D01*
X160215425Y-81706406D01*
X160188225Y-81795374D01*
X160187905Y-81796402D01*
X160159752Y-81885149D01*
X160159158Y-81890445D01*
X160157600Y-81895541D01*
X160148566Y-81984480D01*
X160148205Y-81988030D01*
X160148076Y-81989236D01*
X160142487Y-82039070D01*
X160142487Y-82042597D01*
X160142432Y-82043582D01*
X160141985Y-82049262D01*
X160137613Y-82092305D01*
X160140113Y-82118747D01*
X160141928Y-82137952D01*
X160142487Y-82149810D01*
X160142487Y-85995372D01*
X160122485Y-86063493D01*
X160089861Y-86093867D01*
X160091737Y-86096370D01*
X159975181Y-86183724D01*
X159887827Y-86300280D01*
X159836697Y-86436669D01*
X159829942Y-86498851D01*
X159829942Y-88395119D01*
X159836697Y-88457301D01*
X159887827Y-88593690D01*
X159975181Y-88710246D01*
X160091737Y-88797600D01*
X160228126Y-88848730D01*
X160290308Y-88855485D01*
X162186576Y-88855485D01*
X162248758Y-88848730D01*
X162385147Y-88797600D01*
X162501703Y-88710246D01*
X162515537Y-88691787D01*
X162572395Y-88649272D01*
X162643214Y-88644246D01*
X162679933Y-88658564D01*
X162782519Y-88718510D01*
X162791806Y-88722960D01*
X162998445Y-88801868D01*
X163008343Y-88804744D01*
X163225095Y-88848842D01*
X163235325Y-88850061D01*
X163456356Y-88858167D01*
X163466665Y-88857699D01*
X163686065Y-88829593D01*
X163696130Y-88827453D01*
X163907999Y-88763890D01*
X163917594Y-88760129D01*
X164116220Y-88662823D01*
X164125078Y-88657544D01*
X164182539Y-88616557D01*
X164190939Y-88605859D01*
X164183951Y-88592705D01*
X163127327Y-87536080D01*
X163093301Y-87473768D01*
X163098366Y-87402952D01*
X163127327Y-87357890D01*
X163397442Y-87087775D01*
X164186432Y-86298784D01*
X164193452Y-86285928D01*
X164185678Y-86275258D01*
X164183344Y-86273415D01*
X164174762Y-86267714D01*
X163981120Y-86160818D01*
X163971714Y-86156591D01*
X163763214Y-86082757D01*
X163753251Y-86080125D01*
X163535489Y-86041335D01*
X163525238Y-86040366D01*
X163304058Y-86037664D01*
X163293774Y-86038384D01*
X163075135Y-86071840D01*
X163065108Y-86074229D01*
X162854868Y-86142946D01*
X162845358Y-86146943D01*
X162673186Y-86236570D01*
X162603526Y-86250283D01*
X162537511Y-86224158D01*
X162514180Y-86200372D01*
X162507084Y-86190904D01*
X162501703Y-86183724D01*
X162385147Y-86096370D01*
X162248758Y-86045240D01*
X162249225Y-86043994D01*
X162194689Y-86012834D01*
X162161873Y-85949876D01*
X162159487Y-85925474D01*
X162159487Y-82565768D01*
X162179489Y-82497647D01*
X162196392Y-82476673D01*
X164381756Y-80291309D01*
X164391899Y-80282207D01*
X164416590Y-80262355D01*
X164421397Y-80258490D01*
X164453687Y-80220008D01*
X164456839Y-80216396D01*
X164458495Y-80214570D01*
X164460682Y-80212383D01*
X164462644Y-80209995D01*
X164487948Y-80179190D01*
X164488790Y-80178175D01*
X164489730Y-80177055D01*
X164548526Y-80106984D01*
X164551095Y-80102311D01*
X164554475Y-80098196D01*
X164591909Y-80028384D01*
X164598400Y-80016278D01*
X164599029Y-80015120D01*
X164640837Y-79939070D01*
X164640837Y-79939069D01*
X164643805Y-79933671D01*
X164645416Y-79928593D01*
X164647935Y-79923895D01*
X164675125Y-79834960D01*
X164675508Y-79833730D01*
X164690695Y-79785857D01*
X164703607Y-79745152D01*
X164704200Y-79739861D01*
X164705760Y-79734760D01*
X164715167Y-79642147D01*
X164715287Y-79641027D01*
X164720872Y-79591231D01*
X164720872Y-79587702D01*
X164720927Y-79586719D01*
X164721376Y-79581014D01*
X164725124Y-79544122D01*
X164725124Y-79544119D01*
X164725746Y-79537995D01*
X164721431Y-79492346D01*
X164720872Y-79480489D01*
X164720872Y-71972148D01*
X164740874Y-71904027D01*
X164752055Y-71890140D01*
X164751968Y-71890071D01*
X164756506Y-71884325D01*
X164761677Y-71879145D01*
X164768646Y-71867839D01*
X164850647Y-71734810D01*
X164850648Y-71734808D01*
X164854487Y-71728580D01*
X164894818Y-71606985D01*
X164908004Y-71567231D01*
X164908004Y-71567229D01*
X164910169Y-71560703D01*
X164920872Y-71456242D01*
X164920872Y-70830442D01*
X164915408Y-70777780D01*
X164910610Y-70731534D01*
X164910609Y-70731530D01*
X164909898Y-70724676D01*
X164896841Y-70685538D01*
X164856240Y-70563844D01*
X164853922Y-70556896D01*
X164760850Y-70406494D01*
X164674263Y-70320058D01*
X164640184Y-70257776D01*
X164645187Y-70186956D01*
X164674108Y-70141867D01*
X164756506Y-70059325D01*
X164761677Y-70054145D01*
X164813369Y-69970286D01*
X164850647Y-69909810D01*
X164850648Y-69909808D01*
X164854487Y-69903580D01*
X164898200Y-69771789D01*
X164908004Y-69742231D01*
X164908004Y-69742229D01*
X164910169Y-69735703D01*
X164911326Y-69724418D01*
X164918123Y-69658075D01*
X164920872Y-69631242D01*
X164920872Y-69005442D01*
X164915562Y-68954264D01*
X164910610Y-68906534D01*
X164910609Y-68906530D01*
X164909898Y-68899676D01*
X164904925Y-68884768D01*
X164856240Y-68738844D01*
X164853922Y-68731896D01*
X164760850Y-68581494D01*
X164741035Y-68561713D01*
X164640854Y-68461707D01*
X164635675Y-68456537D01*
X164629446Y-68452697D01*
X164626770Y-68450584D01*
X164585708Y-68392667D01*
X164578863Y-68351703D01*
X164578863Y-67318160D01*
X164598865Y-67250039D01*
X164615768Y-67229065D01*
X166119239Y-65725594D01*
X166133652Y-65713207D01*
X166144410Y-65705290D01*
X166150309Y-65700949D01*
X166183283Y-65662136D01*
X166190213Y-65654620D01*
X166195604Y-65649229D01*
X166212617Y-65627725D01*
X166215394Y-65624339D01*
X166256307Y-65576182D01*
X166256311Y-65576177D01*
X166261050Y-65570598D01*
X166264380Y-65564076D01*
X166267500Y-65559398D01*
X166270436Y-65554644D01*
X166274976Y-65548906D01*
X166304847Y-65484995D01*
X166306757Y-65481088D01*
X166338834Y-65418267D01*
X166340574Y-65411155D01*
X166342540Y-65405869D01*
X166344298Y-65400584D01*
X166347397Y-65393954D01*
X166361764Y-65324881D01*
X166362734Y-65320597D01*
X166370151Y-65290285D01*
X166379488Y-65252128D01*
X166380158Y-65241329D01*
X166380182Y-65241330D01*
X166380446Y-65236915D01*
X166380736Y-65233665D01*
X166382227Y-65226497D01*
X166380204Y-65151726D01*
X166380158Y-65148318D01*
X166380158Y-64826144D01*
X166400160Y-64758023D01*
X166453816Y-64711530D01*
X166506158Y-64700144D01*
X166544792Y-64700144D01*
X166606974Y-64693389D01*
X166743363Y-64642259D01*
X166859919Y-64554905D01*
X166947273Y-64438349D01*
X166952004Y-64425730D01*
X166991256Y-64321026D01*
X167033898Y-64264262D01*
X167100460Y-64239562D01*
X167169808Y-64254770D01*
G37*
%TD.AperFunction*%
%TA.AperFunction,Conductor*%
G36*
X150234684Y-64016788D02*
G01*
X150262533Y-64048638D01*
X150322645Y-64146732D01*
X150468908Y-64315582D01*
X150640784Y-64458276D01*
X150815354Y-64560286D01*
X150818378Y-64562053D01*
X150867102Y-64613691D01*
X150880808Y-64670841D01*
X150880808Y-74608690D01*
X150860806Y-74676811D01*
X150843903Y-74697785D01*
X142154625Y-83387063D01*
X142092313Y-83421089D01*
X142065530Y-83423968D01*
X130223450Y-83423968D01*
X130155329Y-83403966D01*
X130130256Y-83382767D01*
X130077026Y-83324268D01*
X130045913Y-83290075D01*
X129929857Y-83198419D01*
X129874657Y-83154824D01*
X129874653Y-83154822D01*
X129870602Y-83151622D01*
X129828812Y-83128553D01*
X129778841Y-83078121D01*
X129764069Y-83008678D01*
X129789185Y-82942272D01*
X129816537Y-82915665D01*
X129991571Y-82790816D01*
X129999443Y-82784163D01*
X130150295Y-82633836D01*
X130156973Y-82625989D01*
X130281246Y-82453044D01*
X130286556Y-82444207D01*
X130380913Y-82253291D01*
X130384712Y-82243696D01*
X130446620Y-82039934D01*
X130448798Y-82029861D01*
X130450229Y-82018986D01*
X130448018Y-82004802D01*
X130434860Y-82001024D01*
X127799468Y-82001024D01*
X127785937Y-82004997D01*
X127784500Y-82014990D01*
X127814808Y-82149470D01*
X127817888Y-82159299D01*
X127898013Y-82356627D01*
X127902656Y-82365818D01*
X128013937Y-82547412D01*
X128020020Y-82555723D01*
X128159456Y-82716691D01*
X128166823Y-82723907D01*
X128330677Y-82859940D01*
X128339124Y-82865855D01*
X128408212Y-82906227D01*
X128456936Y-82957866D01*
X128470007Y-83027649D01*
X128443276Y-83093420D01*
X128402827Y-83126776D01*
X128389850Y-83133531D01*
X128385717Y-83136634D01*
X128385714Y-83136636D01*
X128215343Y-83264554D01*
X128211208Y-83267659D01*
X128162284Y-83318855D01*
X128061836Y-83423968D01*
X128056872Y-83429162D01*
X127930986Y-83613704D01*
X127928807Y-83618399D01*
X127860231Y-83766134D01*
X127836931Y-83816329D01*
X127777232Y-84031594D01*
X127753494Y-84253719D01*
X127753791Y-84258872D01*
X127753791Y-84258875D01*
X127761829Y-84398284D01*
X127766353Y-84476739D01*
X127767490Y-84481785D01*
X127767491Y-84481791D01*
X127782163Y-84546894D01*
X127815465Y-84694663D01*
X127862960Y-84811629D01*
X127895176Y-84890968D01*
X127899509Y-84901640D01*
X128016230Y-85092112D01*
X128162493Y-85260962D01*
X128334369Y-85403656D01*
X128351616Y-85413734D01*
X128407688Y-85446500D01*
X128456412Y-85498138D01*
X128469483Y-85567921D01*
X128442752Y-85633693D01*
X128402298Y-85667051D01*
X128389850Y-85673531D01*
X128385717Y-85676634D01*
X128385714Y-85676636D01*
X128244594Y-85782592D01*
X128211208Y-85807659D01*
X128056872Y-85969162D01*
X127930986Y-86153704D01*
X127892521Y-86236570D01*
X127866284Y-86293094D01*
X127836931Y-86356329D01*
X127777232Y-86571594D01*
X127753494Y-86793719D01*
X127753791Y-86798872D01*
X127753791Y-86798875D01*
X127759254Y-86893614D01*
X127766353Y-87016739D01*
X127767490Y-87021785D01*
X127767491Y-87021791D01*
X127782362Y-87087775D01*
X127815465Y-87234663D01*
X127853704Y-87328835D01*
X127883800Y-87402952D01*
X127899509Y-87441640D01*
X128016230Y-87632112D01*
X128162493Y-87800962D01*
X128334369Y-87943656D01*
X128374771Y-87967265D01*
X128407688Y-87986500D01*
X128456412Y-88038138D01*
X128469483Y-88107921D01*
X128442752Y-88173693D01*
X128402298Y-88207051D01*
X128389850Y-88213531D01*
X128385717Y-88216634D01*
X128385714Y-88216636D01*
X128215343Y-88344554D01*
X128211208Y-88347659D01*
X128165854Y-88395119D01*
X128103784Y-88460072D01*
X128056872Y-88509162D01*
X127930986Y-88693704D01*
X127885259Y-88792214D01*
X127854413Y-88858668D01*
X127836931Y-88896329D01*
X127777232Y-89111594D01*
X127753494Y-89333719D01*
X127753791Y-89338872D01*
X127753791Y-89338875D01*
X127759254Y-89433614D01*
X127766353Y-89556739D01*
X127767490Y-89561785D01*
X127767491Y-89561791D01*
X127787362Y-89649963D01*
X127815465Y-89774663D01*
X127853704Y-89868835D01*
X127877667Y-89927848D01*
X127899509Y-89981640D01*
X128016230Y-90172112D01*
X128162493Y-90340962D01*
X128334369Y-90483656D01*
X128404838Y-90524835D01*
X128407688Y-90526500D01*
X128456412Y-90578138D01*
X128469483Y-90647921D01*
X128442752Y-90713693D01*
X128402298Y-90747051D01*
X128389850Y-90753531D01*
X128385717Y-90756634D01*
X128385714Y-90756636D01*
X128361490Y-90774824D01*
X128211208Y-90887659D01*
X128056872Y-91049162D01*
X127930986Y-91233704D01*
X127836931Y-91436329D01*
X127777232Y-91651594D01*
X127753494Y-91873719D01*
X127753791Y-91878872D01*
X127753791Y-91878875D01*
X127763592Y-92048862D01*
X127766353Y-92096739D01*
X127767490Y-92101785D01*
X127767491Y-92101791D01*
X127787362Y-92189963D01*
X127815465Y-92314663D01*
X127853704Y-92408835D01*
X127884429Y-92484501D01*
X127899509Y-92521640D01*
X128016230Y-92712112D01*
X128162493Y-92880962D01*
X128334369Y-93023656D01*
X128404838Y-93064835D01*
X128407688Y-93066500D01*
X128456412Y-93118138D01*
X128469483Y-93187921D01*
X128442752Y-93253693D01*
X128402298Y-93287051D01*
X128389850Y-93293531D01*
X128385717Y-93296634D01*
X128385714Y-93296636D01*
X128361490Y-93314824D01*
X128211208Y-93427659D01*
X128056872Y-93589162D01*
X127930986Y-93773704D01*
X127836931Y-93976329D01*
X127777232Y-94191594D01*
X127753494Y-94413719D01*
X127753791Y-94418872D01*
X127753791Y-94418875D01*
X127759254Y-94513614D01*
X127766353Y-94636739D01*
X127767490Y-94641785D01*
X127767491Y-94641791D01*
X127787362Y-94729963D01*
X127815465Y-94854663D01*
X127899509Y-95061640D01*
X128016230Y-95252112D01*
X128162493Y-95420962D01*
X128334369Y-95563656D01*
X128404838Y-95604835D01*
X128407688Y-95606500D01*
X128456412Y-95658138D01*
X128469483Y-95727921D01*
X128442752Y-95793693D01*
X128402298Y-95827051D01*
X128389850Y-95833531D01*
X128385717Y-95836634D01*
X128385714Y-95836636D01*
X128361490Y-95854824D01*
X128211208Y-95967659D01*
X128056872Y-96129162D01*
X127930986Y-96313704D01*
X127836931Y-96516329D01*
X127777232Y-96731594D01*
X127753494Y-96953719D01*
X127766353Y-97176739D01*
X127767490Y-97181785D01*
X127767491Y-97181791D01*
X127791547Y-97288532D01*
X127815465Y-97394663D01*
X127859993Y-97504322D01*
X127885183Y-97566358D01*
X127899509Y-97601640D01*
X128016230Y-97792112D01*
X128162493Y-97960962D01*
X128334369Y-98103656D01*
X128404838Y-98144835D01*
X128407688Y-98146500D01*
X128456412Y-98198138D01*
X128469483Y-98267921D01*
X128442752Y-98333693D01*
X128402298Y-98367051D01*
X128389850Y-98373531D01*
X128385717Y-98376634D01*
X128385714Y-98376636D01*
X128361490Y-98394824D01*
X128211208Y-98507659D01*
X128207636Y-98511397D01*
X128061836Y-98663968D01*
X128056872Y-98669162D01*
X127930986Y-98853704D01*
X127836931Y-99056329D01*
X127777232Y-99271594D01*
X127753494Y-99493719D01*
X127766353Y-99716739D01*
X127767490Y-99721785D01*
X127767491Y-99721791D01*
X127791547Y-99828532D01*
X127815465Y-99934663D01*
X127849760Y-100019121D01*
X127896574Y-100134411D01*
X127899509Y-100141640D01*
X128016230Y-100332112D01*
X128162493Y-100500962D01*
X128334369Y-100643656D01*
X128404838Y-100684835D01*
X128407688Y-100686500D01*
X128456412Y-100738138D01*
X128469483Y-100807921D01*
X128442752Y-100873693D01*
X128402298Y-100907051D01*
X128389850Y-100913531D01*
X128385717Y-100916634D01*
X128385714Y-100916636D01*
X128361490Y-100934824D01*
X128211208Y-101047659D01*
X128207636Y-101051397D01*
X128126245Y-101136568D01*
X128056872Y-101209162D01*
X127930986Y-101393704D01*
X127836931Y-101596329D01*
X127777232Y-101811594D01*
X127753494Y-102033719D01*
X127766353Y-102256739D01*
X127767490Y-102261785D01*
X127767491Y-102261791D01*
X127791547Y-102368532D01*
X127815465Y-102474663D01*
X127899509Y-102681640D01*
X128016230Y-102872112D01*
X128162493Y-103040962D01*
X128334369Y-103183656D01*
X128404838Y-103224835D01*
X128407688Y-103226500D01*
X128456412Y-103278138D01*
X128469483Y-103347921D01*
X128442752Y-103413693D01*
X128402298Y-103447051D01*
X128389850Y-103453531D01*
X128385717Y-103456634D01*
X128385714Y-103456636D01*
X128361490Y-103474824D01*
X128211208Y-103587659D01*
X128207636Y-103591397D01*
X128061836Y-103743968D01*
X128056872Y-103749162D01*
X127930986Y-103933704D01*
X127836931Y-104136329D01*
X127777232Y-104351594D01*
X127753494Y-104573719D01*
X127753791Y-104578872D01*
X127753791Y-104578875D01*
X127766055Y-104791571D01*
X127766353Y-104796739D01*
X127767490Y-104801785D01*
X127767491Y-104801791D01*
X127784382Y-104876740D01*
X127815465Y-105014663D01*
X127849760Y-105099121D01*
X127896574Y-105214411D01*
X127899509Y-105221640D01*
X127902208Y-105226044D01*
X127980791Y-105354280D01*
X128016230Y-105412112D01*
X128162493Y-105580962D01*
X128334369Y-105723656D01*
X128375603Y-105747751D01*
X128407688Y-105766500D01*
X128456412Y-105818138D01*
X128469483Y-105887921D01*
X128442752Y-105953693D01*
X128402298Y-105987051D01*
X128389850Y-105993531D01*
X128385717Y-105996634D01*
X128385714Y-105996636D01*
X128342459Y-106029113D01*
X128275974Y-106054019D01*
X128266806Y-106054353D01*
X127710001Y-106054353D01*
X127641880Y-106034351D01*
X127620906Y-106017448D01*
X126877895Y-105274437D01*
X126843869Y-105212125D01*
X126840990Y-105185342D01*
X126840990Y-75634672D01*
X126860992Y-75566551D01*
X126877894Y-75545577D01*
X127266708Y-75156762D01*
X127329021Y-75122737D01*
X127355804Y-75119857D01*
X128139765Y-75119857D01*
X128207886Y-75139859D01*
X128220242Y-75148906D01*
X128334369Y-75243656D01*
X128371585Y-75265403D01*
X128407688Y-75286500D01*
X128456412Y-75338138D01*
X128469483Y-75407921D01*
X128442752Y-75473693D01*
X128402298Y-75507051D01*
X128389850Y-75513531D01*
X128385717Y-75516634D01*
X128385714Y-75516636D01*
X128228505Y-75634672D01*
X128211208Y-75647659D01*
X128056872Y-75809162D01*
X127930986Y-75993704D01*
X127836931Y-76196329D01*
X127777232Y-76411594D01*
X127753494Y-76633719D01*
X127753791Y-76638872D01*
X127753791Y-76638875D01*
X127762966Y-76797994D01*
X127766353Y-76856739D01*
X127767490Y-76861785D01*
X127767491Y-76861791D01*
X127784546Y-76937468D01*
X127815465Y-77074663D01*
X127899509Y-77281640D01*
X127902208Y-77286044D01*
X127980791Y-77414280D01*
X128016230Y-77472112D01*
X128162493Y-77640962D01*
X128334369Y-77783656D01*
X128395218Y-77819213D01*
X128407688Y-77826500D01*
X128456412Y-77878138D01*
X128469483Y-77947921D01*
X128442752Y-78013693D01*
X128402298Y-78047051D01*
X128389850Y-78053531D01*
X128385717Y-78056634D01*
X128385714Y-78056636D01*
X128221466Y-78179957D01*
X128211208Y-78187659D01*
X128207636Y-78191397D01*
X128067627Y-78337908D01*
X128056872Y-78349162D01*
X127930986Y-78533704D01*
X127913460Y-78571461D01*
X127840395Y-78728867D01*
X127836931Y-78736329D01*
X127777232Y-78951594D01*
X127753494Y-79173719D01*
X127753791Y-79178872D01*
X127753791Y-79178875D01*
X127760981Y-79303576D01*
X127766353Y-79396739D01*
X127767490Y-79401785D01*
X127767491Y-79401791D01*
X127785227Y-79480489D01*
X127815465Y-79614663D01*
X127866302Y-79739861D01*
X127893123Y-79805912D01*
X127899509Y-79821640D01*
X127902208Y-79826044D01*
X128002340Y-79989445D01*
X128016230Y-80012112D01*
X128162493Y-80180962D01*
X128334369Y-80323656D01*
X128408198Y-80366798D01*
X128456922Y-80418436D01*
X128469993Y-80488219D01*
X128443262Y-80553991D01*
X128402805Y-80587351D01*
X128394700Y-80591570D01*
X128385981Y-80597060D01*
X128215676Y-80724929D01*
X128207969Y-80731772D01*
X128060833Y-80885741D01*
X128054347Y-80893751D01*
X127934341Y-81069673D01*
X127929243Y-81078647D01*
X127839581Y-81271807D01*
X127836018Y-81281494D01*
X127780632Y-81481207D01*
X127782155Y-81489631D01*
X127794535Y-81493024D01*
X130434587Y-81493024D01*
X130448118Y-81489051D01*
X130449423Y-81479971D01*
X130407457Y-81312899D01*
X130404137Y-81303148D01*
X130319215Y-81107838D01*
X130314348Y-81098763D01*
X130198669Y-80919950D01*
X130192379Y-80911781D01*
X130049049Y-80754264D01*
X130041516Y-80747239D01*
X129874382Y-80615246D01*
X129865799Y-80609544D01*
X129828845Y-80589144D01*
X129778874Y-80538711D01*
X129764102Y-80469269D01*
X129789218Y-80402863D01*
X129816570Y-80376256D01*
X129860211Y-80345127D01*
X129996103Y-80248197D01*
X130020300Y-80224085D01*
X130141947Y-80102862D01*
X130154339Y-80090513D01*
X130213837Y-80007713D01*
X130281678Y-79913301D01*
X130284696Y-79909101D01*
X130313171Y-79851486D01*
X130361283Y-79799281D01*
X130426127Y-79781314D01*
X144724050Y-79781314D01*
X144743000Y-79782747D01*
X144756209Y-79784757D01*
X144756213Y-79784757D01*
X144763443Y-79785857D01*
X144770735Y-79785264D01*
X144770738Y-79785264D01*
X144814195Y-79781729D01*
X144824410Y-79781314D01*
X144832042Y-79781314D01*
X144835661Y-79780892D01*
X144835680Y-79780891D01*
X144859285Y-79778139D01*
X144863651Y-79777707D01*
X144890970Y-79775485D01*
X144926620Y-79772585D01*
X144926622Y-79772585D01*
X144933920Y-79771991D01*
X144940889Y-79769733D01*
X144946409Y-79768630D01*
X144951834Y-79767348D01*
X144959106Y-79766500D01*
X145025426Y-79742427D01*
X145029572Y-79741004D01*
X145089674Y-79721534D01*
X145089678Y-79721532D01*
X145096636Y-79719278D01*
X145102888Y-79715484D01*
X145108004Y-79713142D01*
X145113005Y-79710638D01*
X145119883Y-79708141D01*
X145126000Y-79704131D01*
X145126005Y-79704128D01*
X145178870Y-79669467D01*
X145182592Y-79667119D01*
X145238064Y-79633458D01*
X145238065Y-79633457D01*
X145242861Y-79630547D01*
X145250971Y-79623385D01*
X145250986Y-79623402D01*
X145254296Y-79620468D01*
X145256803Y-79618372D01*
X145262922Y-79614360D01*
X145314382Y-79560038D01*
X145316760Y-79557596D01*
X149355235Y-75519120D01*
X149369648Y-75506733D01*
X149380410Y-75498813D01*
X149386309Y-75494472D01*
X149419289Y-75455652D01*
X149426219Y-75448136D01*
X149431603Y-75442752D01*
X149433882Y-75439872D01*
X149448603Y-75421266D01*
X149451374Y-75417886D01*
X149497050Y-75364121D01*
X149500380Y-75357600D01*
X149503484Y-75352945D01*
X149506429Y-75348177D01*
X149510976Y-75342430D01*
X149515174Y-75333449D01*
X149530720Y-75300185D01*
X149540832Y-75278549D01*
X149542760Y-75274603D01*
X149543799Y-75272568D01*
X149574834Y-75211790D01*
X149576574Y-75204679D01*
X149578527Y-75199427D01*
X149580296Y-75194109D01*
X149583396Y-75187477D01*
X149597760Y-75118421D01*
X149598730Y-75114136D01*
X149599134Y-75112485D01*
X149615488Y-75045651D01*
X149616158Y-75034852D01*
X149616182Y-75034853D01*
X149616446Y-75030438D01*
X149616736Y-75027188D01*
X149618227Y-75020020D01*
X149616204Y-74945249D01*
X149616158Y-74941841D01*
X149616158Y-64552109D01*
X149636160Y-64483988D01*
X149668989Y-64449531D01*
X149758312Y-64385817D01*
X149762518Y-64382817D01*
X149920754Y-64225133D01*
X150051111Y-64043721D01*
X150052434Y-64044672D01*
X150099303Y-64001501D01*
X150169238Y-63989269D01*
X150234684Y-64016788D01*
G37*
%TD.AperFunction*%
%TA.AperFunction,Conductor*%
G36*
X178681356Y-64688608D02*
G01*
X178716351Y-64713308D01*
X179969025Y-65965982D01*
X179974879Y-65972247D01*
X180012907Y-66015839D01*
X180065197Y-66052590D01*
X180070439Y-66056482D01*
X180120750Y-66095930D01*
X180127669Y-66099054D01*
X180129961Y-66100442D01*
X180144633Y-66108811D01*
X180146993Y-66110076D01*
X180153207Y-66114444D01*
X180160286Y-66117204D01*
X180160288Y-66117205D01*
X180212743Y-66137656D01*
X180218812Y-66140207D01*
X180277041Y-66166499D01*
X180284514Y-66167884D01*
X180287080Y-66168688D01*
X180303303Y-66173309D01*
X180305895Y-66173974D01*
X180312977Y-66176736D01*
X180320512Y-66177728D01*
X180376329Y-66185076D01*
X180382845Y-66186108D01*
X180421238Y-66193224D01*
X180445654Y-66197749D01*
X180453234Y-66197312D01*
X180453235Y-66197312D01*
X180507848Y-66194163D01*
X180515101Y-66193954D01*
X183929292Y-66193954D01*
X183997413Y-66213956D01*
X184043906Y-66267612D01*
X184055292Y-66319954D01*
X184055292Y-66478900D01*
X184035290Y-66547021D01*
X183995595Y-66586044D01*
X183917849Y-66634155D01*
X183912676Y-66639337D01*
X183831059Y-66721096D01*
X183768776Y-66755175D01*
X183697956Y-66750172D01*
X183652868Y-66721251D01*
X183570368Y-66638894D01*
X183558957Y-66629882D01*
X183420954Y-66544817D01*
X183407773Y-66538670D01*
X183253487Y-66487495D01*
X183240111Y-66484628D01*
X183145759Y-66474961D01*
X183139342Y-66474633D01*
X183101812Y-66474633D01*
X183086573Y-66479108D01*
X183085368Y-66480498D01*
X183083697Y-66488181D01*
X183083697Y-68872517D01*
X183088172Y-68887756D01*
X183089562Y-68888961D01*
X183097245Y-68890632D01*
X183139292Y-68890632D01*
X183145811Y-68890295D01*
X183241403Y-68880376D01*
X183254797Y-68877484D01*
X183408981Y-68826045D01*
X183422159Y-68819872D01*
X183560004Y-68734570D01*
X183571405Y-68725534D01*
X183652627Y-68644171D01*
X183714910Y-68610092D01*
X183785730Y-68615095D01*
X183830818Y-68644016D01*
X183909215Y-68722276D01*
X183943294Y-68784558D01*
X183946197Y-68811449D01*
X183946197Y-70630439D01*
X183926195Y-70698560D01*
X183872539Y-70745053D01*
X183798101Y-70754486D01*
X183758888Y-70747501D01*
X183685056Y-70746599D01*
X183540685Y-70744835D01*
X183540683Y-70744835D01*
X183535515Y-70744772D01*
X183314695Y-70778562D01*
X183102360Y-70847964D01*
X183097768Y-70850354D01*
X183097769Y-70850354D01*
X182934874Y-70935152D01*
X182904211Y-70951114D01*
X182900078Y-70954217D01*
X182900075Y-70954219D01*
X182850207Y-70991661D01*
X182725569Y-71085242D01*
X182571233Y-71246745D01*
X182445347Y-71431287D01*
X182399341Y-71530398D01*
X182358133Y-71619175D01*
X182351292Y-71633912D01*
X182291593Y-71849177D01*
X182291044Y-71854314D01*
X182290528Y-71859139D01*
X182267855Y-72071302D01*
X182268152Y-72076455D01*
X182268152Y-72076458D01*
X182273615Y-72171197D01*
X182280714Y-72294322D01*
X182281851Y-72299368D01*
X182281852Y-72299374D01*
X182285428Y-72315241D01*
X182329826Y-72512246D01*
X182413870Y-72719223D01*
X182530591Y-72909695D01*
X182676854Y-73078545D01*
X182680834Y-73081849D01*
X182685585Y-73085794D01*
X182725220Y-73144697D01*
X182726717Y-73215678D01*
X182689601Y-73276200D01*
X182649328Y-73300719D01*
X182533899Y-73343992D01*
X182417343Y-73431346D01*
X182329989Y-73547902D01*
X182278859Y-73684291D01*
X182272104Y-73746473D01*
X182272104Y-75542741D01*
X182278859Y-75604923D01*
X182329989Y-75741312D01*
X182417343Y-75857868D01*
X182533899Y-75945222D01*
X182542308Y-75948374D01*
X182550179Y-75952684D01*
X182549268Y-75954348D01*
X182597094Y-75990270D01*
X182621797Y-76056831D01*
X182622104Y-76065616D01*
X182622104Y-81370973D01*
X182602102Y-81439094D01*
X182585199Y-81460068D01*
X180393692Y-83651575D01*
X180331380Y-83685601D01*
X180293616Y-83688001D01*
X180228361Y-83682292D01*
X180228360Y-83682292D01*
X180222885Y-83681813D01*
X179988140Y-83702351D01*
X179982826Y-83703775D01*
X179982825Y-83703775D01*
X179765837Y-83761916D01*
X179765835Y-83761917D01*
X179760527Y-83763339D01*
X179755547Y-83765661D01*
X179755545Y-83765662D01*
X179551944Y-83860603D01*
X179551941Y-83860605D01*
X179546963Y-83862926D01*
X179353936Y-83998084D01*
X179187312Y-84164708D01*
X179128580Y-84248586D01*
X179056098Y-84352102D01*
X179000641Y-84396431D01*
X178930022Y-84403740D01*
X178866661Y-84371710D01*
X178849672Y-84352102D01*
X178777190Y-84248586D01*
X178718458Y-84164708D01*
X178551834Y-83998084D01*
X178358807Y-83862926D01*
X178353829Y-83860605D01*
X178353826Y-83860603D01*
X178150225Y-83765662D01*
X178150223Y-83765661D01*
X178145243Y-83763339D01*
X178139935Y-83761917D01*
X178139933Y-83761916D01*
X177917630Y-83702351D01*
X177918142Y-83700438D01*
X177858157Y-83669212D01*
X177513213Y-83324268D01*
X177479187Y-83261956D01*
X177476308Y-83235173D01*
X177476308Y-78982202D01*
X178410433Y-78982202D01*
X178410730Y-78987355D01*
X178410730Y-78987358D01*
X178416755Y-79091842D01*
X178423292Y-79205222D01*
X178424429Y-79210268D01*
X178424430Y-79210274D01*
X178444301Y-79298446D01*
X178472404Y-79423146D01*
X178519039Y-79537995D01*
X178552528Y-79620468D01*
X178556448Y-79630123D01*
X178579119Y-79667119D01*
X178666205Y-79809230D01*
X178673169Y-79820595D01*
X178819432Y-79989445D01*
X178991308Y-80132139D01*
X178995769Y-80134746D01*
X178999911Y-80137646D01*
X179044240Y-80193103D01*
X179053641Y-80240859D01*
X179053641Y-81136815D01*
X179046043Y-81179905D01*
X179041331Y-81192853D01*
X179019891Y-81362569D01*
X179036584Y-81532819D01*
X179090581Y-81695139D01*
X179094228Y-81701161D01*
X179094229Y-81701163D01*
X179175547Y-81835437D01*
X179175550Y-81835440D01*
X179179197Y-81841463D01*
X179298030Y-81964517D01*
X179359592Y-82004802D01*
X179432583Y-82052566D01*
X179441171Y-82058186D01*
X179447775Y-82060642D01*
X179447777Y-82060643D01*
X179594898Y-82115357D01*
X179594900Y-82115357D01*
X179601508Y-82117815D01*
X179680595Y-82128368D01*
X179764090Y-82139509D01*
X179764094Y-82139509D01*
X179771071Y-82140440D01*
X179778082Y-82139802D01*
X179778086Y-82139802D01*
X179934414Y-82125575D01*
X179934416Y-82125575D01*
X179941433Y-82124936D01*
X179948131Y-82122760D01*
X179948134Y-82122759D01*
X180097430Y-82074249D01*
X180097432Y-82074248D01*
X180104126Y-82072073D01*
X180159489Y-82039070D01*
X180245013Y-81988088D01*
X180245015Y-81988087D01*
X180251065Y-81984480D01*
X180374946Y-81866510D01*
X180388220Y-81846532D01*
X180465711Y-81729897D01*
X180469612Y-81724026D01*
X180530359Y-81564109D01*
X180534094Y-81537534D01*
X180553616Y-81398630D01*
X180553616Y-81398627D01*
X180554167Y-81394708D01*
X180554466Y-81373283D01*
X180535397Y-81203283D01*
X180531765Y-81192853D01*
X180527649Y-81181032D01*
X180520641Y-81139596D01*
X180520641Y-80216015D01*
X180540643Y-80147894D01*
X180573472Y-80113436D01*
X180581692Y-80107573D01*
X180653042Y-80056680D01*
X180693586Y-80016278D01*
X180775674Y-79934476D01*
X180811278Y-79898996D01*
X180870776Y-79816196D01*
X180938617Y-79721784D01*
X180941635Y-79717584D01*
X180945037Y-79710702D01*
X181038318Y-79521960D01*
X181038319Y-79521958D01*
X181040612Y-79517318D01*
X181105552Y-79303576D01*
X181134711Y-79082097D01*
X181136338Y-79015507D01*
X181118034Y-78792868D01*
X181063613Y-78576209D01*
X180974536Y-78371347D01*
X180872678Y-78213898D01*
X180856004Y-78188124D01*
X180856002Y-78188121D01*
X180853196Y-78183784D01*
X180849714Y-78179957D01*
X180705980Y-78021995D01*
X180674928Y-77958149D01*
X180683323Y-77887650D01*
X180728499Y-77832882D01*
X180754943Y-77819213D01*
X180861479Y-77779274D01*
X180869887Y-77776122D01*
X180986443Y-77688768D01*
X181073797Y-77572212D01*
X181124927Y-77435823D01*
X181131682Y-77373641D01*
X181131682Y-75577373D01*
X181124927Y-75515191D01*
X181073797Y-75378802D01*
X180986443Y-75262246D01*
X180942090Y-75229005D01*
X180877069Y-75180274D01*
X180877066Y-75180272D01*
X180869887Y-75174892D01*
X180817017Y-75155072D01*
X180760253Y-75112430D01*
X180735553Y-75045868D01*
X180735247Y-75037090D01*
X180735247Y-73039370D01*
X180742195Y-73001047D01*
X180742112Y-73001027D01*
X180742476Y-72999498D01*
X180743266Y-72995138D01*
X180743939Y-72993342D01*
X180746713Y-72985943D01*
X180753468Y-72923761D01*
X180753468Y-71927493D01*
X180746713Y-71865311D01*
X180695583Y-71728922D01*
X180608229Y-71612366D01*
X180491673Y-71525012D01*
X180355284Y-71473882D01*
X180293102Y-71467127D01*
X178996834Y-71467127D01*
X178934652Y-71473882D01*
X178798263Y-71525012D01*
X178681707Y-71612366D01*
X178594353Y-71728922D01*
X178543223Y-71865311D01*
X178536468Y-71927493D01*
X178536468Y-72923761D01*
X178543223Y-72985943D01*
X178594353Y-73122332D01*
X178681707Y-73238888D01*
X178683089Y-73239924D01*
X178715368Y-73299036D01*
X178718247Y-73325819D01*
X178718247Y-75080560D01*
X178698245Y-75148681D01*
X178667812Y-75181386D01*
X178651253Y-75193796D01*
X178559921Y-75262246D01*
X178472567Y-75378802D01*
X178421437Y-75515191D01*
X178414682Y-75577373D01*
X178414682Y-77373641D01*
X178421437Y-77435823D01*
X178472567Y-77572212D01*
X178559921Y-77688768D01*
X178676477Y-77776122D01*
X178684886Y-77779274D01*
X178684887Y-77779275D01*
X178793633Y-77820042D01*
X178850398Y-77862683D01*
X178875098Y-77929245D01*
X178859891Y-77998594D01*
X178840498Y-78025075D01*
X178713811Y-78157645D01*
X178587925Y-78342187D01*
X178572185Y-78376097D01*
X178496847Y-78538399D01*
X178493870Y-78544812D01*
X178434171Y-78760077D01*
X178410433Y-78982202D01*
X177476308Y-78982202D01*
X177476308Y-67542022D01*
X177461494Y-67414958D01*
X177458997Y-67408080D01*
X177458996Y-67408074D01*
X177458869Y-67407725D01*
X177458741Y-67406994D01*
X177457312Y-67400951D01*
X177457663Y-67400868D01*
X177451308Y-67364735D01*
X177451308Y-66846705D01*
X177451600Y-66838136D01*
X177455017Y-66788017D01*
X177455017Y-66788013D01*
X177455533Y-66780441D01*
X177444544Y-66717479D01*
X177443585Y-66710976D01*
X177441492Y-66693675D01*
X177435910Y-66647552D01*
X177433224Y-66640443D01*
X177432592Y-66637872D01*
X177428132Y-66621566D01*
X177427357Y-66618998D01*
X177426050Y-66611510D01*
X177400369Y-66553006D01*
X177397877Y-66546899D01*
X177377981Y-66494246D01*
X177377981Y-66494245D01*
X177375295Y-66487138D01*
X177370992Y-66480877D01*
X177369755Y-66478511D01*
X177361528Y-66463731D01*
X177360177Y-66461446D01*
X177357123Y-66454489D01*
X177352503Y-66448469D01*
X177352500Y-66448463D01*
X177322818Y-66409783D01*
X177318221Y-66403792D01*
X177314349Y-66398462D01*
X177282469Y-66352074D01*
X177282464Y-66352069D01*
X177278165Y-66345813D01*
X177249142Y-66319954D01*
X177231638Y-66304359D01*
X177226362Y-66299378D01*
X175838886Y-64911902D01*
X175804860Y-64849590D01*
X175809925Y-64778775D01*
X175852472Y-64721939D01*
X175911971Y-64697828D01*
X176071247Y-64677424D01*
X176141357Y-64688608D01*
X176176352Y-64713308D01*
X178976846Y-67513802D01*
X179010872Y-67576114D01*
X179013751Y-67602897D01*
X179013751Y-68056901D01*
X178993749Y-68125022D01*
X178940093Y-68171515D01*
X178931981Y-68174883D01*
X178848948Y-68206011D01*
X178798263Y-68225012D01*
X178681707Y-68312366D01*
X178594353Y-68428922D01*
X178543223Y-68565311D01*
X178536468Y-68627493D01*
X178536468Y-69623761D01*
X178543223Y-69685943D01*
X178594353Y-69822332D01*
X178681707Y-69938888D01*
X178798263Y-70026242D01*
X178934652Y-70077372D01*
X178996834Y-70084127D01*
X180293102Y-70084127D01*
X180355284Y-70077372D01*
X180491673Y-70026242D01*
X180608229Y-69938888D01*
X180695583Y-69822332D01*
X180746713Y-69685943D01*
X180753468Y-69623761D01*
X180753468Y-68627493D01*
X180746713Y-68565311D01*
X180695583Y-68428922D01*
X180608229Y-68312366D01*
X180491673Y-68225012D01*
X180491941Y-68224655D01*
X180447118Y-68179728D01*
X181809198Y-68179728D01*
X181809535Y-68186247D01*
X181819454Y-68281839D01*
X181822346Y-68295233D01*
X181873785Y-68449417D01*
X181879958Y-68462595D01*
X181965260Y-68600440D01*
X181974296Y-68611841D01*
X182089026Y-68726372D01*
X182100437Y-68735384D01*
X182238440Y-68820449D01*
X182251621Y-68826596D01*
X182405907Y-68877771D01*
X182419283Y-68880638D01*
X182513635Y-68890305D01*
X182520051Y-68890633D01*
X182557582Y-68890633D01*
X182572821Y-68886158D01*
X182574026Y-68884768D01*
X182575697Y-68877085D01*
X182575697Y-67954748D01*
X182571222Y-67939509D01*
X182569832Y-67938304D01*
X182562149Y-67936633D01*
X181827313Y-67936633D01*
X181812074Y-67941108D01*
X181810869Y-67942498D01*
X181809198Y-67950181D01*
X181809198Y-68179728D01*
X180447118Y-68179728D01*
X180446094Y-68178702D01*
X180430751Y-68118444D01*
X180430751Y-67410518D01*
X181809197Y-67410518D01*
X181813672Y-67425757D01*
X181815062Y-67426962D01*
X181822745Y-67428633D01*
X182557582Y-67428633D01*
X182572821Y-67424158D01*
X182574026Y-67422768D01*
X182575697Y-67415085D01*
X182575697Y-66492749D01*
X182571222Y-66477510D01*
X182569832Y-66476305D01*
X182562149Y-66474634D01*
X182520102Y-66474634D01*
X182513583Y-66474971D01*
X182417991Y-66484890D01*
X182404597Y-66487782D01*
X182250413Y-66539221D01*
X182237235Y-66545394D01*
X182099390Y-66630696D01*
X182087989Y-66639732D01*
X181973458Y-66754462D01*
X181964446Y-66765873D01*
X181879381Y-66903876D01*
X181873234Y-66917057D01*
X181822059Y-67071343D01*
X181819192Y-67084719D01*
X181809525Y-67179071D01*
X181809197Y-67185488D01*
X181809197Y-67410518D01*
X180430751Y-67410518D01*
X180430751Y-67286164D01*
X180431043Y-67277595D01*
X180434461Y-67227462D01*
X180434461Y-67227458D01*
X180434977Y-67219885D01*
X180423987Y-67156918D01*
X180423026Y-67150402D01*
X180415353Y-67086995D01*
X180412670Y-67079894D01*
X180412029Y-67077285D01*
X180407560Y-67060952D01*
X180406799Y-67058432D01*
X180405494Y-67050954D01*
X180402442Y-67044001D01*
X180379810Y-66992441D01*
X180377319Y-66986336D01*
X180357426Y-66933693D01*
X180357424Y-66933689D01*
X180354738Y-66926581D01*
X180350435Y-66920320D01*
X180349198Y-66917954D01*
X180340971Y-66903174D01*
X180339620Y-66900889D01*
X180336566Y-66893932D01*
X180331946Y-66887912D01*
X180331943Y-66887906D01*
X180306429Y-66854658D01*
X180297664Y-66843235D01*
X180293792Y-66837905D01*
X180261912Y-66791517D01*
X180261907Y-66791512D01*
X180257608Y-66785256D01*
X180211080Y-66743801D01*
X180205805Y-66738821D01*
X178378886Y-64911902D01*
X178344860Y-64849590D01*
X178349925Y-64778775D01*
X178392472Y-64721939D01*
X178451971Y-64697828D01*
X178611246Y-64677424D01*
X178681356Y-64688608D01*
G37*
%TD.AperFunction*%
%TA.AperFunction,Conductor*%
G36*
X169648259Y-64173648D02*
G01*
X169660984Y-64186374D01*
X169769523Y-64311675D01*
X169769527Y-64311679D01*
X169772908Y-64315582D01*
X169944784Y-64458276D01*
X170137658Y-64570982D01*
X170346350Y-64650674D01*
X170351418Y-64651705D01*
X170351421Y-64651706D01*
X170411549Y-64663939D01*
X170565255Y-64695211D01*
X170570430Y-64695401D01*
X170570432Y-64695401D01*
X170783331Y-64703208D01*
X170783335Y-64703208D01*
X170788495Y-64703397D01*
X170793615Y-64702741D01*
X170793617Y-64702741D01*
X170991247Y-64677424D01*
X171061357Y-64688609D01*
X171096352Y-64713308D01*
X173601102Y-67218058D01*
X173635128Y-67280370D01*
X173638007Y-67307153D01*
X173638007Y-68287035D01*
X173618005Y-68355156D01*
X173565459Y-68401135D01*
X173560163Y-68403616D01*
X173553224Y-68405931D01*
X173402822Y-68499003D01*
X173277865Y-68624178D01*
X173274025Y-68630408D01*
X173274024Y-68630409D01*
X173206440Y-68740051D01*
X173185055Y-68774743D01*
X173158606Y-68854486D01*
X173133201Y-68931080D01*
X173129373Y-68942620D01*
X173118670Y-69047081D01*
X173118670Y-69672881D01*
X173119007Y-69676127D01*
X173119007Y-69676131D01*
X173125866Y-69742231D01*
X173129644Y-69778647D01*
X173131825Y-69785183D01*
X173131825Y-69785185D01*
X173145426Y-69825952D01*
X173185620Y-69946427D01*
X173278692Y-70096829D01*
X173362157Y-70180148D01*
X173365279Y-70183265D01*
X173399358Y-70245547D01*
X173394355Y-70316367D01*
X173365434Y-70361456D01*
X173313211Y-70413770D01*
X173277865Y-70449178D01*
X173274025Y-70455408D01*
X173274024Y-70455409D01*
X173206308Y-70565265D01*
X173185055Y-70599743D01*
X173162844Y-70666707D01*
X173133201Y-70756080D01*
X173129373Y-70767620D01*
X173128673Y-70774456D01*
X173128672Y-70774459D01*
X173126925Y-70791514D01*
X173118670Y-70872081D01*
X173118670Y-71497881D01*
X173119007Y-71501127D01*
X173119007Y-71501131D01*
X173125866Y-71567231D01*
X173129644Y-71603647D01*
X173131825Y-71610183D01*
X173131825Y-71610185D01*
X173169007Y-71721633D01*
X173185620Y-71771427D01*
X173278692Y-71921829D01*
X173283874Y-71927002D01*
X173288419Y-71932736D01*
X173286746Y-71934062D01*
X173315768Y-71987106D01*
X173318670Y-72013992D01*
X173318670Y-78053540D01*
X173298668Y-78121661D01*
X173281765Y-78142635D01*
X170186334Y-81238066D01*
X170124022Y-81272092D01*
X170053207Y-81267027D01*
X169996371Y-81224480D01*
X169971798Y-81160829D01*
X169969197Y-81133313D01*
X169968638Y-81121455D01*
X169968638Y-71894520D01*
X169988640Y-71826399D01*
X169999821Y-71812512D01*
X169999734Y-71812443D01*
X170004272Y-71806697D01*
X170009443Y-71801517D01*
X170027991Y-71771427D01*
X170098413Y-71657182D01*
X170098414Y-71657180D01*
X170102253Y-71650952D01*
X170132187Y-71560703D01*
X170155770Y-71489603D01*
X170155770Y-71489601D01*
X170157935Y-71483075D01*
X170158965Y-71473029D01*
X170168310Y-71381812D01*
X170168638Y-71378614D01*
X170168638Y-70752814D01*
X170165854Y-70725981D01*
X170158376Y-70653906D01*
X170158375Y-70653902D01*
X170157664Y-70647048D01*
X170153536Y-70634673D01*
X170104006Y-70486216D01*
X170101688Y-70479268D01*
X170008616Y-70328866D01*
X169922029Y-70242430D01*
X169887950Y-70180148D01*
X169892953Y-70109328D01*
X169921874Y-70064239D01*
X170004272Y-69981697D01*
X170009443Y-69976517D01*
X170027991Y-69946427D01*
X170098413Y-69832182D01*
X170098414Y-69832180D01*
X170102253Y-69825952D01*
X170134296Y-69729344D01*
X170155770Y-69664603D01*
X170155770Y-69664601D01*
X170157935Y-69658075D01*
X170168638Y-69553614D01*
X170168638Y-68927814D01*
X170166430Y-68906534D01*
X170158376Y-68828906D01*
X170158375Y-68828902D01*
X170157664Y-68822048D01*
X170145157Y-68784558D01*
X170104006Y-68661216D01*
X170101688Y-68654268D01*
X170008616Y-68503866D01*
X169883441Y-68378909D01*
X169859728Y-68364292D01*
X169739106Y-68289939D01*
X169739104Y-68289938D01*
X169732876Y-68286099D01*
X169653133Y-68259650D01*
X169571527Y-68232582D01*
X169571525Y-68232582D01*
X169564999Y-68230417D01*
X169558159Y-68229716D01*
X169558158Y-68229716D01*
X169552907Y-68229178D01*
X169487179Y-68202338D01*
X169446396Y-68144224D01*
X169439747Y-68103834D01*
X169439747Y-64268872D01*
X169459749Y-64200751D01*
X169513405Y-64154258D01*
X169583679Y-64144154D01*
X169648259Y-64173648D01*
G37*
%TD.AperFunction*%
%TD*%
M02*
