%TF.GenerationSoftware,KiCad,Pcbnew,(6.0.8-1)-1*%
%TF.CreationDate,2022-11-16T22:41:15-08:00*%
%TF.ProjectId,osh-park-2-layer-kicad-5.99-drc-template,6f73682d-7061-4726-9b2d-322d6c617965,02*%
%TF.SameCoordinates,Original*%
%TF.FileFunction,Soldermask,Top*%
%TF.FilePolarity,Negative*%
%FSLAX46Y46*%
G04 Gerber Fmt 4.6, Leading zero omitted, Abs format (unit mm)*
G04 Created by KiCad (PCBNEW (6.0.8-1)-1) date 2022-11-16 22:41:15*
%MOMM*%
%LPD*%
G01*
G04 APERTURE LIST*
G04 Aperture macros list*
%AMRoundRect*
0 Rectangle with rounded corners*
0 $1 Rounding radius*
0 $2 $3 $4 $5 $6 $7 $8 $9 X,Y pos of 4 corners*
0 Add a 4 corners polygon primitive as box body*
4,1,4,$2,$3,$4,$5,$6,$7,$8,$9,$2,$3,0*
0 Add four circle primitives for the rounded corners*
1,1,$1+$1,$2,$3*
1,1,$1+$1,$4,$5*
1,1,$1+$1,$6,$7*
1,1,$1+$1,$8,$9*
0 Add four rect primitives between the rounded corners*
20,1,$1+$1,$2,$3,$4,$5,0*
20,1,$1+$1,$4,$5,$6,$7,0*
20,1,$1+$1,$6,$7,$8,$9,0*
20,1,$1+$1,$8,$9,$2,$3,0*%
G04 Aperture macros list end*
%ADD10RoundRect,0.250000X-0.450000X0.262500X-0.450000X-0.262500X0.450000X-0.262500X0.450000X0.262500X0*%
%ADD11R,1.222000X1.222000*%
%ADD12C,1.222000*%
%ADD13R,1.700000X1.700000*%
%ADD14O,1.700000X1.700000*%
%ADD15C,3.200000*%
%ADD16R,1.200000X0.900000*%
%ADD17RoundRect,0.250000X0.262500X0.450000X-0.262500X0.450000X-0.262500X-0.450000X0.262500X-0.450000X0*%
%ADD18R,1.800000X1.800000*%
%ADD19C,1.800000*%
%ADD20C,1.676400*%
G04 APERTURE END LIST*
D10*
%TO.C,R4*%
X174327170Y-69359981D03*
X174327170Y-71184981D03*
%TD*%
D11*
%TO.C,RV1*%
X138688281Y-74223478D03*
D12*
X136148281Y-71683478D03*
X138688281Y-69143478D03*
%TD*%
D10*
%TO.C,R3*%
X168960138Y-69240714D03*
X168960138Y-71065714D03*
%TD*%
D13*
%TO.C,J6*%
X183630604Y-74644607D03*
D14*
X183630604Y-72104607D03*
%TD*%
D13*
%TO.C,J5*%
X179773182Y-76475507D03*
D14*
X179773182Y-79015507D03*
%TD*%
D15*
%TO.C,MH3*%
X185966658Y-78581644D03*
%TD*%
D13*
%TO.C,J1*%
X147866658Y-111601644D03*
D14*
X150406658Y-111601644D03*
X152946658Y-111601644D03*
X155486658Y-111601644D03*
X158026658Y-111601644D03*
X160566658Y-111601644D03*
X163106658Y-111601644D03*
X165646658Y-111601644D03*
%TD*%
D16*
%TO.C,D1*%
X179644968Y-72425627D03*
X179644968Y-69125627D03*
%TD*%
D13*
%TO.C,J2*%
X138722658Y-63341644D03*
D14*
X141262658Y-63341644D03*
X143802658Y-63341644D03*
X146342658Y-63341644D03*
X148882658Y-63341644D03*
X151422658Y-63341644D03*
X153962658Y-63341644D03*
X156502658Y-63341644D03*
X159042658Y-63341644D03*
X161582658Y-63341644D03*
%TD*%
D15*
%TO.C,MH2*%
X133896658Y-111601644D03*
%TD*%
D13*
%TO.C,J4*%
X165646658Y-63341644D03*
D14*
X168186658Y-63341644D03*
X170726658Y-63341644D03*
X173266658Y-63341644D03*
X175806658Y-63341644D03*
X178346658Y-63341644D03*
X180886658Y-63341644D03*
X183426658Y-63341644D03*
%TD*%
D17*
%TO.C,R1*%
X184654697Y-67682633D03*
X182829697Y-67682633D03*
%TD*%
D18*
%TO.C,D2*%
X161238442Y-87446985D03*
D19*
X163397442Y-87446985D03*
X165556442Y-87446985D03*
X167715442Y-87446985D03*
%TD*%
D10*
%TO.C,R2*%
X163712372Y-69318342D03*
X163712372Y-71143342D03*
%TD*%
D13*
%TO.C,J3*%
X170726658Y-111601644D03*
D14*
X173266658Y-111601644D03*
X175806658Y-111601644D03*
X178346658Y-111601644D03*
X180886658Y-111601644D03*
X183426658Y-111601644D03*
%TD*%
D13*
%TO.C,J7*%
X129116243Y-71587024D03*
D14*
X129116243Y-74127024D03*
X129116243Y-76667024D03*
X129116243Y-79207024D03*
X129116243Y-81747024D03*
X129116243Y-84287024D03*
X129116243Y-86827024D03*
X129116243Y-89367024D03*
X129116243Y-91907024D03*
X129116243Y-94447024D03*
X129116243Y-96987024D03*
X129116243Y-99527024D03*
X129116243Y-102067024D03*
X129116243Y-104607024D03*
X129116243Y-107147024D03*
X129116243Y-109687024D03*
%TD*%
D15*
%TO.C,MH4*%
X185966658Y-106521644D03*
%TD*%
%TO.C,MH1*%
X135166658Y-63341644D03*
%TD*%
D20*
%TO.C,SW1*%
X175142885Y-85033657D03*
X177682885Y-85033657D03*
X180222885Y-85033657D03*
%TD*%
M02*
