M48
; DRILL file {KiCad (6.0.8-1)-1} date Wednesday, November 16, 2022 at 10:41:24 PM
; FORMAT={-:-/ absolute / inch / decimal}
; #@! TF.CreationDate,2022-11-16T22:41:24-08:00
; #@! TF.GenerationSoftware,Kicad,Pcbnew,(6.0.8-1)-1
; #@! TF.FileFunction,Plated,1,2,PTH
FMAT,2
INCH
; #@! TA.AperFunction,Plated,PTH,ViaDrill
T1C0.0100
; #@! TA.AperFunction,Plated,PTH,ComponentDrill
T2C0.0281
; #@! TA.AperFunction,Plated,PTH,ComponentDrill
T3C0.0354
; #@! TA.AperFunction,Plated,PTH,ComponentDrill
T4C0.0394
%
G90
G05
T1
X4.8299Y-2.5123
X4.8299Y-2.6123
X4.8299Y-2.7123
X4.8299Y-2.8123
X4.8299Y-2.9123
X4.8299Y-3.0123
X4.8299Y-3.1123
X4.8299Y-3.2123
X4.8299Y-3.3123
X4.8299Y-3.4123
X4.8299Y-3.5123
X4.8299Y-3.6123
X4.8299Y-3.7123
X4.8299Y-3.8123
X4.8299Y-3.9123
X4.8299Y-4.0123
X4.8299Y-4.1123
X4.8299Y-4.2123
X4.8299Y-4.3123
X4.8299Y-4.4123
X4.9456Y-2.5064
X4.9456Y-2.6064
X4.9456Y-2.7064
X5.0456Y-2.5064
X5.0456Y-2.6064
X5.0456Y-2.7064
X5.1456Y-2.5064
X5.1456Y-2.6064
X5.1456Y-2.7064
X5.2991Y-3.0422
X5.3004Y-3.2066
X5.3286Y-2.6205
X5.392Y-4.0233
X5.392Y-4.1233
X5.3991Y-3.0422
X5.4004Y-3.2066
X5.4034Y-2.6218
X5.4723Y-3.9223
X5.4723Y-4.0223
X5.4723Y-4.1223
X5.4787Y-2.6218
X5.482Y-4.2814
X5.4991Y-3.0422
X5.5004Y-3.2066
X5.5364Y-3.9204
X5.5364Y-4.0204
X5.5364Y-4.1204
X5.5616Y-2.6237
X5.582Y-4.2814
X5.5991Y-3.0422
X5.6004Y-3.2066
X5.6079Y-3.8185
X5.6079Y-3.9185
X5.6079Y-4.0185
X5.6079Y-4.1185
X5.6463Y-2.6237
X5.6774Y-3.8153
X5.6774Y-3.9153
X5.6774Y-4.0153
X5.6774Y-4.1153
X5.6819Y-3.7172
X5.682Y-4.2814
X5.7292Y-2.6218
X5.7568Y-4.2827
X5.7774Y-3.7153
X5.7774Y-3.9153
X5.7774Y-4.0153
X5.7774Y-4.1153
X5.7793Y-3.6344
X5.8321Y-4.2827
X5.8774Y-3.7153
X5.8774Y-3.9153
X5.8774Y-4.0153
X5.8774Y-4.1153
X5.8793Y-3.6344
X5.915Y-4.2846
X5.9774Y-3.7153
X5.9774Y-3.9153
X5.9774Y-4.0153
X5.9774Y-4.1153
X5.9793Y-3.6344
X5.9843Y-3.4342
X5.9843Y-3.5342
X5.9997Y-4.2846
X6.0759Y-3.6343
X6.0774Y-3.7153
X6.0774Y-3.9153
X6.0774Y-4.0153
X6.0774Y-4.1153
X6.079Y-3.4326
X6.079Y-3.5326
X6.1506Y-3.6356
X6.1522Y-3.7166
X6.1522Y-3.9166
X6.1522Y-4.0166
X6.1522Y-4.1166
X6.1544Y-3.4326
X6.1544Y-3.5326
X6.2276Y-3.7166
X6.2276Y-3.9166
X6.2276Y-4.0166
X6.2276Y-4.1166
X6.3079Y-3.6262
X6.3104Y-3.7185
X6.3104Y-3.9185
X6.3104Y-4.0185
X6.3104Y-4.1185
X6.3952Y-3.7185
X6.3952Y-3.9185
X6.3952Y-4.0185
X6.3952Y-4.1185
X6.478Y-3.7166
X6.478Y-3.8166
X6.478Y-3.9166
X6.478Y-4.0166
X6.5477Y-3.7151
X6.5477Y-3.8151
X6.5477Y-3.9151
X6.5501Y-2.8586
X6.5501Y-2.9586
X6.6224Y-3.6087
X6.6231Y-3.7151
X6.6231Y-3.8151
X6.6231Y-3.9151
X6.6871Y-3.7153
X6.6871Y-3.8153
X6.7404Y-4.1906
X6.7404Y-4.2906
X6.7624Y-3.7155
X6.777Y-2.8554
X6.777Y-2.9554
X6.8159Y-4.0912
X6.8159Y-4.1912
X6.8159Y-4.2912
X6.8975Y-3.997
X6.8988Y-4.0894
X6.8988Y-4.1894
X6.8988Y-4.2894
X6.9632Y-4.0932
X6.9632Y-4.1932
X6.9632Y-4.2932
X6.9645Y-3.9945
X7.0461Y-4.0913
X7.0461Y-4.1913
X7.0461Y-4.2913
X7.0495Y-3.8953
X7.0495Y-3.9932
X7.0782Y-3.2037
X7.1151Y-3.8919
X7.1151Y-3.9919
X7.1151Y-4.0919
X7.1151Y-4.1919
X7.1151Y-4.2919
X7.1151Y-3.8116
X7.1316Y-2.6625
X7.1898Y-3.8932
X7.1898Y-3.9932
X7.1898Y-4.0932
X7.1898Y-4.1932
X7.1898Y-4.2932
X7.1899Y-3.8129
X7.1911Y-3.7339
X7.2034Y-3.5113
X7.2568Y-3.891
X7.2568Y-3.991
X7.2568Y-4.091
X7.2569Y-3.8108
X7.2581Y-3.7318
T2
X5.3602Y-2.8222
X5.4602Y-2.7222
X5.4602Y-2.9222
T3
X6.348Y-3.4428
X6.433Y-3.4428
X6.518Y-3.4428
X6.603Y-3.4428
X6.8954Y-3.3478
X6.9954Y-3.3478
X7.0954Y-3.3478
T4
X5.0833Y-2.8184
X5.0833Y-2.9184
X5.0833Y-3.0184
X5.0833Y-3.1184
X5.0833Y-3.2184
X5.0833Y-3.3184
X5.0833Y-3.4184
X5.0833Y-3.5184
X5.0833Y-3.6184
X5.0833Y-3.7184
X5.0833Y-3.8184
X5.0833Y-3.9184
X5.0833Y-4.0184
X5.0833Y-4.1184
X5.0833Y-4.2184
X5.0833Y-4.3184
X5.4615Y-2.4938
X5.5615Y-2.4938
X5.6615Y-2.4938
X5.7615Y-2.4938
X5.8215Y-4.3938
X5.8615Y-2.4938
X5.9215Y-4.3938
X5.9615Y-2.4938
X6.0215Y-4.3938
X6.0615Y-2.4938
X6.1215Y-4.3938
X6.1615Y-2.4938
X6.2215Y-4.3938
X6.2615Y-2.4938
X6.3215Y-4.3938
X6.3615Y-2.4938
X6.4215Y-4.3938
X6.5215Y-2.4938
X6.5215Y-4.3938
X6.6215Y-2.4938
X6.7215Y-2.4938
X6.7215Y-4.3938
X6.8215Y-2.4938
X6.8215Y-4.3938
X6.9215Y-2.4938
X6.9215Y-4.3938
X7.0215Y-2.4938
X7.0215Y-4.3938
X7.0777Y-3.0108
X7.0777Y-3.1108
X7.1215Y-2.4938
X7.1215Y-4.3938
X7.2215Y-2.4938
X7.2215Y-4.3938
X7.2296Y-2.8388
X7.2296Y-2.9388
T0
M30
